<svg width="412" height="84" viewBox="0 0 412 84" fill="none" xmlns="http://www.w3.org/2000/svg">
<rect width="83.7748" height="84" rx="13" fill="white"/>
<path d="M63.7429 41.8011C63.7429 55.3413 53.3051 66.2 40.5714 66.2C27.8377 66.2 17.4 55.3413 17.4 41.8011C17.4 28.2608 27.8377 17.4021 40.5714 17.4021C53.3051 17.4021 63.7429 28.2608 63.7429 41.8011Z" stroke="#008272" stroke-width="2.8"/>
<path d="M22.5816 25.9071C33.3316 34.8906 53.5153 31.8961 58.3418 25.9071" stroke="#008272" stroke-width="2.8"/>
<path d="M22.5816 57.4647C33.2657 47.9753 53.3255 51.1385 58.1224 57.4647" stroke="#008272" stroke-width="2.8"/>
<path d="M41.685 17.8449C57.6556 30.2837 53.1569 58.8468 41.0102 66.2179" stroke="#008272" stroke-width="2.8"/>
<path d="M39.4848 17.8449C24.1531 30.2837 28.4719 58.8468 40.1326 66.2179" stroke="#008272" stroke-width="2.8"/>
<line x1="17.3163" y1="41.3225" x2="63.8265" y2="41.3225" stroke="#008272" stroke-width="2.8"/>
<line x1="40.7964" y1="64.8337" x2="40.7964" y2="16" stroke="#008272" stroke-width="2.8"/>
<rect x="39.9326" y="56.56" width="5.2277" height="18.3394" transform="rotate(-51.7409 39.9326 56.56)" fill="#008272" stroke="white" stroke-width="2"/>
<rect x="-1.41036" y="0.104352" width="5.07308" height="28.7889" transform="matrix(-0.757355 -0.653003 -0.653003 0.757355 72.0517 45.2489)" fill="#008272" stroke="white" stroke-width="2"/>
<rect x="52.1194" y="60.7546" width="3" height="3.24096" transform="rotate(39.688 52.1194 60.7546)" fill="#008272"/>
<path d="M144.2 28.2L135.96 56H130.8L124.96 34.96L118.76 56L113.64 56.04L105.76 28.2H110.6L116.36 50.84L122.6 28.2H127.72L133.52 50.72L139.32 28.2H144.2ZM168.161 44.44C168.161 45.2667 168.108 46.0133 168.001 46.68H151.161C151.294 48.44 151.948 49.8533 153.121 50.92C154.294 51.9867 155.734 52.52 157.441 52.52C159.894 52.52 161.628 51.4933 162.641 49.44H167.561C166.894 51.4667 165.681 53.1333 163.921 54.44C162.188 55.72 160.028 56.36 157.441 56.36C155.334 56.36 153.441 55.8933 151.761 54.96C150.108 54 148.801 52.6667 147.841 50.96C146.908 49.2267 146.441 47.2267 146.441 44.96C146.441 42.6933 146.894 40.7067 147.801 39C148.734 37.2667 150.028 35.9333 151.681 35C153.361 34.0667 155.281 33.6 157.441 33.6C159.521 33.6 161.374 34.0533 163.001 34.96C164.628 35.8667 165.894 37.1467 166.801 38.8C167.708 40.4267 168.161 42.3067 168.161 44.44ZM163.401 43C163.374 41.32 162.774 39.9733 161.601 38.96C160.428 37.9467 158.974 37.44 157.241 37.44C155.668 37.44 154.321 37.9467 153.201 38.96C152.081 39.9467 151.414 41.2933 151.201 43H163.401ZM177.208 37.24C177.982 36.1733 179.035 35.3067 180.368 34.64C181.728 33.9467 183.235 33.6 184.888 33.6C186.835 33.6 188.595 34.0667 190.168 35C191.742 35.9333 192.982 37.2667 193.888 39C194.795 40.7067 195.248 42.6667 195.248 44.88C195.248 47.0933 194.795 49.08 193.888 50.84C192.982 52.5733 191.728 53.9333 190.128 54.92C188.555 55.88 186.808 56.36 184.888 56.36C183.182 56.36 181.662 56.0267 180.328 55.36C179.022 54.6933 177.982 53.84 177.208 52.8V56H172.648V26.4H177.208V37.24ZM190.608 44.88C190.608 43.36 190.288 42.0533 189.648 40.96C189.035 39.84 188.208 39 187.168 38.44C186.155 37.8533 185.062 37.56 183.888 37.56C182.742 37.56 181.648 37.8533 180.608 38.44C179.595 39.0267 178.768 39.88 178.128 41C177.515 42.12 177.208 43.44 177.208 44.96C177.208 46.48 177.515 47.8133 178.128 48.96C178.768 50.08 179.595 50.9333 180.608 51.52C181.648 52.1067 182.742 52.4 183.888 52.4C185.062 52.4 186.155 52.1067 187.168 51.52C188.208 50.9067 189.035 50.0267 189.648 48.88C190.288 47.7333 190.608 46.4 190.608 44.88ZM207.758 56.36C206.024 56.36 204.464 56.0533 203.078 55.44C201.718 54.8 200.638 53.9467 199.838 52.88C199.038 51.7867 198.611 50.5733 198.558 49.24H203.278C203.358 50.1733 203.798 50.96 204.598 51.6C205.424 52.2133 206.451 52.52 207.678 52.52C208.958 52.52 209.944 52.28 210.638 51.8C211.358 51.2933 211.718 50.6533 211.718 49.88C211.718 49.0533 211.318 48.44 210.518 48.04C209.744 47.64 208.504 47.2 206.798 46.72C205.144 46.2667 203.798 45.8267 202.758 45.4C201.718 44.9733 200.811 44.32 200.038 43.44C199.291 42.56 198.918 41.4 198.918 39.96C198.918 38.7867 199.264 37.72 199.958 36.76C200.651 35.7733 201.638 35 202.918 34.44C204.224 33.88 205.718 33.6 207.398 33.6C209.904 33.6 211.918 34.24 213.438 35.52C214.984 36.7733 215.811 38.4933 215.918 40.68H211.358C211.278 39.6933 210.878 38.9067 210.158 38.32C209.438 37.7333 208.464 37.44 207.238 37.44C206.038 37.44 205.118 37.6667 204.478 38.12C203.838 38.5733 203.518 39.1733 203.518 39.92C203.518 40.5067 203.731 41 204.158 41.4C204.584 41.8 205.104 42.12 205.718 42.36C206.331 42.5733 207.238 42.8533 208.438 43.2C210.038 43.6267 211.344 44.0667 212.358 44.52C213.398 44.9467 214.291 45.5867 215.038 46.44C215.784 47.2933 216.171 48.4267 216.198 49.84C216.198 51.0933 215.851 52.2133 215.158 53.2C214.464 54.1867 213.478 54.96 212.198 55.52C210.944 56.08 209.464 56.36 207.758 56.36ZM223.445 31.04C222.618 31.04 221.925 30.76 221.365 30.2C220.805 29.64 220.525 28.9467 220.525 28.12C220.525 27.2933 220.805 26.6 221.365 26.04C221.925 25.48 222.618 25.2 223.445 25.2C224.245 25.2 224.925 25.48 225.485 26.04C226.045 26.6 226.325 27.2933 226.325 28.12C226.325 28.9467 226.045 29.64 225.485 30.2C224.925 30.76 224.245 31.04 223.445 31.04ZM225.685 33.96V56H221.125V33.96H225.685ZM236.992 37.68V49.88C236.992 50.7067 237.179 51.3067 237.552 51.68C237.952 52.0267 238.619 52.2 239.552 52.2H242.352V56H238.752C236.699 56 235.125 55.52 234.032 54.56C232.939 53.6 232.392 52.04 232.392 49.88V37.68H229.792V33.96H232.392V28.48H236.992V33.96H242.352V37.68H236.992ZM266.755 44.44C266.755 45.2667 266.701 46.0133 266.595 46.68H249.755C249.888 48.44 250.541 49.8533 251.715 50.92C252.888 51.9867 254.328 52.52 256.035 52.52C258.488 52.52 260.221 51.4933 261.235 49.44H266.155C265.488 51.4667 264.275 53.1333 262.515 54.44C260.781 55.72 258.621 56.36 256.035 56.36C253.928 56.36 252.035 55.8933 250.355 54.96C248.701 54 247.395 52.6667 246.435 50.96C245.501 49.2267 245.035 47.2267 245.035 44.96C245.035 42.6933 245.488 40.7067 246.395 39C247.328 37.2667 248.621 35.9333 250.275 35C251.955 34.0667 253.875 33.6 256.035 33.6C258.115 33.6 259.968 34.0533 261.595 34.96C263.221 35.8667 264.488 37.1467 265.395 38.8C266.301 40.4267 266.755 42.3067 266.755 44.44ZM261.995 43C261.968 41.32 261.368 39.9733 260.195 38.96C259.021 37.9467 257.568 37.44 255.835 37.44C254.261 37.44 252.915 37.9467 251.795 38.96C250.675 39.9467 250.008 41.2933 249.795 43H261.995ZM280.113 42.04C280.113 39.32 280.739 36.88 281.993 34.72C283.273 32.56 284.993 30.88 287.153 29.68C289.339 28.4533 291.726 27.84 294.313 27.84C297.273 27.84 299.899 28.5733 302.193 30.04C304.513 31.48 306.193 33.5333 307.233 36.2H301.753C301.033 34.7333 300.033 33.64 298.753 32.92C297.473 32.2 295.993 31.84 294.313 31.84C292.473 31.84 290.833 32.2533 289.393 33.08C287.953 33.9067 286.819 35.0933 285.993 36.64C285.193 38.1867 284.793 39.9867 284.793 42.04C284.793 44.0933 285.193 45.8933 285.993 47.44C286.819 48.9867 287.953 50.1867 289.393 51.04C290.833 51.8667 292.473 52.28 294.313 52.28C295.993 52.28 297.473 51.92 298.753 51.2C300.033 50.48 301.033 49.3867 301.753 47.92H307.233C306.193 50.5867 304.513 52.64 302.193 54.08C299.899 55.52 297.273 56.24 294.313 56.24C291.699 56.24 289.313 55.64 287.153 54.44C284.993 53.2133 283.273 51.52 281.993 49.36C280.739 47.2 280.113 44.76 280.113 42.04ZM323.97 33.6C325.65 33.6 327.144 33.96 328.45 34.68C329.784 35.4 330.824 36.4667 331.57 37.88C332.344 39.2933 332.73 41 332.73 43V56H328.21V43.68C328.21 41.7067 327.717 40.2 326.73 39.16C325.744 38.0933 324.397 37.56 322.69 37.56C320.984 37.56 319.624 38.0933 318.61 39.16C317.624 40.2 317.13 41.7067 317.13 43.68V56H312.57V26.4H317.13V36.52C317.904 35.5867 318.877 34.8667 320.05 34.36C321.25 33.8533 322.557 33.6 323.97 33.6ZM358.747 44.44C358.747 45.2667 358.694 46.0133 358.587 46.68H341.747C341.88 48.44 342.534 49.8533 343.707 50.92C344.88 51.9867 346.32 52.52 348.027 52.52C350.48 52.52 352.214 51.4933 353.227 49.44H358.147C357.48 51.4667 356.267 53.1333 354.507 54.44C352.774 55.72 350.614 56.36 348.027 56.36C345.92 56.36 344.027 55.8933 342.347 54.96C340.694 54 339.387 52.6667 338.427 50.96C337.494 49.2267 337.027 47.2267 337.027 44.96C337.027 42.6933 337.48 40.7067 338.387 39C339.32 37.2667 340.614 35.9333 342.267 35C343.947 34.0667 345.867 33.6 348.027 33.6C350.107 33.6 351.96 34.0533 353.587 34.96C355.214 35.8667 356.48 37.1467 357.387 38.8C358.294 40.4267 358.747 42.3067 358.747 44.44ZM353.987 43C353.96 41.32 353.36 39.9733 352.187 38.96C351.014 37.9467 349.56 37.44 347.827 37.44C346.254 37.44 344.907 37.9467 343.787 38.96C342.667 39.9467 342 41.2933 341.787 43H353.987ZM361.714 44.96C361.714 42.6933 362.168 40.7067 363.074 39C364.008 37.2667 365.288 35.9333 366.914 35C368.541 34.0667 370.408 33.6 372.514 33.6C375.181 33.6 377.381 34.24 379.114 35.52C380.874 36.7733 382.061 38.5733 382.674 40.92H377.754C377.354 39.8267 376.714 38.9733 375.834 38.36C374.954 37.7467 373.848 37.44 372.514 37.44C370.648 37.44 369.154 38.1067 368.034 39.44C366.941 40.7467 366.394 42.5867 366.394 44.96C366.394 47.3333 366.941 49.1867 368.034 50.52C369.154 51.8533 370.648 52.52 372.514 52.52C375.154 52.52 376.901 51.36 377.754 49.04H382.674C382.034 51.28 380.834 53.0667 379.074 54.4C377.314 55.7067 375.128 56.36 372.514 56.36C370.408 56.36 368.541 55.8933 366.914 54.96C365.288 54 364.008 52.6667 363.074 50.96C362.168 49.2267 361.714 47.2267 361.714 44.96ZM395.939 45L406.099 56H399.939L391.779 46.52V56H387.219V26.4H391.779V43.6L399.779 33.96H406.099L395.939 45Z" fill="white"/>
</svg>
