<svg width="412" height="84" viewBox="0 0 412 84" fill="none" xmlns="http://www.w3.org/2000/svg">
<rect width="83.7748" height="84" rx="13" fill="#008272"/>
<path d="M63.7429 40.8011C63.7429 54.3413 53.3051 65.2 40.5714 65.2C27.8377 65.2 17.4 54.3413 17.4 40.8011C17.4 27.2608 27.8377 16.4022 40.5714 16.4022C53.3051 16.4022 63.7429 27.2608 63.7429 40.8011Z" stroke="white" stroke-width="2.8"/>
<path d="M22.5816 24.9071C33.3316 33.8906 53.5153 30.8961 58.3418 24.9071" stroke="white" stroke-width="2.8"/>
<path d="M22.5816 56.4647C33.2657 46.9753 53.3255 50.1385 58.1224 56.4647" stroke="white" stroke-width="2.8"/>
<path d="M41.685 16.8449C57.6556 29.2837 53.1569 57.8468 41.0102 65.2179" stroke="white" stroke-width="2.8"/>
<path d="M39.4848 16.8449C24.1531 29.2837 28.4719 57.8468 40.1326 65.2179" stroke="white" stroke-width="2.8"/>
<line x1="17.3163" y1="40.3225" x2="63.8265" y2="40.3225" stroke="white" stroke-width="2.8"/>
<line x1="40.7964" y1="63.8337" x2="40.7964" y2="15" stroke="white" stroke-width="2.8"/>
<rect x="42.4044" y="52.1787" width="5.2277" height="18.3394" transform="rotate(-51.7409 42.4044 52.1787)" fill="#008272" stroke="white" stroke-width="2"/>
<rect x="-1.41036" y="0.104352" width="5.07308" height="30.6765" transform="matrix(-0.757355 -0.653003 -0.653003 0.757355 75.7562 39.438)" fill="#008272" stroke="white" stroke-width="2"/>
<rect x="54.5913" y="56.3733" width="3" height="3.24096" transform="rotate(39.688 54.5913 56.3733)" fill="#008272"/>
<path d="M144.2 26.2L135.96 54H130.8L124.96 32.96L118.76 54L113.64 54.04L105.76 26.2H110.6L116.36 48.84L122.6 26.2H127.72L133.52 48.72L139.32 26.2H144.2ZM168.161 42.44C168.161 43.2667 168.108 44.0133 168.001 44.68H151.161C151.294 46.44 151.948 47.8533 153.121 48.92C154.294 49.9867 155.734 50.52 157.441 50.52C159.894 50.52 161.628 49.4933 162.641 47.44H167.561C166.894 49.4667 165.681 51.1333 163.921 52.44C162.188 53.72 160.028 54.36 157.441 54.36C155.334 54.36 153.441 53.8933 151.761 52.96C150.108 52 148.801 50.6667 147.841 48.96C146.908 47.2267 146.441 45.2267 146.441 42.96C146.441 40.6933 146.894 38.7067 147.801 37C148.734 35.2667 150.028 33.9333 151.681 33C153.361 32.0667 155.281 31.6 157.441 31.6C159.521 31.6 161.374 32.0533 163.001 32.96C164.628 33.8667 165.894 35.1467 166.801 36.8C167.708 38.4267 168.161 40.3067 168.161 42.44ZM163.401 41C163.374 39.32 162.774 37.9733 161.601 36.96C160.428 35.9467 158.974 35.44 157.241 35.44C155.668 35.44 154.321 35.9467 153.201 36.96C152.081 37.9467 151.414 39.2933 151.201 41H163.401ZM177.208 35.24C177.982 34.1733 179.035 33.3067 180.368 32.64C181.728 31.9467 183.235 31.6 184.888 31.6C186.835 31.6 188.595 32.0667 190.168 33C191.742 33.9333 192.982 35.2667 193.888 37C194.795 38.7067 195.248 40.6667 195.248 42.88C195.248 45.0933 194.795 47.08 193.888 48.84C192.982 50.5733 191.728 51.9333 190.128 52.92C188.555 53.88 186.808 54.36 184.888 54.36C183.182 54.36 181.662 54.0267 180.328 53.36C179.022 52.6933 177.982 51.84 177.208 50.8V54H172.648V24.4H177.208V35.24ZM190.608 42.88C190.608 41.36 190.288 40.0533 189.648 38.96C189.035 37.84 188.208 37 187.168 36.44C186.155 35.8533 185.062 35.56 183.888 35.56C182.742 35.56 181.648 35.8533 180.608 36.44C179.595 37.0267 178.768 37.88 178.128 39C177.515 40.12 177.208 41.44 177.208 42.96C177.208 44.48 177.515 45.8133 178.128 46.96C178.768 48.08 179.595 48.9333 180.608 49.52C181.648 50.1067 182.742 50.4 183.888 50.4C185.062 50.4 186.155 50.1067 187.168 49.52C188.208 48.9067 189.035 48.0267 189.648 46.88C190.288 45.7333 190.608 44.4 190.608 42.88ZM207.758 54.36C206.024 54.36 204.464 54.0533 203.078 53.44C201.718 52.8 200.638 51.9467 199.838 50.88C199.038 49.7867 198.611 48.5733 198.558 47.24H203.278C203.358 48.1733 203.798 48.96 204.598 49.6C205.424 50.2133 206.451 50.52 207.678 50.52C208.958 50.52 209.944 50.28 210.638 49.8C211.358 49.2933 211.718 48.6533 211.718 47.88C211.718 47.0533 211.318 46.44 210.518 46.04C209.744 45.64 208.504 45.2 206.798 44.72C205.144 44.2667 203.798 43.8267 202.758 43.4C201.718 42.9733 200.811 42.32 200.038 41.44C199.291 40.56 198.918 39.4 198.918 37.96C198.918 36.7867 199.264 35.72 199.958 34.76C200.651 33.7733 201.638 33 202.918 32.44C204.224 31.88 205.718 31.6 207.398 31.6C209.904 31.6 211.918 32.24 213.438 33.52C214.984 34.7733 215.811 36.4933 215.918 38.68H211.358C211.278 37.6933 210.878 36.9067 210.158 36.32C209.438 35.7333 208.464 35.44 207.238 35.44C206.038 35.44 205.118 35.6667 204.478 36.12C203.838 36.5733 203.518 37.1733 203.518 37.92C203.518 38.5067 203.731 39 204.158 39.4C204.584 39.8 205.104 40.12 205.718 40.36C206.331 40.5733 207.238 40.8533 208.438 41.2C210.038 41.6267 211.344 42.0667 212.358 42.52C213.398 42.9467 214.291 43.5867 215.038 44.44C215.784 45.2933 216.171 46.4267 216.198 47.84C216.198 49.0933 215.851 50.2133 215.158 51.2C214.464 52.1867 213.478 52.96 212.198 53.52C210.944 54.08 209.464 54.36 207.758 54.36ZM223.445 29.04C222.618 29.04 221.925 28.76 221.365 28.2C220.805 27.64 220.525 26.9467 220.525 26.12C220.525 25.2933 220.805 24.6 221.365 24.04C221.925 23.48 222.618 23.2 223.445 23.2C224.245 23.2 224.925 23.48 225.485 24.04C226.045 24.6 226.325 25.2933 226.325 26.12C226.325 26.9467 226.045 27.64 225.485 28.2C224.925 28.76 224.245 29.04 223.445 29.04ZM225.685 31.96V54H221.125V31.96H225.685ZM236.992 35.68V47.88C236.992 48.7067 237.179 49.3067 237.552 49.68C237.952 50.0267 238.619 50.2 239.552 50.2H242.352V54H238.752C236.699 54 235.125 53.52 234.032 52.56C232.939 51.6 232.392 50.04 232.392 47.88V35.68H229.792V31.96H232.392V26.48H236.992V31.96H242.352V35.68H236.992ZM266.755 42.44C266.755 43.2667 266.701 44.0133 266.595 44.68H249.755C249.888 46.44 250.541 47.8533 251.715 48.92C252.888 49.9867 254.328 50.52 256.035 50.52C258.488 50.52 260.221 49.4933 261.235 47.44H266.155C265.488 49.4667 264.275 51.1333 262.515 52.44C260.781 53.72 258.621 54.36 256.035 54.36C253.928 54.36 252.035 53.8933 250.355 52.96C248.701 52 247.395 50.6667 246.435 48.96C245.501 47.2267 245.035 45.2267 245.035 42.96C245.035 40.6933 245.488 38.7067 246.395 37C247.328 35.2667 248.621 33.9333 250.275 33C251.955 32.0667 253.875 31.6 256.035 31.6C258.115 31.6 259.968 32.0533 261.595 32.96C263.221 33.8667 264.488 35.1467 265.395 36.8C266.301 38.4267 266.755 40.3067 266.755 42.44ZM261.995 41C261.968 39.32 261.368 37.9733 260.195 36.96C259.021 35.9467 257.568 35.44 255.835 35.44C254.261 35.44 252.915 35.9467 251.795 36.96C250.675 37.9467 250.008 39.2933 249.795 41H261.995Z" fill="black"/>
<path d="M280.113 40.04C280.113 37.32 280.739 34.88 281.993 32.72C283.273 30.56 284.993 28.88 287.153 27.68C289.339 26.4533 291.726 25.84 294.313 25.84C297.273 25.84 299.899 26.5733 302.193 28.04C304.513 29.48 306.193 31.5333 307.233 34.2H301.753C301.033 32.7333 300.033 31.64 298.753 30.92C297.473 30.2 295.993 29.84 294.313 29.84C292.473 29.84 290.833 30.2533 289.393 31.08C287.953 31.9067 286.819 33.0933 285.993 34.64C285.193 36.1867 284.793 37.9867 284.793 40.04C284.793 42.0933 285.193 43.8933 285.993 45.44C286.819 46.9867 287.953 48.1867 289.393 49.04C290.833 49.8667 292.473 50.28 294.313 50.28C295.993 50.28 297.473 49.92 298.753 49.2C300.033 48.48 301.033 47.3867 301.753 45.92H307.233C306.193 48.5867 304.513 50.64 302.193 52.08C299.899 53.52 297.273 54.24 294.313 54.24C291.699 54.24 289.313 53.64 287.153 52.44C284.993 51.2133 283.273 49.52 281.993 47.36C280.739 45.2 280.113 42.76 280.113 40.04ZM323.97 31.6C325.65 31.6 327.144 31.96 328.45 32.68C329.784 33.4 330.824 34.4667 331.57 35.88C332.344 37.2933 332.73 39 332.73 41V54H328.21V41.68C328.21 39.7067 327.717 38.2 326.73 37.16C325.744 36.0933 324.397 35.56 322.69 35.56C320.984 35.56 319.624 36.0933 318.61 37.16C317.624 38.2 317.13 39.7067 317.13 41.68V54H312.57V24.4H317.13V34.52C317.904 33.5867 318.877 32.8667 320.05 32.36C321.25 31.8533 322.557 31.6 323.97 31.6ZM358.747 42.44C358.747 43.2667 358.694 44.0133 358.587 44.68H341.747C341.88 46.44 342.534 47.8533 343.707 48.92C344.88 49.9867 346.32 50.52 348.027 50.52C350.48 50.52 352.214 49.4933 353.227 47.44H358.147C357.48 49.4667 356.267 51.1333 354.507 52.44C352.774 53.72 350.614 54.36 348.027 54.36C345.92 54.36 344.027 53.8933 342.347 52.96C340.694 52 339.387 50.6667 338.427 48.96C337.494 47.2267 337.027 45.2267 337.027 42.96C337.027 40.6933 337.48 38.7067 338.387 37C339.32 35.2667 340.614 33.9333 342.267 33C343.947 32.0667 345.867 31.6 348.027 31.6C350.107 31.6 351.96 32.0533 353.587 32.96C355.214 33.8667 356.48 35.1467 357.387 36.8C358.294 38.4267 358.747 40.3067 358.747 42.44ZM353.987 41C353.96 39.32 353.36 37.9733 352.187 36.96C351.014 35.9467 349.56 35.44 347.827 35.44C346.254 35.44 344.907 35.9467 343.787 36.96C342.667 37.9467 342 39.2933 341.787 41H353.987ZM361.714 42.96C361.714 40.6933 362.168 38.7067 363.074 37C364.008 35.2667 365.288 33.9333 366.914 33C368.541 32.0667 370.408 31.6 372.514 31.6C375.181 31.6 377.381 32.24 379.114 33.52C380.874 34.7733 382.061 36.5733 382.674 38.92H377.754C377.354 37.8267 376.714 36.9733 375.834 36.36C374.954 35.7467 373.848 35.44 372.514 35.44C370.648 35.44 369.154 36.1067 368.034 37.44C366.941 38.7467 366.394 40.5867 366.394 42.96C366.394 45.3333 366.941 47.1867 368.034 48.52C369.154 49.8533 370.648 50.52 372.514 50.52C375.154 50.52 376.901 49.36 377.754 47.04H382.674C382.034 49.28 380.834 51.0667 379.074 52.4C377.314 53.7067 375.128 54.36 372.514 54.36C370.408 54.36 368.541 53.8933 366.914 52.96C365.288 52 364.008 50.6667 363.074 48.96C362.168 47.2267 361.714 45.2267 361.714 42.96ZM395.939 43L406.099 54H399.939L391.779 44.52V54H387.219V24.4H391.779V41.6L399.779 31.96H406.099L395.939 43Z" fill="#008272"/>
</svg>
