<svg width="198" height="40" viewBox="0 0 198 40" fill="none" xmlns="http://www.w3.org/2000/svg">
<path d="M68.4152 14.1745L64.1432 30.9745H60.5432L57.5192 19.6225H57.4712L54.4472 30.9745H50.8472L46.5752 14.1745H49.8392L52.6712 25.6945H52.7192L55.7912 14.1745H59.1992L62.2712 25.6465H62.3192L65.1512 14.1745H68.4152ZM74.4143 23.7745V28.0945H81.1103V30.9745H71.0543V14.1745H81.1103V17.0545H74.4143V20.8945H79.6703V23.7745H74.4143ZM96.1062 21.0625L94.0182 22.2625V22.3105L96.1062 23.5105V29.3665L93.3222 30.9745H84.2262V14.1745H93.3222L96.1062 15.7825V21.0625ZM87.5862 23.7265V28.0945H92.7462V23.7265H87.5862ZM87.5862 17.0545V20.8465H92.7462V17.0545H87.5862ZM109.187 26.0545H112.547V29.4865L109.763 31.0945H102.971L100.187 29.4865V15.6625L102.971 14.0545H109.763L112.547 15.6625V19.0945H109.187V16.9345H103.547V28.2145H109.187V26.0545ZM119.742 23.7745V30.9745H116.382V14.1745H119.742V20.8945H126.342V14.1745H129.702V30.9745H126.342V23.7745H119.742ZM137.133 23.7745V28.0945H143.829V30.9745H133.773V14.1745H143.829V17.0545H137.133V20.8945H142.389V23.7745H137.133ZM155.945 26.0545H159.305V29.4865L156.521 31.0945H149.729L146.945 29.4865V15.6625L149.729 14.0545H156.521L159.305 15.6625V19.0945H155.945V16.9345H150.305V28.2145H155.945V26.0545ZM163.14 30.9745V14.1745H166.5V21.7345H166.548L172.812 14.1745H176.796L170.172 22.0465L177.54 30.9745H173.508L168.156 24.4465L166.5 26.3905V30.9745H163.14Z" fill="white"/>
<rect width="6.73764" height="16.4372" transform="matrix(-0.754516 0.656282 0.660481 0.750843 13.3035 2.25674)" fill="white"/>
<rect width="8.74618" height="6.72432" transform="matrix(-0.754516 0.656282 0.660481 0.750843 26.8827 3.31834)" fill="white"/>
<rect width="6.72432" height="15.9518" transform="matrix(0.656945 0.753901 0.75812 -0.652159 2.20923 24.601)" fill="white" fill-opacity="0.91"/>
<rect width="8.78946" height="6.63899" transform="matrix(0.656634 0.754172 0.757852 -0.652469 3.03552 11.3059)" fill="white" fill-opacity="0.91"/>
<rect width="6.73764" height="16.4372" transform="matrix(0.755613 -0.655032 -0.659219 -0.751938 24.9357 36.41)" fill="white" fill-opacity="0.71"/>
<rect width="8.7983" height="6.72432" transform="matrix(0.755613 -0.655032 -0.659219 -0.751938 11.319 35.36)" fill="white" fill-opacity="0.71"/>
<rect width="6.72494" height="16.4683" transform="matrix(-0.665853 -0.74601 -0.750358 0.661114 36.301 13.7107)" fill="white" fill-opacity="0.46"/>
<rect width="8.78172" height="6.73701" transform="matrix(-0.665544 -0.746285 -0.750085 0.661423 35.3438 27.2585)" fill="white" fill-opacity="0.46"/>
</svg>
