<svg width="185" height="35" viewBox="0 0 185 35" fill="none" xmlns="http://www.w3.org/2000/svg">
<path d="M55.4152 9.17455L51.1432 25.9745H47.5432L44.5192 14.6225H44.4712L41.4472 25.9745H37.8472L33.5752 9.17455H36.8392L39.6712 20.6945H39.7192L42.7912 9.17455H46.1992L49.2712 20.6465H49.3192L52.1512 9.17455H55.4152ZM61.4143 18.7745V23.0945H68.1103V25.9745H58.0543V9.17455H68.1103V12.0545H61.4143V15.8945H66.6703V18.7745H61.4143ZM83.1062 16.0625L81.0182 17.2625V17.3105L83.1062 18.5105V24.3665L80.3222 25.9745H71.2262V9.17455H80.3222L83.1062 10.7825V16.0625ZM74.5862 18.7265V23.0945H79.7462V18.7265H74.5862ZM74.5862 12.0545V15.8465H79.7462V12.0545H74.5862ZM96.1871 21.0545H99.5471V24.4865L96.7631 26.0945H89.9711L87.1871 24.4865V10.6625L89.9711 9.05455H96.7631L99.5471 10.6625V14.0945H96.1871V11.9345H90.5471V23.2145H96.1871V21.0545ZM106.742 18.7745V25.9745H103.382V9.17455H106.742V15.8945H113.342V9.17455H116.702V25.9745H113.342V18.7745H106.742ZM124.133 18.7745V23.0945H130.829V25.9745H120.773V9.17455H130.829V12.0545H124.133V15.8945H129.389V18.7745H124.133ZM142.945 21.0545H146.305V24.4865L143.521 26.0945H136.729L133.945 24.4865V10.6625L136.729 9.05455H143.521L146.305 10.6625V14.0945H142.945V11.9345H137.305V23.2145H142.945V21.0545ZM150.14 25.9745V9.17455H153.5V16.7345H153.548L159.812 9.17455H163.796L157.172 17.0465L164.54 25.9745H160.508L155.156 19.4465L153.5 21.3905V25.9745H150.14Z" fill="white"/>
<rect width="6.99124" height="19.7019" transform="matrix(-0.741587 0.670857 0.645872 0.763445 5.61194 6.95422)" fill="white"/>
<rect width="8.86545" height="7.07402" transform="matrix(-0.741587 0.670857 0.645872 0.763445 20.9185 10.1265)" fill="white"/>
</svg>
