<svg width="412" height="84" viewBox="0 0 412 84" fill="none" xmlns="http://www.w3.org/2000/svg">
<rect width="83.7748" height="84" rx="13" fill="white"/>
<path d="M63.1429 41.8011C63.1429 55.0378 52.9465 65.6 40.5714 65.6C28.1963 65.6 18 55.0378 18 41.8011C18 28.5643 28.1963 18.0021 40.5714 18.0021C52.9465 18.0021 63.1429 28.5643 63.1429 41.8011Z" stroke="#008272" stroke-width="4"/>
<path d="M22.5816 25.9071C33.3316 34.8906 53.5153 31.8961 58.3418 25.9071" stroke="#008272" stroke-width="4"/>
<path d="M22.5816 57.4647C33.2657 47.9753 53.3255 51.1385 58.1224 57.4647" stroke="#008272" stroke-width="4"/>
<path d="M41.685 17.8449C57.6556 30.2837 53.1569 58.8468 41.0102 66.2179" stroke="#008272" stroke-width="4"/>
<path d="M39.4848 17.8449C24.1531 30.2837 28.4719 58.8468 40.1326 66.2179" stroke="#008272" stroke-width="4"/>
<line x1="17.3163" y1="40.7225" x2="63.8265" y2="40.7225" stroke="#008272" stroke-width="4"/>
<line x1="40.1964" y1="64.8337" x2="40.1964" y2="16" stroke="#008272" stroke-width="4"/>
<rect x="41.4044" y="57.561" width="6.62491" height="20.1969" transform="rotate(-51.7409 41.4044 57.561)" fill="#008272" stroke="white" stroke-width="2"/>
<rect x="-1.41036" y="0.104352" width="6.89166" height="32.3055" transform="matrix(-0.757355 -0.653003 -0.653003 0.757355 76.9987 44.9106)" fill="#008272" stroke="white" stroke-width="2"/>
<rect x="54.4565" y="60.6585" width="3" height="4.76181" transform="rotate(39.688 54.4565 60.6585)" fill="#008272"/>
<path d="M152.04 27.64L142.152 61H135.96L128.952 35.752L121.512 61L115.368 61.048L105.912 27.64H111.72L118.632 54.808L126.12 27.64H132.264L139.224 54.664L146.184 27.64H152.04ZM180.793 47.128C180.793 48.12 180.729 49.016 180.601 49.816H160.393C160.553 51.928 161.337 53.624 162.745 54.904C164.153 56.184 165.881 56.824 167.929 56.824C170.873 56.824 172.953 55.592 174.169 53.128H180.073C179.273 55.56 177.817 57.56 175.705 59.128C173.625 60.664 171.033 61.432 167.929 61.432C165.401 61.432 163.129 60.872 161.113 59.752C159.129 58.6 157.561 57 156.409 54.952C155.289 52.872 154.729 50.472 154.729 47.752C154.729 45.032 155.273 42.648 156.361 40.6C157.481 38.52 159.033 36.92 161.017 35.8C163.033 34.68 165.337 34.12 167.929 34.12C170.425 34.12 172.649 34.664 174.601 35.752C176.553 36.84 178.073 38.376 179.161 40.36C180.249 42.312 180.793 44.568 180.793 47.128ZM175.081 45.4C175.049 43.384 174.329 41.768 172.921 40.552C171.513 39.336 169.769 38.728 167.689 38.728C165.801 38.728 164.185 39.336 162.841 40.552C161.497 41.736 160.697 43.352 160.441 45.4H175.081ZM191.65 38.488C192.578 37.208 193.842 36.168 195.442 35.368C197.074 34.536 198.882 34.12 200.866 34.12C203.202 34.12 205.314 34.68 207.202 35.8C209.09 36.92 210.578 38.52 211.666 40.6C212.754 42.648 213.298 45 213.298 47.656C213.298 50.312 212.754 52.696 211.666 54.808C210.578 56.888 209.074 58.52 207.154 59.704C205.266 60.856 203.17 61.432 200.866 61.432C198.818 61.432 196.994 61.032 195.394 60.232C193.826 59.432 192.578 58.408 191.65 57.16V61H186.178V25.48H191.65V38.488ZM207.73 47.656C207.73 45.832 207.346 44.264 206.578 42.952C205.842 41.608 204.85 40.6 203.602 39.928C202.386 39.224 201.074 38.872 199.666 38.872C198.29 38.872 196.978 39.224 195.73 39.928C194.514 40.632 193.522 41.656 192.754 43C192.018 44.344 191.65 45.928 191.65 47.752C191.65 49.576 192.018 51.176 192.754 52.552C193.522 53.896 194.514 54.92 195.73 55.624C196.978 56.328 198.29 56.68 199.666 56.68C201.074 56.68 202.386 56.328 203.602 55.624C204.85 54.888 205.842 53.832 206.578 52.456C207.346 51.08 207.73 49.48 207.73 47.656ZM216.885 44.248C216.885 40.984 217.637 38.056 219.141 35.464C220.677 32.872 222.741 30.856 225.333 29.416C227.957 27.944 230.821 27.208 233.925 27.208C237.477 27.208 240.629 28.088 243.381 29.848C246.165 31.576 248.181 34.04 249.429 37.24H242.853C241.989 35.48 240.789 34.168 239.253 33.304C237.717 32.44 235.941 32.008 233.925 32.008C231.717 32.008 229.749 32.504 228.021 33.496C226.293 34.488 224.933 35.912 223.941 37.768C222.981 39.624 222.501 41.784 222.501 44.248C222.501 46.712 222.981 48.872 223.941 50.728C224.933 52.584 226.293 54.024 228.021 55.048C229.749 56.04 231.717 56.536 233.925 56.536C235.941 56.536 237.717 56.104 239.253 55.24C240.789 54.376 241.989 53.064 242.853 51.304H249.429C248.181 54.504 246.165 56.968 243.381 58.696C240.629 60.424 237.477 61.288 233.925 61.288C230.789 61.288 227.925 60.568 225.333 59.128C222.741 57.656 220.677 55.624 219.141 53.032C217.637 50.44 216.885 47.512 216.885 44.248ZM269.514 34.12C271.53 34.12 273.322 34.552 274.89 35.416C276.49 36.28 277.738 37.56 278.634 39.256C279.562 40.952 280.026 43 280.026 45.4V61H274.602V46.216C274.602 43.848 274.01 42.04 272.826 40.792C271.642 39.512 270.026 38.872 267.978 38.872C265.93 38.872 264.298 39.512 263.082 40.792C261.898 42.04 261.306 43.848 261.306 46.216V61H255.834V25.48H261.306V37.624C262.234 36.504 263.402 35.64 264.81 35.032C266.25 34.424 267.818 34.12 269.514 34.12ZM311.246 47.128C311.246 48.12 311.182 49.016 311.054 49.816H290.846C291.006 51.928 291.79 53.624 293.198 54.904C294.606 56.184 296.334 56.824 298.382 56.824C301.326 56.824 303.406 55.592 304.622 53.128H310.526C309.726 55.56 308.27 57.56 306.158 59.128C304.078 60.664 301.486 61.432 298.382 61.432C295.854 61.432 293.582 60.872 291.566 59.752C289.582 58.6 288.014 57 286.862 54.952C285.742 52.872 285.182 50.472 285.182 47.752C285.182 45.032 285.726 42.648 286.814 40.6C287.934 38.52 289.486 36.92 291.47 35.8C293.486 34.68 295.79 34.12 298.382 34.12C300.878 34.12 303.102 34.664 305.054 35.752C307.006 36.84 308.526 38.376 309.614 40.36C310.702 42.312 311.246 44.568 311.246 47.128ZM305.534 45.4C305.502 43.384 304.782 41.768 303.374 40.552C301.966 39.336 300.222 38.728 298.142 38.728C296.254 38.728 294.638 39.336 293.294 40.552C291.95 41.736 291.15 43.352 290.894 45.4H305.534ZM314.807 47.752C314.807 45.032 315.351 42.648 316.439 40.6C317.559 38.52 319.095 36.92 321.047 35.8C322.999 34.68 325.239 34.12 327.767 34.12C330.967 34.12 333.607 34.888 335.687 36.424C337.799 37.928 339.223 40.088 339.959 42.904H334.055C333.575 41.592 332.807 40.568 331.751 39.832C330.695 39.096 329.367 38.728 327.767 38.728C325.527 38.728 323.735 39.528 322.391 41.128C321.079 42.696 320.423 44.904 320.423 47.752C320.423 50.6 321.079 52.824 322.391 54.424C323.735 56.024 325.527 56.824 327.767 56.824C330.935 56.824 333.031 55.432 334.055 52.648H339.959C339.191 55.336 337.751 57.48 335.639 59.08C333.527 60.648 330.903 61.432 327.767 61.432C325.239 61.432 322.999 60.872 321.047 59.752C319.095 58.6 317.559 57 316.439 54.952C315.351 52.872 314.807 50.472 314.807 47.752ZM355.877 47.8L368.069 61H360.677L350.885 49.624V61H345.413V25.48H350.885V46.12L360.485 34.552H368.069L355.877 47.8Z" fill="white"/>
</svg>
