<svg width="397" height="71" viewBox="0 0 397 71" fill="none" xmlns="http://www.w3.org/2000/svg">
<path d="M126.398 20.5L116.608 59H108.358L101.428 32.985H101.318L94.3878 59H86.1378L76.3478 20.5H83.8278L90.3178 46.9H90.4278L97.4678 20.5H105.278L112.318 46.79H112.428L118.918 20.5H126.398ZM140.146 42.5V52.4H155.491V59H132.446V20.5H155.491V27.1H140.146V35.9H152.191V42.5H140.146ZM189.856 36.285L185.071 39.035V39.145L189.856 41.895V55.315L183.476 59H162.631V20.5H183.476L189.856 24.185V36.285ZM170.331 42.39V52.4H182.156V42.39H170.331ZM170.331 27.1V35.79H182.156V27.1H170.331Z" fill="#282828"/>
<path d="M219.833 47.725H227.533V55.59L221.153 59.275H205.588L199.208 55.59V23.91L205.588 20.225H221.153L227.533 23.91V31.775H219.833V26.825H206.908V52.675H219.833V47.725ZM244.023 42.5V59H236.323V20.5H244.023V35.9H259.148V20.5H266.848V59H259.148V42.5H244.023ZM283.876 42.5V52.4H299.221V59H276.176V20.5H299.221V27.1H283.876V35.9H295.921V42.5H283.876ZM326.987 47.725H334.687V55.59L328.307 59.275H312.742L306.362 55.59V23.91L312.742 20.225H328.307L334.687 23.91V31.775H326.987V26.825H314.062V52.675H326.987V47.725ZM343.476 59V20.5H351.176V37.825H351.286L365.641 20.5H374.771L359.591 38.54L376.476 59H367.236L354.971 44.04L351.176 48.495V59H343.476Z" fill="#05C46B"/>
<rect width="17.2306" height="47.0571" transform="matrix(-0.769735 0.636212 0.68043 0.734757 14.303 14.9434)" fill="#05C46B"/>
<rect width="21.8498" height="16.896" transform="matrix(-0.769735 0.636212 0.68043 0.734757 53.1176 21.9855)" fill="#00FF88"/>
</svg>
