<svg width="185" height="34" viewBox="0 0 185 34" fill="none" xmlns="http://www.w3.org/2000/svg">
<path d="M55.4407 8.20006L51.1687 25.0001H47.5687L44.5447 13.6481H44.4967L41.4727 25.0001H37.8727L33.6007 8.20006H36.8647L39.6967 19.7201H39.7447L42.8167 8.20006H46.2247L49.2967 19.6721H49.3447L52.1767 8.20006H55.4407ZM61.4398 17.8001V22.1201H68.1358V25.0001H58.0798V8.20006H68.1358V11.0801H61.4398V14.9201H66.6958V17.8001H61.4398ZM83.1317 15.0881L81.0437 16.2881V16.3361L83.1317 17.5361V23.3921L80.3477 25.0001H71.2517V8.20006H80.3477L83.1317 9.80806V15.0881ZM74.6117 17.7521V22.1201H79.7717V17.7521H74.6117ZM74.6117 11.0801V14.8721H79.7717V11.0801H74.6117Z" fill="#282828"/>
<path d="M96.2126 20.0801H99.5726V23.5121L96.7886 25.1201H89.9966L87.2126 23.5121V9.68806L89.9966 8.08006H96.7886L99.5726 9.68806V13.1201H96.2126V10.9601H90.5726V22.2401H96.2126V20.0801ZM106.768 17.8001V25.0001H103.408V8.20006H106.768V14.9201H113.368V8.20006H116.728V25.0001H113.368V17.8001H106.768ZM124.159 17.8001V22.1201H130.855V25.0001H120.799V8.20006H130.855V11.0801H124.159V14.9201H129.415V17.8001H124.159ZM142.97 20.0801H146.33V23.5121L143.546 25.1201H136.754L133.97 23.5121V9.68806L136.754 8.08006H143.546L146.33 9.68806V13.1201H142.97V10.9601H137.33V22.2401H142.97V20.0801ZM150.166 25.0001V8.20006H153.526V15.7601H153.574L159.838 8.20006H163.822L157.198 16.0721L164.566 25.0001H160.534L155.182 18.4721L153.526 20.4161V25.0001H150.166Z" fill="#008272"/>
<rect width="6.99124" height="19.7019" transform="matrix(-0.741587 0.670857 0.645872 0.763445 6.52875 6.00586)" fill="#008272"/>
<rect width="8.86545" height="7.07402" transform="matrix(-0.741587 0.670857 0.645872 0.763445 21.8353 9.1781)" fill="#00B39D"/>
</svg>
