<svg width="364" height="265" viewBox="0 0 364 265" fill="none" xmlns="http://www.w3.org/2000/svg">
<ellipse cx="209.5" cy="128" rx="100.5" ry="101" fill="#05C46B"/>
<g filter="url(#filter0_d)">
<rect x="41.0342" y="12" width="263.833" height="62.2147" rx="2" fill="white"/>
</g>
<ellipse cx="74.4867" cy="43.1073" rx="25.8783" ry="25.0079" fill="#05C46B"/>
<rect width="7.76074" height="28.0152" transform="matrix(-0.726274 -0.682295 -0.743249 0.67439 94.8434 39.4227)" fill="white"/>
<rect width="7.64051" height="24.1445" transform="matrix(0.743249 -0.67439 -0.726274 -0.682295 74.021 58.3159)" fill="white"/>
<rect x="109.202" y="26.6387" width="166.631" height="12.199" rx="6.09948" fill="#E3E3E3"/>
<rect x="109.202" y="44.9371" width="117.399" height="12.199" rx="6.09948" fill="#E3E3E3"/>
<g filter="url(#filter1_d)">
<rect x="12" y="97.3927" width="263.833" height="62.2147" rx="2" fill="white"/>
</g>
<ellipse cx="45.4525" cy="128.5" rx="25.8783" ry="25.0079" fill="#05C46B"/>
<rect width="7.76074" height="28.0152" transform="matrix(-0.726274 -0.682295 -0.743249 0.67439 65.8091 124.815)" fill="white"/>
<rect width="7.64051" height="24.1445" transform="matrix(0.743249 -0.67439 -0.726274 -0.682295 44.9868 143.709)" fill="white"/>
<rect x="80.1672" y="112.031" width="104.776" height="12.199" rx="6.09948" fill="#E3E3E3"/>
<rect x="80.1672" y="130.33" width="166.631" height="12.199" rx="6.09948" fill="#E3E3E3"/>
<g filter="url(#filter2_d)">
<rect x="80.1672" y="182.785" width="263.833" height="62.2147" rx="2" fill="white"/>
</g>
<ellipse cx="113.62" cy="213.893" rx="25.8783" ry="25.0079" fill="#FF0000"/>
<rect width="8.73364" height="34.0399" transform="matrix(0.748403 -0.663244 0.688361 0.725369 98.6361 204.443)" fill="white"/>
<rect width="8.70788" height="34.1406" transform="matrix(-0.688361 -0.725369 0.748403 -0.663244 103.842 228.373)" fill="white"/>
<rect x="148.335" y="197.424" width="146.433" height="12.199" rx="6.09948" fill="#E3E3E3"/>
<rect x="148.335" y="215.722" width="166.631" height="12.199" rx="6.09948" fill="#E3E3E3"/>
<defs>
<filter id="filter0_d" x="29.0342" y="0" width="295.833" height="94.2147" filterUnits="userSpaceOnUse" color-interpolation-filters="sRGB">
<feFlood flood-opacity="0" result="BackgroundImageFix"/>
<feColorMatrix in="SourceAlpha" type="matrix" values="0 0 0 0 0 0 0 0 0 0 0 0 0 0 0 0 0 0 127 0"/>
<feMorphology radius="1" operator="dilate" in="SourceAlpha" result="effect1_dropShadow"/>
<feOffset dx="4" dy="4"/>
<feGaussianBlur stdDeviation="7.5"/>
<feColorMatrix type="matrix" values="0 0 0 0 0 0 0 0 0 0 0 0 0 0 0 0 0 0 0.15 0"/>
<feBlend mode="normal" in2="BackgroundImageFix" result="effect1_dropShadow"/>
<feBlend mode="normal" in="SourceGraphic" in2="effect1_dropShadow" result="shape"/>
</filter>
<filter id="filter1_d" x="0" y="85.3927" width="295.833" height="94.2147" filterUnits="userSpaceOnUse" color-interpolation-filters="sRGB">
<feFlood flood-opacity="0" result="BackgroundImageFix"/>
<feColorMatrix in="SourceAlpha" type="matrix" values="0 0 0 0 0 0 0 0 0 0 0 0 0 0 0 0 0 0 127 0"/>
<feMorphology radius="1" operator="dilate" in="SourceAlpha" result="effect1_dropShadow"/>
<feOffset dx="4" dy="4"/>
<feGaussianBlur stdDeviation="7.5"/>
<feColorMatrix type="matrix" values="0 0 0 0 0 0 0 0 0 0 0 0 0 0 0 0 0 0 0.15 0"/>
<feBlend mode="normal" in2="BackgroundImageFix" result="effect1_dropShadow"/>
<feBlend mode="normal" in="SourceGraphic" in2="effect1_dropShadow" result="shape"/>
</filter>
<filter id="filter2_d" x="68.1672" y="170.785" width="295.833" height="94.2147" filterUnits="userSpaceOnUse" color-interpolation-filters="sRGB">
<feFlood flood-opacity="0" result="BackgroundImageFix"/>
<feColorMatrix in="SourceAlpha" type="matrix" values="0 0 0 0 0 0 0 0 0 0 0 0 0 0 0 0 0 0 127 0"/>
<feMorphology radius="1" operator="dilate" in="SourceAlpha" result="effect1_dropShadow"/>
<feOffset dx="4" dy="4"/>
<feGaussianBlur stdDeviation="7.5"/>
<feColorMatrix type="matrix" values="0 0 0 0 0 0 0 0 0 0 0 0 0 0 0 0 0 0 0.15 0"/>
<feBlend mode="normal" in2="BackgroundImageFix" result="effect1_dropShadow"/>
<feBlend mode="normal" in="SourceGraphic" in2="effect1_dropShadow" result="shape"/>
</filter>
</defs>
</svg>
