<svg width="728" height="456" viewBox="0 0 728 456" fill="none" xmlns="http://www.w3.org/2000/svg">
<g filter="url(#filter0_d)">
<rect width="326" height="74" transform="matrix(0.866025 0.5 -0.866025 0.5 74.0859 118)" fill="#E3E3E3"/>
</g>
<g filter="url(#filter1_d)">
<ellipse rx="27.5" ry="26.5" transform="matrix(0.866025 0.5 -0.866025 0.5 74.952 156)" fill="#CA0000"/>
<rect width="6" height="28" transform="matrix(1.22347 -0.0322364 0.0558349 0.706372 70.248 146.216)" fill="white"/>
<rect width="28" height="6" transform="matrix(-1.22347 0.0322364 0.0558349 0.706372 92.1648 153.438)" fill="white"/>
</g>
<g filter="url(#filter2_d)">
<rect width="155" height="13" rx="2" transform="matrix(0.866025 0.5 -0.866025 0.5 121.717 167.5)" fill="white"/>
</g>
<g filter="url(#filter3_d)">
<rect width="155" height="5" rx="2" transform="matrix(0.866025 0.5 -0.866025 0.5 105.263 177)" fill="white"/>
</g>
<g filter="url(#filter4_d)">
<rect width="155" height="5" rx="2" transform="matrix(0.866025 0.5 -0.866025 0.5 97.4686 181.5)" fill="white"/>
</g>
<g filter="url(#filter5_d)">
<rect width="326" height="74" transform="matrix(0.866025 -0.5 2.20305e-08 1 377.998 279)" fill="#FCFCFC"/>
<rect x="0.0433013" y="0.025" width="325.9" height="73.9" transform="matrix(0.866025 -0.5 2.20305e-08 1 378.004 279.022)" stroke="#767676" stroke-width="0.1"/>
</g>
<g filter="url(#filter6_d)">
<ellipse rx="27.5" ry="26.5" transform="matrix(0.866025 -0.5 2.20305e-08 1 409.608 298.25)" fill="#008272"/>
<rect width="6.0069" height="19.514" transform="matrix(0.583818 -1.07568 0.639653 0.304831 395.318 307.981)" fill="white"/>
<rect width="27.5658" height="7.02865" transform="matrix(-0.583818 1.07568 0.639653 0.304831 419.795 281.868)" fill="white"/>
</g>
<rect width="155" height="13" rx="2" transform="matrix(0.866025 -0.5 2.20305e-08 1 444.682 261.5)" fill="#DADADA"/>
<rect width="155" height="5" rx="2" transform="matrix(0.866025 -0.5 2.20305e-08 1 444.682 280.5)" fill="#DADADA"/>
<rect width="155" height="5" rx="2" transform="matrix(0.866025 -0.5 2.20305e-08 1 444.682 289.5)" fill="#DADADA"/>
<g filter="url(#filter7_d)">
<rect width="326" height="74" transform="matrix(0.866025 -0.5 2.20305e-08 1 377.998 368)" fill="#FCFCFC"/>
<rect x="0.0433013" y="0.025" width="325.9" height="73.9" transform="matrix(0.866025 -0.5 2.20305e-08 1 378.004 368.022)" stroke="#767676" stroke-width="0.1"/>
</g>
<g filter="url(#filter8_d)">
<ellipse rx="27.5" ry="26.5" transform="matrix(0.866025 -0.5 2.20305e-08 1 409.608 387.25)" fill="#008272"/>
<rect width="6.0069" height="19.514" transform="matrix(0.583818 -1.07568 0.639653 0.304831 395.318 396.981)" fill="white"/>
<rect width="27.5658" height="7.02865" transform="matrix(-0.583818 1.07568 0.639653 0.304831 419.795 370.868)" fill="white"/>
</g>
<rect width="155" height="13" rx="2" transform="matrix(0.866025 -0.5 2.20305e-08 1 444.682 350.5)" fill="#DADADA"/>
<rect width="155" height="5" rx="2" transform="matrix(0.866025 -0.5 2.20305e-08 1 444.682 369.5)" fill="#DADADA"/>
<rect width="155" height="5" rx="2" transform="matrix(0.866025 -0.5 2.20305e-08 1 444.682 378.5)" fill="#DADADA"/>
<g filter="url(#filter9_d)">
<rect width="326" height="74" transform="matrix(0.866025 -0.5 2.20305e-08 1 377.998 189)" fill="#FCFCFC"/>
<rect x="0.0433013" y="0.025" width="325.9" height="73.9" transform="matrix(0.866025 -0.5 2.20305e-08 1 378.004 189.022)" stroke="#767676" stroke-width="0.1"/>
</g>
<g filter="url(#filter10_d)">
<ellipse rx="27.5" ry="26.5" transform="matrix(0.866025 -0.5 2.20305e-08 1 409.608 208.25)" fill="#008272"/>
<rect width="6.0069" height="19.514" transform="matrix(0.583818 -1.07568 0.639653 0.304831 395.318 217.981)" fill="white"/>
<rect width="27.5658" height="7.02865" transform="matrix(-0.583818 1.07568 0.639653 0.304831 419.795 191.868)" fill="white"/>
</g>
<rect width="155" height="13" rx="2" transform="matrix(0.866025 -0.5 2.20305e-08 1 444.682 171.5)" fill="#DADADA"/>
<rect width="155" height="5" rx="2" transform="matrix(0.866025 -0.5 2.20305e-08 1 444.682 190.5)" fill="#DADADA"/>
<rect width="155" height="5" rx="2" transform="matrix(0.866025 -0.5 2.20305e-08 1 444.682 199.5)" fill="#DADADA"/>
<g filter="url(#filter11_d)">
<rect width="326" height="74" transform="matrix(0.866025 0.5 -2.20305e-08 1 79.9979 26)" fill="#FCFCFC"/>
<rect x="0.0433013" y="0.075" width="325.9" height="73.9" transform="matrix(0.866025 0.5 -2.20305e-08 1 80.0037 25.9783)" stroke="#767676" stroke-width="0.1"/>
</g>
<g filter="url(#filter12_d)">
<ellipse rx="27.5" ry="26.5" transform="matrix(0.866025 0.5 -2.20305e-08 1 110.742 82.25)" fill="#008272"/>
<rect width="6.0069" height="19.514" transform="matrix(0.583818 -0.40154 0.639653 1.04344 96.4524 75.4814)" fill="white"/>
<rect width="27.5658" height="7.02865" transform="matrix(-0.583818 0.40154 0.639653 1.04344 120.929 77.6317)" fill="white"/>
</g>
<rect width="155" height="13" rx="2" transform="matrix(0.866025 0.5 -2.20305e-08 1 145.816 86)" fill="#DDDDDD"/>
<rect width="155" height="5" rx="2" transform="matrix(0.866025 0.5 -2.20305e-08 1 145.816 105)" fill="#DDDDDD"/>
<rect width="155" height="5" rx="2" transform="matrix(0.866025 0.5 -2.20305e-08 1 145.816 114)" fill="#DDDDDD"/>
<path d="M309.237 257.462C311.145 256.134 315.551 259.829 319.078 265.714C322.606 271.6 323.919 277.448 322.012 278.776C320.104 280.104 315.698 276.409 312.17 270.524C308.642 264.638 307.329 258.791 309.237 257.462Z" fill="#2F2E41"/>
<path d="M287.152 281.119C272.159 281.119 260.005 270.156 260.005 256.632C260.005 243.108 272.159 232.145 287.152 232.145C302.145 232.145 314.299 243.108 314.299 256.632C314.299 270.156 302.145 281.119 287.152 281.119Z" fill="#2F2E41"/>
<path d="M282.928 289.166L274.681 289.145L274.723 275.817L282.97 275.838L282.928 289.166Z" fill="#2F2E41"/>
<path d="M299.422 289.209L291.175 289.188L291.216 275.86L299.463 275.881L299.422 289.209Z" fill="#2F2E41"/>
<path d="M281.545 291.643C277.749 291.634 274.676 290.585 274.68 289.301C274.684 288.017 277.764 286.984 281.559 286.994C285.355 287.004 288.429 288.052 288.425 289.336C288.421 290.62 285.341 291.653 281.545 291.643Z" fill="#2F2E41"/>
<path d="M298.04 291.375C294.245 291.365 291.171 290.317 291.175 289.033C291.179 287.749 294.259 286.716 298.055 286.726C301.85 286.735 304.924 287.784 304.92 289.068C304.916 290.352 301.836 291.385 298.04 291.375Z" fill="#2F2E41"/>
<path d="M287.859 258.804C282.734 258.804 278.58 255.057 278.58 250.435C278.58 245.813 282.734 242.066 287.859 242.066C292.983 242.066 297.137 245.813 297.137 250.435C297.137 255.057 292.983 258.804 287.859 258.804Z" fill="white"/>
<path d="M287.858 253.224C286.15 253.224 284.766 251.975 284.766 250.435C284.766 248.894 286.15 247.645 287.858 247.645C289.567 247.645 290.951 248.894 290.951 250.435C290.951 251.975 289.567 253.224 287.858 253.224Z" fill="#3F3D56"/>
<path d="M260.889 233.794C258.725 224.933 265.76 216.004 276.602 213.849C287.444 211.694 297.988 217.13 300.152 225.99C302.317 234.85 295.126 238.098 284.284 240.253C273.441 242.408 263.054 242.654 260.889 233.794Z" fill="#CA0000"/>
<path d="M263.375 270.558C259 276.481 254.127 280.129 252.49 278.707C250.854 277.285 253.074 271.332 257.449 265.409C261.824 259.487 266.697 255.838 268.333 257.26C269.97 258.682 267.75 264.636 263.375 270.558Z" fill="#2F2E41"/>
<path d="M302.933 269.73C302.946 267.334 296.13 262.568 288.539 262.531C280.948 262.493 273.793 269.206 273.78 271.602C273.767 273.999 280.901 271.172 288.492 271.209C296.083 271.246 302.92 272.127 302.933 269.73Z" fill="white"/>
<path d="M326.482 240.041C321.374 239.412 320.92 239.259 320.941 244.685" stroke="#CA0000"/>
<path d="M320.349 232.321C319.557 237.183 319.986 237.965 314.152 236.29" stroke="#CA0000"/>
<path d="M318.72 244.413C319.463 239.447 319.629 239.007 314.064 238.923" stroke="#CA0000"/>
<path d="M326.95 238.377C321.978 237.512 321.168 237.915 322.998 232.26" stroke="#CA0000"/>
<path d="M141.809 55.6509C140.304 54.6019 136.826 57.5198 134.042 62.1682C131.257 66.8165 130.221 71.4352 131.726 72.4842C133.232 73.5332 136.71 70.6153 139.494 65.9669C142.279 61.3186 143.315 56.6999 141.809 55.6509Z" fill="#2F2E41"/>
<path d="M159.241 74.3347C171.075 74.3347 180.668 65.6761 180.668 54.9952C180.668 44.3143 171.075 35.6557 159.241 35.6557C147.407 35.6557 137.814 44.3143 137.814 54.9952C137.814 65.6761 147.407 74.3347 159.241 74.3347Z" fill="#2F2E41"/>
<path d="M158.5 82L164.5 82L164.5 77.5L169.052 70.1473L162.542 70.1638L158.5 77.5L158.5 82Z" fill="#2F2E41"/>
<path d="M144.5 82.5L150.5 82.5L150.5 76.5L156.033 70.1813L149.524 70.1977L144.5 76.5L144.5 82.5Z" fill="#2F2E41"/>
<path d="M159.436 84.6858C162.432 84.6782 164.858 83.85 164.855 82.836C164.852 81.822 162.42 81.0061 159.425 81.0137C156.429 81.0213 154.003 81.8495 154.006 82.8635C154.009 83.8775 156.44 84.6933 159.436 84.6858Z" fill="#2F2E41"/>
<path d="M145.436 84.6858C148.432 84.6782 150.858 83.85 150.855 82.836C150.852 81.822 148.42 81.0061 145.425 81.0137C142.429 81.0213 140.003 81.8495 140.006 82.8635C140.009 83.8775 142.44 84.6933 145.436 84.6858Z" fill="#2F2E41"/>
<path d="M158.684 56.7102C162.728 56.7102 166.007 53.751 166.007 50.1005C166.007 46.4501 162.728 43.4908 158.684 43.4908C154.639 43.4908 151.36 46.4501 151.36 50.1005C151.36 53.751 154.639 56.7102 158.684 56.7102Z" fill="white"/>
<path d="M158.683 52.3038C160.032 52.3038 161.125 51.3174 161.125 50.1005C161.125 48.8837 160.032 47.8973 158.683 47.8973C157.335 47.8973 156.242 48.8837 156.242 50.1005C156.242 51.3174 157.335 52.3038 158.683 52.3038Z" fill="#3F3D56"/>
<path d="M179.97 36.9576C181.679 29.9598 176.126 22.9072 167.568 21.2052C159.011 19.5032 150.688 23.7963 148.98 30.7941C147.272 37.7919 152.948 40.3568 161.505 42.0588C170.063 43.7608 178.262 43.9554 179.97 36.9576Z" fill="#008272"/>
<path d="M178.008 65.994C181.462 70.6715 185.308 73.5531 186.6 72.4301C187.891 71.3071 186.139 66.6048 182.686 61.9272C179.233 57.2497 175.386 54.3681 174.095 55.4911C172.803 56.6141 174.555 61.3164 178.008 65.994Z" fill="#2F2E41"/>
<path d="M169.694 61.3977C169.79 63.2881 164.588 67.2926 158.604 67.5941C152.619 67.8956 146.737 62.8563 146.641 60.9659C146.545 59.0755 152.27 61.0499 158.255 60.7484C164.239 60.4469 169.598 59.5073 169.694 61.3977Z" fill="white"/>
<g filter="url(#filter13_d)">
<path d="M339.607 375.432C336.588 383.013 340.767 402.605 351.744 395.584C362.717 388.566 351.033 381.102 339.607 375.432Z" fill="#008272" fill-opacity="0.46" stroke="#008272" stroke-opacity="0.46"/>
<path d="M352.217 394.374L356.602 399.743" stroke="#008272" stroke-opacity="0.46"/>
<path d="M352.217 394.374C348.758 390.242 341.533 380.948 340.302 376.828" stroke="white" stroke-width="0.2"/>
<path d="M348.099 389.5C350.499 387.1 351.099 384.833 351.099 384" stroke="white" stroke-width="0.2"/>
<path d="M347.674 389.247C344.807 391.097 342.809 391.096 342.168 390.865" stroke="white" stroke-width="0.2"/>
<path d="M346.599 387C348.099 386.5 349.499 383.3 349.099 382.5" stroke="white" stroke-width="0.2"/>
<path d="M346.099 387C345.099 388 341.807 388.653 341.111 388.146" stroke="white" stroke-width="0.2"/>
<path d="M345.099 385C346.099 384.5 347.099 382.4 347.099 382" stroke="white" stroke-width="0.2"/>
<path d="M344.598 384.5C343.598 385.5 341.451 385.573 341.099 385.5" stroke="white" stroke-width="0.2"/>
<path d="M350.099 391.5C352.599 389 353.248 386.363 353.051 386" stroke="white" stroke-width="0.2"/>
<path d="M349.099 391C347.099 393.243 343.377 393.526 343.111 393.243" stroke="white" stroke-width="0.2"/>
<path d="M343.599 383C344.099 382.666 345.099 381.8 345.099 381" stroke="white" stroke-width="0.2"/>
<path d="M343.134 382.369C342.749 382.673 341.303 383.147 340.599 383" stroke="white" stroke-width="0.2"/>
</g>
<g filter="url(#filter14_d)">
<path d="M347.971 278.697C346.389 283.423 349.158 295.868 355.307 291.648C361.454 287.43 354.622 282.495 347.971 278.697Z" fill="#008272" fill-opacity="0.88" stroke="#008272" stroke-opacity="0.78"/>
<path d="M355.555 290.894L358.168 294.366" stroke="#008272" stroke-opacity="0.78"/>
<path d="M355.555 290.894C353.495 288.219 349.18 282.215 348.396 279.591" stroke="white" stroke-width="0.2"/>
<path d="M353.103 287.738C354.431 286.27 354.731 284.851 354.715 284.325" stroke="white" stroke-width="0.2"/>
<path d="M352.855 287.57C351.249 288.683 350.105 288.644 349.734 288.486" stroke="white" stroke-width="0.2"/>
<path d="M352.196 286.131C353.045 285.845 353.785 283.852 353.541 283.34" stroke="white" stroke-width="0.2"/>
<path d="M351.91 286.122C351.357 286.734 349.485 287.083 349.077 286.749" stroke="white" stroke-width="0.2"/>
<path d="M351.299 284.84C351.862 284.544 352.394 283.238 352.386 282.985" stroke="white" stroke-width="0.2"/>
<path d="M351.003 284.515C350.45 285.127 349.221 285.132 349.019 285.079" stroke="white" stroke-width="0.2"/>
<path d="M354.287 289.039C355.67 287.509 355.991 285.858 355.871 285.624" stroke="white" stroke-width="0.2"/>
<path d="M353.704 288.704C352.602 290.081 350.478 290.189 350.32 290.005" stroke="white" stroke-width="0.2"/>
<path d="M350.402 283.549C350.682 283.349 351.238 282.821 351.222 282.316" stroke="white" stroke-width="0.2"/>
<path d="M350.124 283.142C349.909 283.327 349.09 283.598 348.684 283.492" stroke="white" stroke-width="0.2"/>
</g>
<g filter="url(#filter15_d)">
<path d="M235.372 167.121C243.483 168.009 261.252 158.759 251.559 150.051C241.87 141.346 237.791 154.596 235.372 167.121Z" fill="#008272" fill-opacity="0.5" stroke="#008272" stroke-opacity="0.5"/>
<path d="M250.267 149.917L254.273 144.26" stroke="#008272" stroke-opacity="0.5"/>
<path d="M250.267 149.918C247.207 154.353 240.175 163.794 236.532 166.079" stroke="white" stroke-width="0.2"/>
<path d="M246.667 155.186C243.714 153.513 241.369 153.539 240.566 153.761" stroke="white" stroke-width="0.2"/>
<path d="M246.536 155.663C249.084 157.933 249.616 159.859 249.563 160.538" stroke="white" stroke-width="0.2"/>
<path d="M244.657 157.299C243.775 155.986 240.318 155.49 239.653 156.089" stroke="white" stroke-width="0.2"/>
<path d="M244.79 157.781C246.021 158.478 247.528 161.475 247.225 162.282" stroke="white" stroke-width="0.2"/>
<path d="M243.129 159.277C242.381 158.447 240.09 158.043 239.705 158.15" stroke="white" stroke-width="0.2"/>
<path d="M242.781 159.893C244.011 160.59 244.655 162.641 244.677 162.999" stroke="white" stroke-width="0.2"/>
<path d="M248.061 152.726C244.985 150.983 242.271 151.059 241.973 151.346" stroke="white" stroke-width="0.2"/>
<path d="M247.846 153.823C250.541 155.152 251.806 158.663 251.604 158.995" stroke="white" stroke-width="0.2"/>
<path d="M241.601 161.256C241.147 160.863 240.045 160.131 239.274 160.344" stroke="white" stroke-width="0.2"/>
<path d="M241.117 161.873C241.514 162.163 242.356 163.43 242.401 164.148" stroke="white" stroke-width="0.2"/>
</g>
<g filter="url(#filter16_d)">
<path d="M167.607 319.432C164.588 327.013 168.767 346.605 179.744 339.584C190.717 332.566 179.033 325.102 167.607 319.432Z" fill="#008272" stroke="#008272"/>
<path d="M180.217 338.374L184.602 343.743" stroke="#008272"/>
<path d="M180.217 338.374C176.758 334.242 169.533 324.948 168.302 320.828" stroke="white" stroke-width="0.2"/>
<path d="M176.099 333.5C178.499 331.1 179.099 328.833 179.099 328" stroke="white" stroke-width="0.2"/>
<path d="M175.674 333.247C172.807 335.097 170.809 335.097 170.168 334.865" stroke="white" stroke-width="0.2"/>
<path d="M174.599 331C176.099 330.5 177.499 327.3 177.099 326.5" stroke="white" stroke-width="0.2"/>
<path d="M174.099 331C173.099 332 169.807 332.653 169.111 332.146" stroke="white" stroke-width="0.2"/>
<path d="M173.099 329C174.099 328.5 175.099 326.4 175.099 326" stroke="white" stroke-width="0.2"/>
<path d="M172.598 328.5C171.598 329.5 169.451 329.573 169.099 329.5" stroke="white" stroke-width="0.2"/>
<path d="M178.099 335.5C180.599 333 181.248 330.363 181.051 330" stroke="white" stroke-width="0.2"/>
<path d="M177.099 335C175.099 337.243 171.377 337.526 171.111 337.243" stroke="white" stroke-width="0.2"/>
<path d="M171.599 327C172.099 326.666 173.099 325.8 173.099 325" stroke="white" stroke-width="0.2"/>
<path d="M171.134 326.369C170.749 326.673 169.303 327.147 168.599 327" stroke="white" stroke-width="0.2"/>
</g>
<g filter="url(#filter17_d)">
<path d="M310.764 424.261C309.39 428.311 311.754 438.961 317.063 435.336C322.37 431.712 316.49 427.5 310.764 424.261Z" fill="#008272" stroke="#008272"/>
<path d="M317.278 434.69L319.524 437.658" stroke="#008272"/>
<path d="M317.278 434.69C315.507 432.404 311.799 427.271 311.128 425.025" stroke="white" stroke-width="0.2"/>
<path d="M315.17 431.992C316.318 430.732 316.579 429.517 316.566 429.067" stroke="white" stroke-width="0.2"/>
<path d="M314.957 431.849C313.57 432.805 312.584 432.774 312.265 432.639" stroke="white" stroke-width="0.2"/>
<path d="M314.392 430.618C315.124 430.371 315.766 428.664 315.556 428.225" stroke="white" stroke-width="0.2"/>
<path d="M314.145 430.611C313.667 431.136 312.053 431.438 311.701 431.154" stroke="white" stroke-width="0.2"/>
<path d="M313.621 429.515C314.107 429.26 314.568 428.14 314.562 427.924" stroke="white" stroke-width="0.2"/>
<path d="M313.366 429.237C312.888 429.762 311.829 429.769 311.654 429.723" stroke="white" stroke-width="0.2"/>
<path d="M316.188 433.104C317.383 431.791 317.663 430.377 317.561 430.177" stroke="white" stroke-width="0.2"/>
<path d="M315.687 432.818C314.734 434 312.902 434.096 312.767 433.938" stroke="white" stroke-width="0.2"/>
<path d="M312.85 428.411C313.091 428.239 313.572 427.786 313.559 427.353" stroke="white" stroke-width="0.2"/>
<path d="M312.611 428.063C312.425 428.222 311.719 428.455 311.369 428.365" stroke="white" stroke-width="0.2"/>
</g>
<g filter="url(#filter18_d)">
<path d="M324.696 335.358C319.061 334.052 305.387 338.867 311.214 345.669C317.039 352.468 321.498 343.735 324.696 335.358Z" fill="#008272" fill-opacity="0.78" stroke="#008272" stroke-opacity="0.78"/>
<path d="M312.113 345.871L308.606 349.406" stroke="#008272" stroke-opacity="0.78"/>
<path d="M312.113 345.871C314.805 343.094 320.902 337.225 323.752 335.972" stroke="white" stroke-width="0.2"/>
<path d="M315.286 342.569C317.178 343.969 318.84 344.153 319.435 344.069" stroke="white" stroke-width="0.2"/>
<path d="M315.435 342.253C313.901 340.478 313.753 339.112 313.871 338.651" stroke="white" stroke-width="0.2"/>
<path d="M316.959 341.293C317.428 342.269 319.816 342.906 320.357 342.552" stroke="white" stroke-width="0.2"/>
<path d="M316.922 340.952C316.134 340.368 315.423 338.184 315.733 337.657" stroke="white" stroke-width="0.2"/>
<path d="M318.275 340.068C318.706 340.702 320.28 341.175 320.565 341.135" stroke="white" stroke-width="0.2"/>
<path d="M318.595 339.676C317.807 339.093 317.595 337.632 317.621 337.384" stroke="white" stroke-width="0.2"/>
<path d="M314.007 344.136C315.977 345.595 317.907 345.775 318.152 345.604" stroke="white" stroke-width="0.2"/>
<path d="M314.29 343.402C312.54 342.259 312.061 339.744 312.244 339.534" stroke="white" stroke-width="0.2"/>
<path d="M319.591 338.843C319.866 339.151 320.559 339.748 321.13 339.668" stroke="white" stroke-width="0.2"/>
<path d="M320.007 338.462C319.761 338.229 319.315 337.288 319.368 336.792" stroke="white" stroke-width="0.2"/>
</g>
<g filter="url(#filter19_d)">
<path d="M571.209 117.297C579.093 115.193 592.315 100.144 580.128 95.5293C567.947 90.9168 568.936 104.746 571.209 117.297Z" fill="#008272" fill-opacity="0.46" stroke="#008272" stroke-opacity="0.46"/>
<path d="M578.875 95.8724L580.565 89.1494" stroke="#008272" stroke-opacity="0.46"/>
<path d="M578.876 95.8726C577.626 101.114 574.484 112.459 571.914 115.907" stroke="white" stroke-width="0.2"/>
<path d="M577.424 102.087C574.066 101.594 571.889 102.466 571.221 102.964" stroke="white" stroke-width="0.2"/>
<path d="M577.475 102.578C580.671 103.773 581.863 105.377 582.06 106.029" stroke="white" stroke-width="0.2"/>
<path d="M576.314 104.783C575.017 103.878 571.614 104.665 571.212 105.464" stroke="white" stroke-width="0.2"/>
<path d="M576.613 105.184C578.012 105.389 580.501 107.639 580.51 108.5" stroke="white" stroke-width="0.2"/>
<path d="M575.605 107.18C574.607 106.676 572.325 107.128 572.005 107.367" stroke="white" stroke-width="0.2"/>
<path d="M575.503 107.88C576.902 108.085 578.244 109.764 578.394 110.09" stroke="white" stroke-width="0.2"/>
<path d="M577.834 99.2882C574.336 98.7752 571.834 99.8281 571.659 100.203" stroke="white" stroke-width="0.2"/>
<path d="M578.03 100.389C581.024 100.654 583.473 103.47 583.404 103.853" stroke="white" stroke-width="0.2"/>
<path d="M574.896 109.577C574.33 109.375 573.038 109.091 572.396 109.568" stroke="white" stroke-width="0.2"/>
<path d="M574.668 110.327C575.142 110.454 576.386 111.331 576.688 111.984" stroke="white" stroke-width="0.2"/>
</g>
<g filter="url(#filter20_d)">
<path d="M488.613 168.342C493.349 166.79 501.679 157.138 494.622 154.725C487.568 152.312 487.689 160.739 488.613 168.342Z" fill="#008272" fill-opacity="0.88" stroke="#008272" stroke-opacity="0.78"/>
<path d="M493.869 154.977L495.095 150.807" stroke="#008272" stroke-opacity="0.78"/>
<path d="M493.87 154.977C492.954 158.225 490.713 165.272 489.076 167.468" stroke="white" stroke-width="0.2"/>
<path d="M492.802 158.827C490.831 158.639 489.514 159.245 489.101 159.572" stroke="white" stroke-width="0.2"/>
<path d="M492.815 159.126C494.667 159.75 495.318 160.691 495.413 161.083" stroke="white" stroke-width="0.2"/>
<path d="M492.054 160.514C491.317 160.004 489.277 160.6 489.012 161.102" stroke="white" stroke-width="0.2"/>
<path d="M492.218 160.749C493.039 160.828 494.436 162.121 494.413 162.647" stroke="white" stroke-width="0.2"/>
<path d="M491.554 162.004C490.98 161.73 489.615 162.083 489.417 162.24" stroke="white" stroke-width="0.2"/>
<path d="M491.47 162.436C492.291 162.515 493.029 163.497 493.107 163.691" stroke="white" stroke-width="0.2"/>
<path d="M493.139 157.101C491.086 156.905 489.569 157.633 489.453 157.868" stroke="white" stroke-width="0.2"/>
<path d="M493.218 157.768C494.98 157.83 496.335 159.47 496.282 159.707" stroke="white" stroke-width="0.2"/>
<path d="M491.054 163.495C490.726 163.39 489.971 163.26 489.575 163.573" stroke="white" stroke-width="0.2"/>
<path d="M490.894 163.961C491.17 164.023 491.877 164.518 492.033 164.907" stroke="white" stroke-width="0.2"/>
</g>
<g filter="url(#filter21_d)">
<path d="M466.331 325.286C462.202 318.248 444.172 309.516 442.973 322.492C441.775 335.462 454.84 330.823 466.331 325.286Z" fill="#008272" fill-opacity="0.5" stroke="#008272" stroke-opacity="0.5"/>
<path d="M443.638 323.608L436.708 323.772" stroke="#008272" stroke-opacity="0.5"/>
<path d="M443.638 323.608C449.023 323.415 460.795 323.419 464.803 324.977" stroke="white" stroke-width="0.2"/>
<path d="M450.014 323.35C450.435 326.718 451.855 328.584 452.513 329.095" stroke="white" stroke-width="0.2"/>
<path d="M450.474 323.17C450.774 319.771 452.002 318.195 452.578 317.831" stroke="white" stroke-width="0.2"/>
<path d="M452.908 323.701C452.382 325.192 454.048 328.262 454.925 328.438" stroke="white" stroke-width="0.2"/>
<path d="M453.215 323.307C453.04 321.903 454.545 318.904 455.373 318.666" stroke="white" stroke-width="0.2"/>
<path d="M455.408 323.746C455.189 324.842 456.232 326.921 456.548 327.166" stroke="white" stroke-width="0.2"/>
<path d="M456.11 323.658C455.935 322.255 457.195 320.514 457.47 320.281" stroke="white" stroke-width="0.2"/>
<path d="M447.208 323.701C447.646 327.209 449.328 329.341 449.736 329.408" stroke="white" stroke-width="0.2"/>
<path d="M448.216 323.218C447.674 320.262 449.735 317.151 450.122 317.116" stroke="white" stroke-width="0.2"/>
<path d="M457.908 323.79C457.864 324.389 457.934 325.71 458.565 326.202" stroke="white" stroke-width="0.2"/>
<path d="M458.691 323.81C458.687 323.319 459.201 321.887 459.75 321.422" stroke="white" stroke-width="0.2"/>
</g>
<g filter="url(#filter22_d)">
<path d="M628.976 288.712C636.86 286.608 650.081 271.558 637.895 266.944C625.714 262.331 626.702 276.16 628.976 288.712Z" fill="#008272" stroke="#008272"/>
<path d="M636.642 267.287L638.332 260.564" stroke="#008272"/>
<path d="M636.642 267.287C635.393 272.529 632.251 283.874 629.68 287.322" stroke="white" stroke-width="0.2"/>
<path d="M635.191 273.501C631.833 273.009 629.656 273.881 628.988 274.378" stroke="white" stroke-width="0.2"/>
<path d="M635.242 273.993C638.438 275.188 639.63 276.791 639.827 277.443" stroke="white" stroke-width="0.2"/>
<path d="M634.081 276.197C632.784 275.292 629.381 276.08 628.978 276.878" stroke="white" stroke-width="0.2"/>
<path d="M634.38 276.598C635.779 276.804 638.268 279.053 638.277 279.915" stroke="white" stroke-width="0.2"/>
<path d="M633.372 278.595C632.374 278.091 630.092 278.543 629.771 278.781" stroke="white" stroke-width="0.2"/>
<path d="M633.27 279.294C634.669 279.499 636.01 281.178 636.161 281.505" stroke="white" stroke-width="0.2"/>
<path d="M635.601 270.703C632.103 270.19 629.6 271.243 629.426 271.618" stroke="white" stroke-width="0.2"/>
<path d="M635.797 271.804C638.791 272.069 641.24 274.885 641.171 275.267" stroke="white" stroke-width="0.2"/>
<path d="M632.663 280.992C632.097 280.79 630.805 280.505 630.163 280.983" stroke="white" stroke-width="0.2"/>
<path d="M632.435 281.742C632.909 281.869 634.152 282.746 634.454 283.399" stroke="white" stroke-width="0.2"/>
</g>
<g filter="url(#filter23_d)">
<path d="M627.6 111.283C631.669 109.967 638.802 101.712 632.724 99.6173C626.648 97.5232 626.78 104.756 627.6 111.283Z" fill="#008272" stroke="#008272"/>
<path d="M632.077 99.831L633.117 96.2566" stroke="#008272"/>
<path d="M632.077 99.8311C631.3 102.616 629.397 108.656 627.996 110.534" stroke="white" stroke-width="0.2"/>
<path d="M631.172 103.132C629.476 102.964 628.345 103.48 627.991 103.759" stroke="white" stroke-width="0.2"/>
<path d="M631.184 103.389C632.779 103.93 633.343 104.74 633.425 105.077" stroke="white" stroke-width="0.2"/>
<path d="M630.534 104.577C629.899 104.137 628.146 104.641 627.919 105.071" stroke="white" stroke-width="0.2"/>
<path d="M630.675 104.779C631.382 104.85 632.589 105.964 632.57 106.416" stroke="white" stroke-width="0.2"/>
<path d="M630.109 105.854C629.615 105.617 628.441 105.915 628.272 106.049" stroke="white" stroke-width="0.2"/>
<path d="M630.038 106.224C630.745 106.295 631.382 107.14 631.45 107.307" stroke="white" stroke-width="0.2"/>
<path d="M631.456 101.652C629.689 101.477 628.387 102.097 628.288 102.298" stroke="white" stroke-width="0.2"/>
<path d="M631.526 102.224C633.042 102.283 634.213 103.696 634.168 103.898" stroke="white" stroke-width="0.2"/>
<path d="M629.684 107.132C629.401 107.041 628.751 106.926 628.412 107.194" stroke="white" stroke-width="0.2"/>
<path d="M629.548 107.531C629.786 107.585 630.395 108.012 630.531 108.347" stroke="white" stroke-width="0.2"/>
</g>
<g filter="url(#filter24_d)">
<path d="M547.963 153.185C550.28 158.485 562.307 166.579 564.284 157.844C566.261 149.112 556.593 150.749 547.963 153.185Z" fill="#008272" fill-opacity="0.78" stroke="#008272" stroke-opacity="0.78"/>
<path d="M563.91 157.002L568.839 157.705" stroke="#008272" stroke-opacity="0.78"/>
<path d="M563.91 157.002C560.074 156.501 551.726 155.113 549.02 153.576" stroke="white" stroke-width="0.2"/>
<path d="M559.366 156.428C559.36 154.075 558.515 152.632 558.093 152.204" stroke="white" stroke-width="0.2"/>
<path d="M559.024 156.497C558.516 158.788 557.508 159.722 557.068 159.902" stroke="white" stroke-width="0.2"/>
<path d="M557.344 155.848C557.847 154.89 556.932 152.594 556.325 152.37" stroke="white" stroke-width="0.2"/>
<path d="M557.092 156.082C557.094 157.062 555.767 158.937 555.159 159.002" stroke="white" stroke-width="0.2"/>
<path d="M555.575 155.524C555.826 154.799 555.267 153.255 555.064 153.049" stroke="white" stroke-width="0.2"/>
<path d="M555.07 155.501C555.072 156.482 554.027 157.524 553.812 157.651" stroke="white" stroke-width="0.2"/>
<path d="M561.387 156.519C561.381 154.067 560.373 152.411 560.09 152.317" stroke="white" stroke-width="0.2"/>
<path d="M560.629 156.73C560.757 158.816 559.025 160.702 558.748 160.681" stroke="white" stroke-width="0.2"/>
<path d="M553.806 155.199C553.89 154.795 553.955 153.882 553.55 153.472" stroke="white" stroke-width="0.2"/>
<path d="M553.253 155.093C553.213 155.43 552.724 156.349 552.294 156.603" stroke="white" stroke-width="0.2"/>
</g>
<defs>
<filter id="filter0_d" x="0" y="112" width="366.41" height="220" filterUnits="userSpaceOnUse" color-interpolation-filters="sRGB">
<feFlood flood-opacity="0" result="BackgroundImageFix"/>
<feColorMatrix in="SourceAlpha" type="matrix" values="0 0 0 0 0 0 0 0 0 0 0 0 0 0 0 0 0 0 127 0"/>
<feOffset dy="4"/>
<feGaussianBlur stdDeviation="5"/>
<feColorMatrix type="matrix" values="0 0 0 0 0 0 0 0 0 0 0 0 0 0 0 0 0 0 0.25 0"/>
<feBlend mode="normal" in2="BackgroundImageFix" result="effect1_dropShadow"/>
<feBlend mode="normal" in="SourceGraphic" in2="effect1_dropShadow" result="shape"/>
</filter>
<filter id="filter1_d" x="31.8782" y="130.905" width="86.1476" height="58.1904" filterUnits="userSpaceOnUse" color-interpolation-filters="sRGB">
<feFlood flood-opacity="0" result="BackgroundImageFix"/>
<feColorMatrix in="SourceAlpha" type="matrix" values="0 0 0 0 0 0 0 0 0 0 0 0 0 0 0 0 0 0 127 0"/>
<feOffset dy="4"/>
<feGaussianBlur stdDeviation="5"/>
<feColorMatrix type="matrix" values="0 0 0 0 0.791667 0 0 0 0 0 0 0 0 0 0 0 0 0 0.3 0"/>
<feBlend mode="normal" in2="BackgroundImageFix" result="effect1_dropShadow"/>
<feBlend mode="normal" in="SourceGraphic" in2="effect1_dropShadow" result="shape"/>
</filter>
<filter id="filter2_d" x="101.474" y="162.086" width="163.463" height="102.828" filterUnits="userSpaceOnUse" color-interpolation-filters="sRGB">
<feFlood flood-opacity="0" result="BackgroundImageFix"/>
<feColorMatrix in="SourceAlpha" type="matrix" values="0 0 0 0 0 0 0 0 0 0 0 0 0 0 0 0 0 0 127 0"/>
<feOffset dy="4"/>
<feGaussianBlur stdDeviation="5"/>
<feColorMatrix type="matrix" values="0 0 0 0 0 0 0 0 0 0 0 0 0 0 0 0 0 0 0.05 0"/>
<feBlend mode="normal" in2="BackgroundImageFix" result="effect1_dropShadow"/>
<feBlend mode="normal" in="SourceGraphic" in2="effect1_dropShadow" result="shape"/>
</filter>
<filter id="filter3_d" x="91.9473" y="171.586" width="156.535" height="98.8284" filterUnits="userSpaceOnUse" color-interpolation-filters="sRGB">
<feFlood flood-opacity="0" result="BackgroundImageFix"/>
<feColorMatrix in="SourceAlpha" type="matrix" values="0 0 0 0 0 0 0 0 0 0 0 0 0 0 0 0 0 0 127 0"/>
<feOffset dy="4"/>
<feGaussianBlur stdDeviation="5"/>
<feColorMatrix type="matrix" values="0 0 0 0 0 0 0 0 0 0 0 0 0 0 0 0 0 0 0.05 0"/>
<feBlend mode="normal" in2="BackgroundImageFix" result="effect1_dropShadow"/>
<feBlend mode="normal" in="SourceGraphic" in2="effect1_dropShadow" result="shape"/>
</filter>
<filter id="filter4_d" x="84.1531" y="176.086" width="156.535" height="98.8284" filterUnits="userSpaceOnUse" color-interpolation-filters="sRGB">
<feFlood flood-opacity="0" result="BackgroundImageFix"/>
<feColorMatrix in="SourceAlpha" type="matrix" values="0 0 0 0 0 0 0 0 0 0 0 0 0 0 0 0 0 0 127 0"/>
<feOffset dy="4"/>
<feGaussianBlur stdDeviation="5"/>
<feColorMatrix type="matrix" values="0 0 0 0 0 0 0 0 0 0 0 0 0 0 0 0 0 0 0.05 0"/>
<feBlend mode="normal" in2="BackgroundImageFix" result="effect1_dropShadow"/>
<feBlend mode="normal" in="SourceGraphic" in2="effect1_dropShadow" result="shape"/>
</filter>
<filter id="filter5_d" x="367.998" y="110" width="302.324" height="257" filterUnits="userSpaceOnUse" color-interpolation-filters="sRGB">
<feFlood flood-opacity="0" result="BackgroundImageFix"/>
<feColorMatrix in="SourceAlpha" type="matrix" values="0 0 0 0 0 0 0 0 0 0 0 0 0 0 0 0 0 0 127 0"/>
<feOffset dy="4"/>
<feGaussianBlur stdDeviation="5"/>
<feColorMatrix type="matrix" values="0 0 0 0 0 0 0 0 0 0 0 0 0 0 0 0 0 0 0.25 0"/>
<feBlend mode="normal" in2="BackgroundImageFix" result="effect1_dropShadow"/>
<feBlend mode="normal" in="SourceGraphic" in2="effect1_dropShadow" result="shape"/>
</filter>
<filter id="filter6_d" x="375.792" y="262.389" width="67.6314" height="79.7221" filterUnits="userSpaceOnUse" color-interpolation-filters="sRGB">
<feFlood flood-opacity="0" result="BackgroundImageFix"/>
<feColorMatrix in="SourceAlpha" type="matrix" values="0 0 0 0 0 0 0 0 0 0 0 0 0 0 0 0 0 0 127 0"/>
<feOffset dy="4"/>
<feGaussianBlur stdDeviation="5"/>
<feColorMatrix type="matrix" values="0 0 0 0 0 0 0 0 0 0.509804 0 0 0 0 0.447059 0 0 0 0.3 0"/>
<feBlend mode="normal" in2="BackgroundImageFix" result="effect1_dropShadow"/>
<feBlend mode="normal" in="SourceGraphic" in2="effect1_dropShadow" result="shape"/>
</filter>
<filter id="filter7_d" x="367.998" y="199" width="302.324" height="257" filterUnits="userSpaceOnUse" color-interpolation-filters="sRGB">
<feFlood flood-opacity="0" result="BackgroundImageFix"/>
<feColorMatrix in="SourceAlpha" type="matrix" values="0 0 0 0 0 0 0 0 0 0 0 0 0 0 0 0 0 0 127 0"/>
<feOffset dy="4"/>
<feGaussianBlur stdDeviation="5"/>
<feColorMatrix type="matrix" values="0 0 0 0 0 0 0 0 0 0 0 0 0 0 0 0 0 0 0.25 0"/>
<feBlend mode="normal" in2="BackgroundImageFix" result="effect1_dropShadow"/>
<feBlend mode="normal" in="SourceGraphic" in2="effect1_dropShadow" result="shape"/>
</filter>
<filter id="filter8_d" x="375.792" y="351.389" width="67.6314" height="79.7221" filterUnits="userSpaceOnUse" color-interpolation-filters="sRGB">
<feFlood flood-opacity="0" result="BackgroundImageFix"/>
<feColorMatrix in="SourceAlpha" type="matrix" values="0 0 0 0 0 0 0 0 0 0 0 0 0 0 0 0 0 0 127 0"/>
<feOffset dy="4"/>
<feGaussianBlur stdDeviation="5"/>
<feColorMatrix type="matrix" values="0 0 0 0 0 0 0 0 0 0.509804 0 0 0 0 0.447059 0 0 0 0.3 0"/>
<feBlend mode="normal" in2="BackgroundImageFix" result="effect1_dropShadow"/>
<feBlend mode="normal" in="SourceGraphic" in2="effect1_dropShadow" result="shape"/>
</filter>
<filter id="filter9_d" x="367.998" y="20" width="302.324" height="257" filterUnits="userSpaceOnUse" color-interpolation-filters="sRGB">
<feFlood flood-opacity="0" result="BackgroundImageFix"/>
<feColorMatrix in="SourceAlpha" type="matrix" values="0 0 0 0 0 0 0 0 0 0 0 0 0 0 0 0 0 0 127 0"/>
<feOffset dy="4"/>
<feGaussianBlur stdDeviation="5"/>
<feColorMatrix type="matrix" values="0 0 0 0 0 0 0 0 0 0 0 0 0 0 0 0 0 0 0.25 0"/>
<feBlend mode="normal" in2="BackgroundImageFix" result="effect1_dropShadow"/>
<feBlend mode="normal" in="SourceGraphic" in2="effect1_dropShadow" result="shape"/>
</filter>
<filter id="filter10_d" x="375.792" y="172.389" width="67.6314" height="79.7221" filterUnits="userSpaceOnUse" color-interpolation-filters="sRGB">
<feFlood flood-opacity="0" result="BackgroundImageFix"/>
<feColorMatrix in="SourceAlpha" type="matrix" values="0 0 0 0 0 0 0 0 0 0 0 0 0 0 0 0 0 0 127 0"/>
<feOffset dy="4"/>
<feGaussianBlur stdDeviation="5"/>
<feColorMatrix type="matrix" values="0 0 0 0 0 0 0 0 0 0.509804 0 0 0 0 0.447059 0 0 0 0.3 0"/>
<feBlend mode="normal" in2="BackgroundImageFix" result="effect1_dropShadow"/>
<feBlend mode="normal" in="SourceGraphic" in2="effect1_dropShadow" result="shape"/>
</filter>
<filter id="filter11_d" x="69.9979" y="20" width="302.324" height="257" filterUnits="userSpaceOnUse" color-interpolation-filters="sRGB">
<feFlood flood-opacity="0" result="BackgroundImageFix"/>
<feColorMatrix in="SourceAlpha" type="matrix" values="0 0 0 0 0 0 0 0 0 0 0 0 0 0 0 0 0 0 127 0"/>
<feOffset dy="4"/>
<feGaussianBlur stdDeviation="5"/>
<feColorMatrix type="matrix" values="0 0 0 0 0 0 0 0 0 0 0 0 0 0 0 0 0 0 0.25 0"/>
<feBlend mode="normal" in2="BackgroundImageFix" result="effect1_dropShadow"/>
<feBlend mode="normal" in="SourceGraphic" in2="effect1_dropShadow" result="shape"/>
</filter>
<filter id="filter12_d" x="76.9261" y="46.389" width="67.6314" height="79.7221" filterUnits="userSpaceOnUse" color-interpolation-filters="sRGB">
<feFlood flood-opacity="0" result="BackgroundImageFix"/>
<feColorMatrix in="SourceAlpha" type="matrix" values="0 0 0 0 0 0 0 0 0 0 0 0 0 0 0 0 0 0 127 0"/>
<feOffset dy="4"/>
<feGaussianBlur stdDeviation="5"/>
<feColorMatrix type="matrix" values="0 0 0 0 0 0 0 0 0 0.509804 0 0 0 0 0.447059 0 0 0 0.3 0"/>
<feBlend mode="normal" in2="BackgroundImageFix" result="effect1_dropShadow"/>
<feBlend mode="normal" in="SourceGraphic" in2="effect1_dropShadow" result="shape"/>
</filter>
<filter id="filter13_d" x="330.31" y="370.151" width="33.0537" height="39.6706" filterUnits="userSpaceOnUse" color-interpolation-filters="sRGB">
<feFlood flood-opacity="0" result="BackgroundImageFix"/>
<feColorMatrix in="SourceAlpha" type="matrix" values="0 0 0 0 0 0 0 0 0 0 0 0 0 0 0 0 0 0 127 0"/>
<feOffset dy="4"/>
<feGaussianBlur stdDeviation="2.5"/>
<feColorMatrix type="matrix" values="0 0 0 0 0 0 0 0 0 0 0 0 0 0 0 0 0 0 0.15 0"/>
<feBlend mode="normal" in2="BackgroundImageFix" result="effect1_dropShadow"/>
<feBlend mode="normal" in="SourceGraphic" in2="effect1_dropShadow" result="shape"/>
</filter>
<filter id="filter14_d" x="340.223" y="274.855" width="24.1144" height="29.2441" filterUnits="userSpaceOnUse" color-interpolation-filters="sRGB">
<feFlood flood-opacity="0" result="BackgroundImageFix"/>
<feColorMatrix in="SourceAlpha" type="matrix" values="0 0 0 0 0 0 0 0 0 0 0 0 0 0 0 0 0 0 127 0"/>
<feOffset dy="4"/>
<feGaussianBlur stdDeviation="2.5"/>
<feColorMatrix type="matrix" values="0 0 0 0 0 0 0 0 0 0 0 0 0 0 0 0 0 0 0.15 0"/>
<feBlend mode="normal" in2="BackgroundImageFix" result="effect1_dropShadow"/>
<feBlend mode="normal" in="SourceGraphic" in2="effect1_dropShadow" result="shape"/>
</filter>
<filter id="filter15_d" x="223.111" y="142.767" width="39.6131" height="37.3575" filterUnits="userSpaceOnUse" color-interpolation-filters="sRGB">
<feFlood flood-opacity="0" result="BackgroundImageFix"/>
<feColorMatrix in="SourceAlpha" type="matrix" values="0 0 0 0 0 0 0 0 0 0 0 0 0 0 0 0 0 0 127 0"/>
<feOffset dy="4"/>
<feGaussianBlur stdDeviation="2.5"/>
<feColorMatrix type="matrix" values="0 0 0 0 0 0 0 0 0 0 0 0 0 0 0 0 0 0 0.15 0"/>
<feBlend mode="normal" in2="BackgroundImageFix" result="effect1_dropShadow"/>
<feBlend mode="normal" in="SourceGraphic" in2="effect1_dropShadow" result="shape"/>
</filter>
<filter id="filter16_d" x="158.31" y="314.151" width="33.0537" height="39.6706" filterUnits="userSpaceOnUse" color-interpolation-filters="sRGB">
<feFlood flood-opacity="0" result="BackgroundImageFix"/>
<feColorMatrix in="SourceAlpha" type="matrix" values="0 0 0 0 0 0 0 0 0 0 0 0 0 0 0 0 0 0 127 0"/>
<feOffset dy="4"/>
<feGaussianBlur stdDeviation="2.5"/>
<feColorMatrix type="matrix" values="0 0 0 0 0 0 0 0 0 0 0 0 0 0 0 0 0 0 0.15 0"/>
<feBlend mode="normal" in2="BackgroundImageFix" result="effect1_dropShadow"/>
<feBlend mode="normal" in="SourceGraphic" in2="effect1_dropShadow" result="shape"/>
</filter>
<filter id="filter17_d" x="303.297" y="420.69" width="22.3271" height="26.6427" filterUnits="userSpaceOnUse" color-interpolation-filters="sRGB">
<feFlood flood-opacity="0" result="BackgroundImageFix"/>
<feColorMatrix in="SourceAlpha" type="matrix" values="0 0 0 0 0 0 0 0 0 0 0 0 0 0 0 0 0 0 127 0"/>
<feOffset dy="4"/>
<feGaussianBlur stdDeviation="2.5"/>
<feColorMatrix type="matrix" values="0 0 0 0 0 0 0 0 0 0 0 0 0 0 0 0 0 0 0.15 0"/>
<feBlend mode="normal" in2="BackgroundImageFix" result="effect1_dropShadow"/>
<feBlend mode="normal" in="SourceGraphic" in2="effect1_dropShadow" result="shape"/>
</filter>
<filter id="filter18_d" x="302.517" y="331.236" width="31.3788" height="28.0568" filterUnits="userSpaceOnUse" color-interpolation-filters="sRGB">
<feFlood flood-opacity="0" result="BackgroundImageFix"/>
<feColorMatrix in="SourceAlpha" type="matrix" values="0 0 0 0 0 0 0 0 0 0 0 0 0 0 0 0 0 0 127 0"/>
<feOffset dy="4"/>
<feGaussianBlur stdDeviation="2.5"/>
<feColorMatrix type="matrix" values="0 0 0 0 0 0 0 0 0 0 0 0 0 0 0 0 0 0 0.15 0"/>
<feBlend mode="normal" in2="BackgroundImageFix" result="effect1_dropShadow"/>
<feBlend mode="normal" in="SourceGraphic" in2="effect1_dropShadow" result="shape"/>
</filter>
<filter id="filter19_d" x="555.753" y="87.7194" width="38.0469" height="41.717" filterUnits="userSpaceOnUse" color-interpolation-filters="sRGB">
<feFlood flood-opacity="0" result="BackgroundImageFix"/>
<feColorMatrix in="SourceAlpha" type="matrix" values="0 0 0 0 0 0 0 0 0 0 0 0 0 0 0 0 0 0 127 0"/>
<feOffset dy="4"/>
<feGaussianBlur stdDeviation="2.5"/>
<feColorMatrix type="matrix" values="0 0 0 0 0 0 0 0 0 0 0 0 0 0 0 0 0 0 0.15 0"/>
<feBlend mode="normal" in2="BackgroundImageFix" result="effect1_dropShadow"/>
<feBlend mode="normal" in="SourceGraphic" in2="effect1_dropShadow" result="shape"/>
</filter>
<filter id="filter20_d" x="477.293" y="149.387" width="27.5658" height="30.1593" filterUnits="userSpaceOnUse" color-interpolation-filters="sRGB">
<feFlood flood-opacity="0" result="BackgroundImageFix"/>
<feColorMatrix in="SourceAlpha" type="matrix" values="0 0 0 0 0 0 0 0 0 0 0 0 0 0 0 0 0 0 127 0"/>
<feOffset dy="4"/>
<feGaussianBlur stdDeviation="2.5"/>
<feColorMatrix type="matrix" values="0 0 0 0 0 0 0 0 0 0 0 0 0 0 0 0 0 0 0.15 0"/>
<feBlend mode="normal" in2="BackgroundImageFix" result="effect1_dropShadow"/>
<feBlend mode="normal" in="SourceGraphic" in2="effect1_dropShadow" result="shape"/>
</filter>
<filter id="filter21_d" x="431.361" y="311.718" width="42.2014" height="34.4783" filterUnits="userSpaceOnUse" color-interpolation-filters="sRGB">
<feFlood flood-opacity="0" result="BackgroundImageFix"/>
<feColorMatrix in="SourceAlpha" type="matrix" values="0 0 0 0 0 0 0 0 0 0 0 0 0 0 0 0 0 0 127 0"/>
<feOffset dy="4"/>
<feGaussianBlur stdDeviation="2.5"/>
<feColorMatrix type="matrix" values="0 0 0 0 0 0 0 0 0 0 0 0 0 0 0 0 0 0 0.15 0"/>
<feBlend mode="normal" in2="BackgroundImageFix" result="effect1_dropShadow"/>
<feBlend mode="normal" in="SourceGraphic" in2="effect1_dropShadow" result="shape"/>
</filter>
<filter id="filter22_d" x="613.52" y="259.134" width="38.0469" height="41.717" filterUnits="userSpaceOnUse" color-interpolation-filters="sRGB">
<feFlood flood-opacity="0" result="BackgroundImageFix"/>
<feColorMatrix in="SourceAlpha" type="matrix" values="0 0 0 0 0 0 0 0 0 0 0 0 0 0 0 0 0 0 127 0"/>
<feOffset dy="4"/>
<feGaussianBlur stdDeviation="2.5"/>
<feColorMatrix type="matrix" values="0 0 0 0 0 0 0 0 0 0 0 0 0 0 0 0 0 0 0.15 0"/>
<feBlend mode="normal" in2="BackgroundImageFix" result="effect1_dropShadow"/>
<feBlend mode="normal" in="SourceGraphic" in2="effect1_dropShadow" result="shape"/>
</filter>
<filter id="filter23_d" x="617.031" y="94.8364" width="25.3047" height="27.4728" filterUnits="userSpaceOnUse" color-interpolation-filters="sRGB">
<feFlood flood-opacity="0" result="BackgroundImageFix"/>
<feColorMatrix in="SourceAlpha" type="matrix" values="0 0 0 0 0 0 0 0 0 0 0 0 0 0 0 0 0 0 127 0"/>
<feOffset dy="4"/>
<feGaussianBlur stdDeviation="2.5"/>
<feColorMatrix type="matrix" values="0 0 0 0 0 0 0 0 0 0 0 0 0 0 0 0 0 0 0.15 0"/>
<feBlend mode="normal" in2="BackgroundImageFix" result="effect1_dropShadow"/>
<feBlend mode="normal" in="SourceGraphic" in2="effect1_dropShadow" result="shape"/>
</filter>
<filter id="filter24_d" x="540.784" y="144.24" width="33.4438" height="29.1658" filterUnits="userSpaceOnUse" color-interpolation-filters="sRGB">
<feFlood flood-opacity="0" result="BackgroundImageFix"/>
<feColorMatrix in="SourceAlpha" type="matrix" values="0 0 0 0 0 0 0 0 0 0 0 0 0 0 0 0 0 0 127 0"/>
<feOffset dy="4"/>
<feGaussianBlur stdDeviation="2.5"/>
<feColorMatrix type="matrix" values="0 0 0 0 0 0 0 0 0 0 0 0 0 0 0 0 0 0 0.15 0"/>
<feBlend mode="normal" in2="BackgroundImageFix" result="effect1_dropShadow"/>
<feBlend mode="normal" in="SourceGraphic" in2="effect1_dropShadow" result="shape"/>
</filter>
</defs>
</svg>
