<svg width="350" height="273" viewBox="0 0 350 273" fill="none" xmlns="http://www.w3.org/2000/svg">
<circle cx="175.5" cy="136.5" r="136.5" fill="#05C46B"/>
<g filter="url(#filter0_d)">
<rect x="15" y="40" width="320" height="191" fill="white"/>
</g>
<path d="M35.446 55.934V59H34.487V56.284H33.465V59H32.506V56.284H31.484V59H30.525V55.465H31.316L31.484 55.752L31.981 55.465H32.653L33.304 55.843L33.962 55.465H34.634L35.446 55.934ZM36.7658 60.4L37.4098 58.755L36.0728 55.5H37.0318L37.8928 57.558H37.9068L38.7188 55.5H39.6778L37.7108 60.4H36.7658ZM42.6452 54.1L44.3952 59H43.4292L43.0582 57.943H41.2242L40.8532 59H39.8872L41.6372 54.1H42.6452ZM42.1342 55.332L41.5182 57.103H42.7572L42.1482 55.332H42.1342ZM47.194 56.788H47.18L46.564 59H45.57L44.674 55.5H45.563L46.109 57.733H46.123L46.746 55.5H47.628L48.251 57.733H48.265L48.811 55.5H49.7L48.804 59H47.81L47.194 56.788ZM53.3021 58.181V59H51.2091L50.3971 58.531V55.934L51.2091 55.465H52.4901L53.3021 55.934V57.607H51.3561V58.181H53.3021ZM51.3561 56.284V56.886H52.3431V56.284H51.3561ZM57.1271 57.278V58.531L56.3151 59H54.3551V58.181H56.1681V57.642H55.1671L54.3551 57.173V55.969L55.1671 55.5H57.0571V56.319H55.3141V56.809H56.3151L57.1271 57.278ZM61.2914 58.566L60.4794 59.035H58.9884L58.1764 58.566V55.934L58.9884 55.465H60.4794L61.2914 55.934V58.566ZM59.1354 56.284V58.216H60.3324V56.284H59.1354ZM67.2605 55.934V59H66.3015V56.284H65.2795V59H64.3205V56.284H63.2985V59H62.3395V55.465H63.1305L63.2985 55.752L63.7955 55.465H64.4675L65.1185 55.843L65.7765 55.465H66.4485L67.2605 55.934ZM71.2122 58.181V59H69.1192L68.3072 58.531V55.934L69.1192 55.465H70.4002L71.2122 55.934V57.607H69.2662V58.181H71.2122ZM69.2662 56.284V56.886H70.2532V56.284H69.2662ZM78.2852 54.1L77.0392 59H75.9892L75.1072 55.689H75.0932L74.2112 59H73.1612L71.9152 54.1H72.8672L73.6932 57.46H73.7072L74.6032 54.1H75.5972L76.4932 57.446H76.5072L77.3332 54.1H78.2852ZM81.89 58.181V59H79.797L78.985 58.531V55.934L79.797 55.465H81.078L81.89 55.934V57.607H79.944V58.181H81.89ZM79.944 56.284V56.886H80.931V56.284H79.944ZM84.399 55.465H85.316L86.128 55.934V58.566L85.316 59.035H84.399L83.902 58.748L83.405 59.035H82.943V53.89H83.902V55.752L84.399 55.465ZM83.902 56.284V58.216H85.169V56.284H83.902ZM89.9533 57.278V58.531L89.1413 59H87.1813V58.181H88.9943V57.642H87.9933L87.1813 57.173V55.969L87.9933 55.5H89.8833V56.319H88.1403V56.809H89.1413L89.9533 57.278ZM91.9615 55.5V59H91.0025V55.5H91.9615ZM90.9675 54.849V53.89H91.9965V54.849H90.9675ZM92.7323 56.319V55.5H93.3763V54.912L94.3353 54.359V55.5H95.1053V56.319H94.3353V58.181H95.1053V59H94.1883L93.3763 58.531V56.319H92.7323ZM98.9183 58.181V59H96.8253L96.0133 58.531V55.934L96.8253 55.465H98.1063L98.9183 55.934V57.607H96.9723V58.181H98.9183ZM96.9723 56.284V56.886H97.9593V56.284H96.9723Z" fill="black" fill-opacity="0.78"/>
<path d="M272.341 60V55.1H273.041V59.37H274.854V60H272.341ZM276.16 58.565V59.426H277.567V58.565H276.16ZM276.293 60.035L275.481 59.566V58.425L276.293 57.956H277.567V57.109H275.831V56.5H277.434L278.246 56.969V60.035H278.064L277.567 59.748L277.07 60.035H276.293ZM281.999 58.39V59.531L281.187 60H279.367V59.391H281.32V58.53H280.179L279.367 58.061V56.969L280.179 56.5H281.929V57.109H280.046V57.921H281.187L281.999 58.39ZM282.84 57.109V56.5H283.484V55.912L284.163 55.52V56.5H285.003V57.109H284.163V59.391H285.003V60H284.296L283.484 59.531V57.109H282.84ZM287.872 56.57V55.863L289.202 55.1H289.762V59.37H290.952V60H287.872V59.37H289.062V55.884L287.872 56.57ZM295.259 59.566L294.447 60.035H292.676L291.864 59.566V55.534L292.676 55.065H294.447L295.259 55.534V59.566ZM292.564 55.695V59.405H294.559V55.695H292.564ZM299.08 56.465H300.137L300.634 56.752V54.89H301.313V60.035H300.802L300.634 59.748L300.137 60.035H299.08L298.268 59.566V56.934L299.08 56.465ZM300.634 59.426V57.074H298.947V59.426H300.634ZM302.97 58.565V59.426H304.377V58.565H302.97ZM303.103 60.035L302.291 59.566V58.425L303.103 57.956H304.377V57.109H302.641V56.5H304.244L305.056 56.969V60.035H304.874L304.377 59.748L303.88 60.035H303.103ZM306.499 61.4L307.108 59.839L305.757 56.5H306.436L307.43 58.992H307.444L308.431 56.5H309.11L307.164 61.4H306.499ZM312.439 58.39V59.531L311.627 60H309.807V59.391H311.76V58.53H310.619L309.807 58.061V56.969L310.619 56.5H312.369V57.109H310.486V57.921H311.627L312.439 58.39Z" fill="black" fill-opacity="0.45"/>
<line x1="30" y1="214.5" x2="312" y2="214.5" stroke="black" stroke-opacity="0.35"/>
<rect x="69" y="213" width="1" height="3" fill="#C4C4C4"/>
<rect x="105" y="213" width="1" height="3" fill="#C4C4C4"/>
<rect x="137" y="213" width="1" height="3" fill="#C4C4C4"/>
<path d="M170 213H171V216H170V213Z" fill="#C4C4C4"/>
<rect x="201" y="213" width="1" height="3" fill="#C4C4C4"/>
<rect x="233" y="213" width="1" height="3" fill="#C4C4C4"/>
<rect x="262" y="213" width="1" height="3" fill="#C4C4C4"/>
<rect x="290" y="213" width="1" height="3" fill="#C4C4C4"/>
<line x1="30.5" y1="71" x2="30.5" y2="215" stroke="black" stroke-opacity="0.35"/>
<rect x="29" y="201" width="3" height="1" fill="#C4C4C4"/>
<rect x="29" y="189" width="3" height="1" fill="#C4C4C4"/>
<rect x="29" y="177" width="3" height="1" fill="#C4C4C4"/>
<rect x="29" y="165" width="3" height="1" fill="#C4C4C4"/>
<rect x="29" y="153" width="3" height="1" fill="#C4C4C4"/>
<rect x="29" y="141" width="3" height="1" fill="#C4C4C4"/>
<rect x="29" y="129" width="3" height="1" fill="#C4C4C4"/>
<rect x="29" y="117" width="3" height="1" fill="#C4C4C4"/>
<rect x="29" y="105" width="3" height="1" fill="#C4C4C4"/>
<rect x="29" y="93" width="3" height="1" fill="#C4C4C4"/>
<rect x="29" y="81" width="3" height="1" fill="#C4C4C4"/>
<rect x="171" y="71" width="0.5" height="144" fill="#D8D8D8"/>
<g filter="url(#filter1_d)">
<rect x="173" y="103" width="39" height="17" rx="1" fill="white"/>
<rect x="173.1" y="103.1" width="38.8" height="16.8" rx="0.9" stroke="#E2E2E2" stroke-width="0.2"/>
</g>
<path d="M178.068 110H177.795V108.194L177.249 108.395V108.148L178.025 107.857H178.068V110ZM180.259 110H178.862V109.805L179.6 108.985C179.709 108.861 179.785 108.76 179.826 108.683C179.868 108.605 179.889 108.524 179.889 108.441C179.889 108.33 179.855 108.239 179.788 108.167C179.72 108.096 179.63 108.061 179.518 108.061C179.383 108.061 179.278 108.099 179.203 108.176C179.129 108.252 179.092 108.359 179.092 108.496H178.821C178.821 108.299 178.884 108.141 179.01 108.02C179.137 107.898 179.306 107.838 179.518 107.838C179.716 107.838 179.873 107.89 179.988 107.995C180.104 108.098 180.161 108.236 180.161 108.409C180.161 108.619 180.027 108.869 179.76 109.159L179.188 109.779H180.259V110ZM180.628 110.183H180.396L181.286 107.867H181.518L180.628 110.183ZM183.12 109.09C183.12 109.408 183.066 109.644 182.958 109.798C182.849 109.952 182.68 110.029 182.449 110.029C182.222 110.029 182.053 109.954 181.944 109.804C181.834 109.652 181.778 109.427 181.774 109.127V108.765C181.774 108.452 181.828 108.219 181.937 108.066C182.045 107.914 182.215 107.838 182.446 107.838C182.676 107.838 182.845 107.912 182.953 108.059C183.062 108.206 183.117 108.432 183.12 108.739V109.09ZM182.849 108.72C182.849 108.49 182.817 108.323 182.752 108.219C182.688 108.113 182.586 108.061 182.446 108.061C182.308 108.061 182.207 108.113 182.143 108.217C182.08 108.322 182.047 108.482 182.045 108.699V109.133C182.045 109.363 182.078 109.534 182.145 109.644C182.212 109.753 182.313 109.808 182.449 109.808C182.583 109.808 182.682 109.756 182.747 109.653C182.812 109.549 182.846 109.386 182.849 109.164V108.72ZM184.531 107.866V108.096H184.481C184.27 108.1 184.102 108.162 183.977 108.283C183.852 108.404 183.78 108.575 183.76 108.794C183.873 108.666 184.026 108.601 184.22 108.601C184.406 108.601 184.554 108.667 184.664 108.797C184.775 108.928 184.831 109.097 184.831 109.304C184.831 109.524 184.771 109.7 184.651 109.832C184.532 109.963 184.372 110.029 184.17 110.029C183.966 110.029 183.801 109.951 183.674 109.795C183.547 109.638 183.483 109.436 183.483 109.188V109.084C183.483 108.692 183.567 108.392 183.734 108.185C183.902 107.977 184.151 107.871 184.482 107.866H184.531ZM184.175 108.827C184.082 108.827 183.997 108.854 183.918 108.91C183.84 108.966 183.786 109.036 183.756 109.12V109.219C183.756 109.395 183.795 109.537 183.875 109.644C183.954 109.751 184.052 109.805 184.17 109.805C184.292 109.805 184.388 109.76 184.458 109.67C184.528 109.581 184.563 109.463 184.563 109.317C184.563 109.171 184.527 109.053 184.456 108.963C184.386 108.872 184.292 108.827 184.175 108.827ZM185.234 110.183H185.001L185.892 107.867H186.123L185.234 110.183ZM187.786 110H186.388V109.805L187.126 108.985C187.236 108.861 187.311 108.76 187.352 108.683C187.394 108.605 187.415 108.524 187.415 108.441C187.415 108.33 187.381 108.239 187.314 108.167C187.247 108.096 187.157 108.061 187.044 108.061C186.91 108.061 186.805 108.099 186.729 108.176C186.655 108.252 186.618 108.359 186.618 108.496H186.347C186.347 108.299 186.41 108.141 186.536 108.02C186.663 107.898 186.833 107.838 187.044 107.838C187.243 107.838 187.399 107.89 187.515 107.995C187.63 108.098 187.688 108.236 187.688 108.409C187.688 108.619 187.554 108.869 187.286 109.159L186.715 109.779H187.786V110ZM189.41 109.09C189.41 109.408 189.356 109.644 189.248 109.798C189.139 109.952 188.97 110.029 188.739 110.029C188.512 110.029 188.343 109.954 188.234 109.804C188.125 109.652 188.068 109.427 188.064 109.127V108.765C188.064 108.452 188.118 108.219 188.227 108.066C188.335 107.914 188.505 107.838 188.736 107.838C188.966 107.838 189.135 107.912 189.243 108.059C189.352 108.206 189.407 108.432 189.41 108.739V109.09ZM189.139 108.72C189.139 108.49 189.107 108.323 189.042 108.219C188.978 108.113 188.876 108.061 188.736 108.061C188.598 108.061 188.497 108.113 188.433 108.217C188.37 108.322 188.337 108.482 188.335 108.699V109.133C188.335 109.363 188.368 109.534 188.435 109.644C188.502 109.753 188.604 109.808 188.739 109.808C188.873 109.808 188.972 109.756 189.037 109.653C189.102 109.549 189.136 109.386 189.139 109.164V108.72ZM191.155 110H189.757V109.805L190.496 108.985C190.605 108.861 190.68 108.76 190.721 108.683C190.763 108.605 190.784 108.524 190.784 108.441C190.784 108.33 190.75 108.239 190.683 108.167C190.616 108.096 190.526 108.061 190.414 108.061C190.279 108.061 190.174 108.099 190.099 108.176C190.024 108.252 189.987 108.359 189.987 108.496H189.716C189.716 108.299 189.779 108.141 189.905 108.02C190.032 107.898 190.202 107.838 190.414 107.838C190.612 107.838 190.769 107.89 190.884 107.995C190.999 108.098 191.057 108.236 191.057 108.409C191.057 108.619 190.923 108.869 190.655 109.159L190.084 109.779H191.155V110ZM192.333 110H192.06V108.194L191.514 108.395V108.148L192.29 107.857H192.333V110Z" fill="black" fill-opacity="0.83"/>
<path d="M177.876 114.049C177.635 113.98 177.459 113.895 177.349 113.794C177.239 113.693 177.185 113.568 177.185 113.419C177.185 113.251 177.251 113.113 177.385 113.003C177.52 112.893 177.695 112.838 177.91 112.838C178.056 112.838 178.187 112.866 178.301 112.923C178.416 112.979 178.505 113.058 178.567 113.157C178.631 113.257 178.663 113.366 178.663 113.484H178.38C178.38 113.355 178.339 113.254 178.257 113.181C178.175 113.106 178.059 113.069 177.91 113.069C177.771 113.069 177.663 113.1 177.584 113.162C177.507 113.222 177.469 113.307 177.469 113.415C177.469 113.502 177.505 113.576 177.579 113.636C177.653 113.696 177.778 113.75 177.955 113.8C178.133 113.85 178.271 113.905 178.371 113.966C178.472 114.025 178.546 114.095 178.594 114.175C178.643 114.255 178.667 114.35 178.667 114.458C178.667 114.631 178.6 114.77 178.465 114.874C178.33 114.978 178.15 115.029 177.924 115.029C177.778 115.029 177.641 115.001 177.514 114.946C177.387 114.889 177.289 114.812 177.22 114.714C177.151 114.617 177.117 114.506 177.117 114.382H177.4C177.4 114.511 177.447 114.613 177.542 114.688C177.638 114.762 177.765 114.799 177.924 114.799C178.073 114.799 178.187 114.769 178.266 114.708C178.345 114.648 178.384 114.565 178.384 114.461C178.384 114.356 178.348 114.276 178.274 114.219C178.201 114.162 178.068 114.105 177.876 114.049ZM179.622 114.808C179.719 114.808 179.803 114.779 179.875 114.72C179.948 114.662 179.988 114.588 179.996 114.5H180.252C180.247 114.591 180.216 114.678 180.158 114.76C180.101 114.842 180.023 114.907 179.927 114.956C179.831 115.005 179.729 115.029 179.622 115.029C179.406 115.029 179.234 114.958 179.106 114.814C178.979 114.669 178.916 114.472 178.916 114.222V114.177C178.916 114.022 178.944 113.885 179.001 113.765C179.058 113.645 179.139 113.552 179.244 113.485C179.351 113.419 179.476 113.386 179.621 113.386C179.798 113.386 179.946 113.439 180.063 113.545C180.181 113.652 180.244 113.79 180.252 113.96H179.996C179.988 113.857 179.949 113.773 179.878 113.708C179.809 113.642 179.723 113.608 179.621 113.608C179.483 113.608 179.376 113.658 179.3 113.758C179.225 113.856 179.187 114 179.187 114.187V114.238C179.187 114.421 179.225 114.562 179.3 114.66C179.375 114.759 179.482 114.808 179.622 114.808ZM181.535 115C181.52 114.969 181.507 114.913 181.497 114.833C181.371 114.964 181.221 115.029 181.046 115.029C180.89 115.029 180.761 114.985 180.661 114.897C180.561 114.809 180.511 114.696 180.511 114.561C180.511 114.396 180.574 114.268 180.699 114.177C180.825 114.085 181.001 114.039 181.229 114.039H181.493V113.915C181.493 113.82 181.464 113.745 181.408 113.689C181.351 113.632 181.268 113.604 181.157 113.604C181.061 113.604 180.979 113.628 180.914 113.677C180.849 113.726 180.816 113.785 180.816 113.854H180.543C180.543 113.775 180.571 113.699 180.627 113.626C180.684 113.552 180.76 113.493 180.855 113.45C180.952 113.407 181.058 113.386 181.173 113.386C181.356 113.386 181.499 113.432 181.603 113.523C181.706 113.614 181.76 113.74 181.764 113.9V114.629C181.764 114.775 181.782 114.891 181.819 114.977V115H181.535ZM181.085 114.793C181.17 114.793 181.251 114.771 181.327 114.728C181.403 114.684 181.458 114.626 181.493 114.556V114.231H181.28C180.948 114.231 180.782 114.328 180.782 114.522C180.782 114.607 180.811 114.674 180.867 114.722C180.924 114.77 180.997 114.793 181.085 114.793ZM182.483 115H182.212V112.75H182.483V115ZM183.576 115.029C183.361 115.029 183.186 114.959 183.051 114.818C182.917 114.677 182.849 114.488 182.849 114.251V114.202C182.849 114.044 182.879 113.904 182.938 113.781C182.999 113.657 183.083 113.561 183.19 113.491C183.299 113.421 183.416 113.386 183.542 113.386C183.748 113.386 183.908 113.454 184.022 113.589C184.137 113.725 184.194 113.919 184.194 114.172V114.285H183.12C183.124 114.441 183.169 114.568 183.256 114.665C183.344 114.76 183.456 114.808 183.59 114.808C183.686 114.808 183.767 114.789 183.833 114.75C183.9 114.71 183.958 114.659 184.008 114.594L184.173 114.723C184.041 114.927 183.841 115.029 183.576 115.029ZM183.542 113.608C183.433 113.608 183.341 113.648 183.267 113.729C183.192 113.808 183.146 113.919 183.129 114.062H183.923V114.042C183.915 113.904 183.878 113.798 183.812 113.723C183.745 113.646 183.655 113.608 183.542 113.608ZM185.432 114.58C185.432 114.506 185.404 114.45 185.348 114.41C185.293 114.369 185.197 114.333 185.06 114.304C184.923 114.275 184.814 114.24 184.733 114.199C184.653 114.158 184.593 114.109 184.554 114.052C184.516 113.996 184.497 113.928 184.497 113.85C184.497 113.72 184.552 113.61 184.661 113.521C184.771 113.431 184.912 113.386 185.083 113.386C185.263 113.386 185.408 113.432 185.52 113.525C185.632 113.618 185.688 113.736 185.688 113.881H185.416C185.416 113.807 185.384 113.743 185.32 113.689C185.258 113.635 185.179 113.608 185.083 113.608C184.984 113.608 184.907 113.63 184.852 113.673C184.796 113.716 184.768 113.772 184.768 113.841C184.768 113.907 184.794 113.956 184.846 113.989C184.897 114.022 184.991 114.054 185.125 114.084C185.261 114.115 185.371 114.151 185.455 114.193C185.539 114.235 185.601 114.286 185.641 114.345C185.682 114.404 185.703 114.476 185.703 114.561C185.703 114.702 185.646 114.816 185.533 114.902C185.419 114.987 185.272 115.029 185.092 115.029C184.965 115.029 184.853 115.007 184.755 114.962C184.657 114.917 184.581 114.854 184.525 114.774C184.47 114.693 184.443 114.606 184.443 114.512H184.714C184.719 114.603 184.755 114.675 184.822 114.729C184.891 114.782 184.98 114.808 185.092 114.808C185.194 114.808 185.276 114.788 185.338 114.747C185.4 114.705 185.432 114.649 185.432 114.58ZM186.047 114.858C186.047 114.811 186.061 114.772 186.088 114.741C186.116 114.709 186.158 114.694 186.214 114.694C186.27 114.694 186.312 114.709 186.34 114.741C186.369 114.772 186.384 114.811 186.384 114.858C186.384 114.903 186.369 114.94 186.34 114.971C186.312 115.001 186.27 115.016 186.214 115.016C186.158 115.016 186.116 115.001 186.088 114.971C186.061 114.94 186.047 114.903 186.047 114.858ZM186.048 113.564C186.048 113.518 186.062 113.479 186.089 113.447C186.118 113.416 186.16 113.4 186.215 113.4C186.271 113.4 186.313 113.416 186.341 113.447C186.371 113.479 186.385 113.518 186.385 113.564C186.385 113.609 186.371 113.647 186.341 113.677C186.313 113.708 186.271 113.723 186.215 113.723C186.16 113.723 186.118 113.708 186.089 113.677C186.062 113.647 186.048 113.609 186.048 113.564ZM188.896 115H187.499V114.805L188.237 113.985C188.346 113.861 188.421 113.76 188.462 113.683C188.504 113.605 188.525 113.524 188.525 113.441C188.525 113.33 188.492 113.239 188.424 113.167C188.357 113.096 188.267 113.061 188.155 113.061C188.02 113.061 187.915 113.099 187.84 113.176C187.766 113.252 187.729 113.359 187.729 113.496H187.458C187.458 113.299 187.521 113.141 187.646 113.02C187.773 112.898 187.943 112.838 188.155 112.838C188.353 112.838 188.51 112.89 188.625 112.995C188.74 113.098 188.798 113.236 188.798 113.409C188.798 113.619 188.664 113.869 188.396 114.159L187.825 114.779H188.896V115ZM190.521 114.09C190.521 114.408 190.466 114.644 190.358 114.798C190.25 114.952 190.08 115.029 189.85 115.029C189.622 115.029 189.454 114.954 189.344 114.804C189.235 114.652 189.178 114.427 189.174 114.127V113.765C189.174 113.452 189.229 113.219 189.337 113.066C189.445 112.914 189.615 112.838 189.847 112.838C190.076 112.838 190.245 112.912 190.354 113.059C190.462 113.206 190.518 113.432 190.521 113.739V114.09ZM190.25 113.72C190.25 113.49 190.217 113.323 190.153 113.219C190.088 113.113 189.986 113.061 189.847 113.061C189.708 113.061 189.607 113.113 189.543 113.217C189.48 113.322 189.447 113.482 189.445 113.699V114.133C189.445 114.363 189.479 114.534 189.545 114.644C189.612 114.753 189.714 114.808 189.85 114.808C189.983 114.808 190.083 114.756 190.147 114.653C190.212 114.549 190.247 114.386 190.25 114.164V113.72ZM191.758 115H191.486V113.194L190.939 113.395V113.148L191.716 112.857H191.758V115ZM192.835 113.415L192.842 113.591C192.958 113.454 193.115 113.386 193.312 113.386C193.534 113.386 193.685 113.471 193.765 113.641C193.818 113.564 193.886 113.503 193.97 113.456C194.055 113.409 194.155 113.386 194.271 113.386C194.618 113.386 194.795 113.57 194.801 113.938V115H194.53V113.954C194.53 113.841 194.504 113.756 194.452 113.701C194.4 113.644 194.313 113.616 194.191 113.616C194.091 113.616 194.007 113.646 193.941 113.707C193.875 113.766 193.836 113.847 193.825 113.948V115H193.553V113.961C193.553 113.731 193.44 113.616 193.214 113.616C193.037 113.616 192.915 113.691 192.85 113.843V115H192.579V113.415H192.835ZM196.134 114.58C196.134 114.506 196.106 114.45 196.05 114.41C195.996 114.369 195.899 114.333 195.762 114.304C195.625 114.275 195.516 114.24 195.435 114.199C195.355 114.158 195.295 114.109 195.256 114.052C195.218 113.996 195.199 113.928 195.199 113.85C195.199 113.72 195.254 113.61 195.363 113.521C195.474 113.431 195.614 113.386 195.785 113.386C195.965 113.386 196.11 113.432 196.222 113.525C196.334 113.618 196.39 113.736 196.39 113.881H196.118C196.118 113.807 196.086 113.743 196.022 113.689C195.96 113.635 195.881 113.608 195.785 113.608C195.687 113.608 195.609 113.63 195.554 113.673C195.498 113.716 195.47 113.772 195.47 113.841C195.47 113.907 195.496 113.956 195.548 113.989C195.6 114.022 195.693 114.054 195.828 114.084C195.963 114.115 196.073 114.151 196.157 114.193C196.241 114.235 196.303 114.286 196.343 114.345C196.384 114.404 196.405 114.476 196.405 114.561C196.405 114.702 196.348 114.816 196.235 114.902C196.122 114.987 195.975 115.029 195.794 115.029C195.667 115.029 195.555 115.007 195.457 114.962C195.359 114.917 195.283 114.854 195.227 114.774C195.172 114.693 195.145 114.606 195.145 114.512H195.416C195.421 114.603 195.457 114.675 195.524 114.729C195.593 114.782 195.683 114.808 195.794 114.808C195.896 114.808 195.979 114.788 196.04 114.747C196.103 114.705 196.134 114.649 196.134 114.58Z" fill="black" fill-opacity="0.74"/>
<path d="M35 138.5L71 127H105L137 132L171 127L202 138.5L232.5 170H291.5L308 132" stroke="#05C46B" stroke-linecap="round" stroke-linejoin="round"/>
<circle cx="71" cy="127" r="2" fill="#05C46B"/>
<circle cx="106" cy="127" r="2" fill="#05C46B"/>
<circle cx="137" cy="132" r="2" fill="#05C46B"/>
<circle cx="171" cy="127" r="2" fill="#05C46B"/>
<circle cx="202" cy="139" r="2" fill="#05C46B"/>
<circle cx="233" cy="170" r="2" fill="#05C46B"/>
<circle cx="263" cy="170" r="2" fill="#05C46B"/>
<circle cx="291" cy="170" r="2" fill="#05C46B"/>
<circle cx="308" cy="132" r="2" fill="#05C46B"/>
<defs>
<filter id="filter0_d" x="0" y="29" width="350" height="221" filterUnits="userSpaceOnUse" color-interpolation-filters="sRGB">
<feFlood flood-opacity="0" result="BackgroundImageFix"/>
<feColorMatrix in="SourceAlpha" type="matrix" values="0 0 0 0 0 0 0 0 0 0 0 0 0 0 0 0 0 0 127 0"/>
<feMorphology radius="4" operator="dilate" in="SourceAlpha" result="effect1_dropShadow"/>
<feOffset dy="4"/>
<feGaussianBlur stdDeviation="5.5"/>
<feColorMatrix type="matrix" values="0 0 0 0 0 0 0 0 0 0 0 0 0 0 0 0 0 0 0.1 0"/>
<feBlend mode="normal" in2="BackgroundImageFix" result="effect1_dropShadow"/>
<feBlend mode="normal" in="SourceGraphic" in2="effect1_dropShadow" result="shape"/>
</filter>
<filter id="filter1_d" x="169" y="103" width="47" height="25" filterUnits="userSpaceOnUse" color-interpolation-filters="sRGB">
<feFlood flood-opacity="0" result="BackgroundImageFix"/>
<feColorMatrix in="SourceAlpha" type="matrix" values="0 0 0 0 0 0 0 0 0 0 0 0 0 0 0 0 0 0 127 0"/>
<feOffset dy="4"/>
<feGaussianBlur stdDeviation="2"/>
<feColorMatrix type="matrix" values="0 0 0 0 0 0 0 0 0 0 0 0 0 0 0 0 0 0 0.1 0"/>
<feBlend mode="normal" in2="BackgroundImageFix" result="effect1_dropShadow"/>
<feBlend mode="normal" in="SourceGraphic" in2="effect1_dropShadow" result="shape"/>
</filter>
</defs>
</svg>
