<svg width="423" height="255" viewBox="0 0 423 255" fill="none" xmlns="http://www.w3.org/2000/svg">
<circle cx="207.5" cy="127.5" r="127.5" fill="#05C46B"/>
<g filter="url(#filter0_d)">
<rect x="19" y="76" width="181" height="144" rx="4" fill="white"/>
</g>
<rect x="31" y="128" width="156" height="10" rx="5" fill="#D6D6D6"/>
<rect x="31" y="148" width="124" height="10" rx="5" fill="#D6D6D6"/>
<rect x="31" y="168" width="146" height="10" rx="5" fill="#D6D6D6"/>
<rect x="31" y="188" width="110" height="10" rx="5" fill="#D6D6D6"/>
<path d="M40.336 93.744V99H38.692V94.344H36.94V99H35.296V94.344H33.544V99H31.9V92.94H33.256L33.544 93.432L34.396 92.94H35.548L36.664 93.588L37.792 92.94H38.944L40.336 93.744ZM42.5985 101.4L43.7025 98.58L41.4105 93H43.0545L44.5305 96.528H44.5545L45.9465 93H47.5905L44.2185 101.4H42.5985ZM52.6775 90.6L55.6775 99H54.0215L53.3855 97.188H50.2415L49.6055 99H47.9495L50.9495 90.6H52.6775ZM51.8015 92.712L50.7455 95.748H52.8695L51.8255 92.712H51.8015ZM60.4755 95.208H60.4515L59.3955 99H57.6915L56.1555 93H57.6795L58.6155 96.828H58.6395L59.7075 93H61.2195L62.2875 96.828H62.3115L63.2475 93H64.7715L63.2355 99H61.5315L60.4755 95.208ZM70.9464 97.596V99H67.3584L65.9664 98.196V93.744L67.3584 92.94H69.5544L70.9464 93.744V96.612H67.6104V97.596H70.9464ZM67.6104 94.344V95.376H69.3024V94.344H67.6104ZM77.5036 96.048V98.196L76.1116 99H72.7516V97.596H75.8596V96.672H74.1436L72.7516 95.868V93.804L74.1436 93H77.3836V94.404H74.3956V95.244H76.1116L77.5036 96.048ZM84.6423 98.256L83.2503 99.06H80.6943L79.3023 98.256V93.744L80.6943 92.94H83.2503L84.6423 93.744V98.256ZM80.9463 94.344V97.656H82.9983V94.344H80.9463ZM94.8751 93.744V99H93.2311V94.344H91.4791V99H89.8351V94.344H88.0831V99H86.4391V92.94H87.7951L88.0831 93.432L88.9351 92.94H90.0871L91.2031 93.588L92.3311 92.94H93.4831L94.8751 93.744ZM101.65 97.596V99H98.0615L96.6695 98.196V93.744L98.0615 92.94H100.258L101.65 93.744V96.612H98.3135V97.596H101.65ZM98.3135 94.344V95.376H100.006V94.344H98.3135ZM113.775 90.6L111.639 99H109.839L108.327 93.324H108.303L106.791 99H104.991L102.855 90.6H104.487L105.903 96.36H105.927L107.463 90.6H109.167L110.703 96.336H110.727L112.143 90.6H113.775ZM119.954 97.596V99H116.366L114.974 98.196V93.744L116.366 92.94H118.562L119.954 93.744V96.612H116.618V97.596H119.954ZM116.618 94.344V95.376H118.31V94.344H116.618ZM124.255 92.94H125.827L127.219 93.744V98.256L125.827 99.06H124.255L123.403 98.568L122.551 99.06H121.759V90.24H123.403V93.432L124.255 92.94ZM123.403 94.344V97.656H125.575V94.344H123.403ZM133.777 96.048V98.196L132.385 99H129.025V97.596H132.133V96.672H130.417L129.025 95.868V93.804L130.417 93H133.657V94.404H130.669V95.244H132.385L133.777 96.048ZM137.22 93V99H135.576V93H137.22ZM135.516 91.884V90.24H137.28V91.884H135.516ZM138.541 94.404V93H139.645V91.992L141.289 91.044V93H142.609V94.404H141.289V97.596H142.609V99H141.037L139.645 98.196V94.404H138.541ZM149.146 97.596V99H145.558L144.166 98.196V93.744L145.558 92.94H147.754L149.146 93.744V96.612H145.81V97.596H149.146ZM145.81 94.344V95.376H147.502V94.344H145.81Z" fill="#00594E"/>
<path d="M31.45 108.55V108.045L32.4 107.5H32.8V110.55H33.65V111H31.45V110.55H32.3V108.06L31.45 108.55ZM34.8016 110.55H36.5516V111H34.3016V109.43L34.8816 109.095H36.0516V107.95H34.8016V108.4H34.3016V107.835L34.8816 107.5H35.9716L36.5516 107.835V109.21L35.9716 109.545H34.8016V110.55ZM37.151 111.1L38.331 107.4H38.781L37.601 111.1H37.151ZM41.8047 110.69L41.2247 111.025H39.9597L39.3797 110.69V107.81L39.9597 107.475H41.2247L41.8047 107.81V110.69ZM39.8797 107.925V110.575H41.3047V107.925H39.8797ZM43.3049 107.95V108.845H44.4499L45.0299 109.18V110.69L44.4499 111.025H43.2849L42.7049 110.69V110.125H43.2049V110.575H44.5299V109.295H42.8049V107.5H44.9799V107.95H43.3049ZM45.6275 111.1L46.8075 107.4H47.2575L46.0775 111.1H45.6275ZM48.3563 110.55H50.1063V111H47.8563V109.43L48.4363 109.095H49.6063V107.95H48.3563V108.4H47.8563V107.835L48.4363 107.5H49.5263L50.1063 107.835V109.21L49.5263 109.545H48.3563V110.55ZM53.4307 110.69L52.8507 111.025H51.5857L51.0057 110.69V107.81L51.5857 107.475H52.8507L53.4307 107.81V110.69ZM51.5057 107.925V110.575H52.9307V107.925H51.5057ZM54.8309 110.55H56.5809V111H54.3309V109.43L54.9109 109.095H56.0809V107.95H54.8309V108.4H54.3309V107.835L54.9109 107.5H56.0009L56.5809 107.835V109.21L56.0009 109.545H54.8309V110.55ZM57.4803 108.55V108.045L58.4303 107.5H58.8303V110.55H59.6803V111H57.4803V110.55H58.3303V108.06L57.4803 108.55ZM62.0307 107.7V111.65H62.6957V112H62.2107L61.6307 111.665V107.685L62.2107 107.35H62.6957V107.7H62.0307ZM63.4471 108.55V108.045L64.3971 107.5H64.7971V110.55H65.6471V111H63.4471V110.55H64.2971V108.06L63.4471 108.55ZM68.0736 110.575V109.345L67.7186 109.55H66.8786L66.2986 109.215V107.81L66.8786 107.475H67.9936L68.5736 107.81V110.69L67.9936 111.025H66.8786L66.2986 110.69V110.125H66.7986V110.575H68.0736ZM68.0736 109.1V107.925H66.7986V109.1H68.0736ZM69.5225 111V110.25H70.2725V111H69.5225ZM69.5225 109.25V108.5H70.2725V109.25H69.5225ZM71.7205 110.55H73.4705V111H71.2205V109.43L71.8005 109.095H72.9705V107.95H71.7205V108.4H71.2205V107.835L71.8005 107.5H72.8905L73.4705 107.835V109.21L72.8905 109.545H71.7205V110.55ZM76.1449 111.025H74.9499L74.3699 110.69V110.125H74.8699V110.575H76.2249V109.415H75.1999V108.965H76.2249V107.925H74.8699V108.375H74.3699V107.81L74.9499 107.475H76.1449L76.7249 107.81V108.935L76.2899 109.185V109.195L76.7249 109.445V110.69L76.1449 111.025ZM78.1418 111.65V107.7H77.4768V107.35H77.9618L78.5418 107.685V111.665L77.9618 112H77.4768V111.65H78.1418Z" fill="black" fill-opacity="0.64"/>
<g filter="url(#filter1_d)">
<rect x="215" y="32" width="181" height="150" rx="4" fill="white"/>
</g>
<rect x="228" y="86" width="140" height="10" rx="5" fill="#D6D6D6"/>
<rect x="228" y="106" width="124" height="10" rx="5" fill="#D6D6D6"/>
<rect x="228" y="126" width="104" height="10" rx="5" fill="#D6D6D6"/>
<rect x="228" y="146" width="131" height="10" rx="5" fill="#D6D6D6"/>
<path d="M236.336 49.744V55H234.692V50.344H232.94V55H231.296V50.344H229.544V55H227.9V48.94H229.256L229.544 49.432L230.396 48.94H231.548L232.664 49.588L233.792 48.94H234.944L236.336 49.744ZM238.598 57.4L239.702 54.58L237.41 49H239.054L240.53 52.528H240.554L241.946 49H243.59L240.218 57.4H238.598ZM248.678 46.6L251.678 55H250.022L249.386 53.188H246.242L245.606 55H243.95L246.95 46.6H248.678ZM247.802 48.712L246.746 51.748H248.87L247.826 48.712H247.802ZM256.475 51.208H256.451L255.395 55H253.691L252.155 49H253.679L254.615 52.828H254.639L255.707 49H257.219L258.287 52.828H258.311L259.247 49H260.771L259.235 55H257.531L256.475 51.208ZM266.946 53.596V55H263.358L261.966 54.196V49.744L263.358 48.94H265.554L266.946 49.744V52.612H263.61V53.596H266.946ZM263.61 50.344V51.376H265.302V50.344H263.61ZM273.504 52.048V54.196L272.112 55H268.752V53.596H271.86V52.672H270.144L268.752 51.868V49.804L270.144 49H273.384V50.404H270.396V51.244H272.112L273.504 52.048ZM280.642 54.256L279.25 55.06H276.694L275.302 54.256V49.744L276.694 48.94H279.25L280.642 49.744V54.256ZM276.946 50.344V53.656H278.998V50.344H276.946ZM290.875 49.744V55H289.231V50.344H287.479V55H285.835V50.344H284.083V55H282.439V48.94H283.795L284.083 49.432L284.935 48.94H286.087L287.203 49.588L288.331 48.94H289.483L290.875 49.744ZM297.65 53.596V55H294.062L292.67 54.196V49.744L294.062 48.94H296.258L297.65 49.744V52.612H294.314V53.596H297.65ZM294.314 50.344V51.376H296.006V50.344H294.314ZM309.775 46.6L307.639 55H305.839L304.327 49.324H304.303L302.791 55H300.991L298.855 46.6H300.487L301.903 52.36H301.927L303.463 46.6H305.167L306.703 52.336H306.727L308.143 46.6H309.775ZM315.954 53.596V55H312.366L310.974 54.196V49.744L312.366 48.94H314.562L315.954 49.744V52.612H312.618V53.596H315.954ZM312.618 50.344V51.376H314.31V50.344H312.618ZM320.255 48.94H321.827L323.219 49.744V54.256L321.827 55.06H320.255L319.403 54.568L318.551 55.06H317.759V46.24H319.403V49.432L320.255 48.94ZM319.403 50.344V53.656H321.575V50.344H319.403ZM329.777 52.048V54.196L328.385 55H325.025V53.596H328.133V52.672H326.417L325.025 51.868V49.804L326.417 49H329.657V50.404H326.669V51.244H328.385L329.777 52.048ZM333.22 49V55H331.576V49H333.22ZM331.516 47.884V46.24H333.28V47.884H331.516ZM334.541 50.404V49H335.645V47.992L337.289 47.044V49H338.609V50.404H337.289V53.596H338.609V55H337.037L335.645 54.196V50.404H334.541ZM345.146 53.596V55H341.558L340.166 54.196V49.744L341.558 48.94H343.754L345.146 49.744V52.612H341.81V53.596H345.146ZM341.81 50.344V51.376H343.502V50.344H341.81Z" fill="#00594E"/>
<path d="M227.95 66.55H229.7V67H227.45V65.43L228.03 65.095H229.2V63.95H227.95V64.4H227.45V63.835L228.03 63.5H229.12L229.7 63.835V65.21L229.12 65.545H227.95V66.55ZM231.099 66.575H232.424V65.415H231.099V66.575ZM231.099 64.965H232.424V63.925H231.099V64.965ZM232.344 67.025H231.099L230.599 66.69V65.445L231.034 65.195V65.185L230.599 64.935V63.81L231.179 63.475H232.344L232.924 63.81V64.935L232.489 65.185V65.195L232.924 65.445V66.69L232.344 67.025ZM233.522 67.1L234.702 63.4H235.152L233.972 67.1H233.522ZM238.176 66.69L237.596 67.025H236.331L235.751 66.69V63.81L236.331 63.475H237.596L238.176 63.81V66.69ZM236.251 63.925V66.575H237.676V63.925H236.251ZM239.676 63.95V64.845H240.821L241.401 65.18V66.69L240.821 67.025H239.656L239.076 66.69V66.125H239.576V66.575H240.901V65.295H239.176V63.5H241.351V63.95H239.676ZM241.999 67.1L243.179 63.4H243.629L242.449 67.1H241.999ZM244.727 66.55H246.477V67H244.227V65.43L244.807 65.095H245.977V63.95H244.727V64.4H244.227V63.835L244.807 63.5H245.897L246.477 63.835V65.21L245.897 65.545H244.727V66.55ZM249.802 66.69L249.222 67.025H247.957L247.377 66.69V63.81L247.957 63.475H249.222L249.802 63.81V66.69ZM247.877 63.925V66.575H249.302V63.925H247.877ZM251.202 66.55H252.952V67H250.702V65.43L251.282 65.095H252.452V63.95H251.202V64.4H250.702V63.835L251.282 63.5H252.372L252.952 63.835V65.21L252.372 65.545H251.202V66.55ZM253.851 64.55V64.045L254.801 63.5H255.201V66.55H256.051V67H253.851V66.55H254.701V64.06L253.851 64.55ZM258.402 63.7V67.65H259.067V68H258.582L258.002 67.665V63.685L258.582 63.35H259.067V63.7H258.402ZM259.818 64.55V64.045L260.768 63.5H261.168V66.55H262.018V67H259.818V66.55H260.668V64.06L259.818 64.55ZM263.27 63.95V64.845H264.415L264.995 65.18V66.69L264.415 67.025H263.25L262.67 66.69V66.125H263.17V66.575H264.495V65.295H262.77V63.5H264.945V63.95H263.27ZM265.942 67V66.25H266.692V67H265.942ZM265.942 65.25V64.5H266.692V65.25H265.942ZM267.64 64.55V64.045L268.59 63.5H268.99V66.55H269.84V67H267.64V66.55H268.49V64.06L267.64 64.55ZM272.267 67.025H271.072L270.492 66.69V66.125H270.992V66.575H272.347V65.415H271.322V64.965H272.347V63.925H270.992V64.375H270.492V63.81L271.072 63.475H272.267L272.847 63.81V64.935L272.412 65.185V65.195L272.847 65.445V66.69L272.267 67.025ZM274.264 67.65V63.7H273.599V63.35H274.084L274.664 63.685V67.665L274.084 68H273.599V67.65H274.264Z" fill="black" fill-opacity="0.64"/>
<defs>
<filter id="filter0_d" x="0" y="57" width="227" height="190" filterUnits="userSpaceOnUse" color-interpolation-filters="sRGB">
<feFlood flood-opacity="0" result="BackgroundImageFix"/>
<feColorMatrix in="SourceAlpha" type="matrix" values="0 0 0 0 0 0 0 0 0 0 0 0 0 0 0 0 0 0 127 0"/>
<feMorphology radius="8" operator="dilate" in="SourceAlpha" result="effect1_dropShadow"/>
<feOffset dx="4" dy="4"/>
<feGaussianBlur stdDeviation="7.5"/>
<feColorMatrix type="matrix" values="0 0 0 0 0 0 0 0 0 0 0 0 0 0 0 0 0 0 0.08 0"/>
<feBlend mode="normal" in2="BackgroundImageFix" result="effect1_dropShadow"/>
<feBlend mode="normal" in="SourceGraphic" in2="effect1_dropShadow" result="shape"/>
</filter>
<filter id="filter1_d" x="196" y="13" width="227" height="196" filterUnits="userSpaceOnUse" color-interpolation-filters="sRGB">
<feFlood flood-opacity="0" result="BackgroundImageFix"/>
<feColorMatrix in="SourceAlpha" type="matrix" values="0 0 0 0 0 0 0 0 0 0 0 0 0 0 0 0 0 0 127 0"/>
<feMorphology radius="8" operator="dilate" in="SourceAlpha" result="effect1_dropShadow"/>
<feOffset dx="4" dy="4"/>
<feGaussianBlur stdDeviation="7.5"/>
<feColorMatrix type="matrix" values="0 0 0 0 0 0 0 0 0 0 0 0 0 0 0 0 0 0 0.08 0"/>
<feBlend mode="normal" in2="BackgroundImageFix" result="effect1_dropShadow"/>
<feBlend mode="normal" in="SourceGraphic" in2="effect1_dropShadow" result="shape"/>
</filter>
</defs>
</svg>
