<svg width="522" height="436" viewBox="0 0 522 436" fill="none" xmlns="http://www.w3.org/2000/svg">
<g filter="url(#filter0_d)">
<g filter="url(#filter1_d)">
<rect width="211" height="141" rx="3" transform="matrix(0.866025 -0.5 2.20305e-08 1 4 209.5)" fill="white"/>
<rect x="0.216506" y="0.125" width="210.5" height="140.5" rx="2.75" transform="matrix(0.866025 -0.5 2.20305e-08 1 4.02901 209.608)" stroke="#C0C0C0" stroke-width="0.5"/>
</g>
<rect x="0.0433013" y="0.025" width="206.9" height="11.9" rx="1.95" transform="matrix(0.866025 -0.5 2.20305e-08 1 5.73786 210.522)" fill="#F5F5F5" stroke="#ACACAC" stroke-width="0.1"/>
<rect width="26" height="7" rx="2" transform="matrix(0.866025 -0.5 2.20305e-08 1 10.9282 209.5)" fill="#E4E4E4"/>
<rect width="26" height="3" rx="1" transform="matrix(0.866025 -0.5 2.20305e-08 1 155.554 129)" fill="#E4E4E4"/>
<rect width="26" height="3" rx="1" transform="matrix(0.866025 -0.5 2.20305e-08 1 127.842 145)" fill="#E4E4E4"/>
<rect width="26" height="3" rx="1" transform="matrix(0.866025 -0.5 2.20305e-08 1 100.129 161)" fill="#E4E4E4"/>
<rect x="0.0433013" y="0.025" width="206.9" height="99.9" rx="1.95" transform="matrix(0.866025 -0.5 2.20305e-08 1 5.73786 224.522)" fill="#EFEFEF" stroke="#C2C2C2" stroke-width="0.1"/>
<rect width="141" height="12" rx="2" transform="matrix(0.866025 -0.5 2.20305e-08 1 33.4448 238.5)" fill="#DADADA"/>
<rect width="109" height="6" rx="2" transform="matrix(0.866025 -0.5 2.20305e-08 1 47.3013 246.5)" fill="#DADADA"/>
<rect width="26" height="9" transform="matrix(0.866025 -0.5 2.20305e-08 1 68.9519 244)" fill="#C4C4C4"/>
<rect width="26" height="9" transform="matrix(0.866025 -0.5 2.20305e-08 1 96.6647 228)" fill="#C4C4C4"/>
<rect width="17" height="3" rx="1" transform="matrix(0.866025 -0.5 2.20305e-08 1 100.995 228.5)" fill="white"/>
<rect width="17" height="3" rx="1" transform="matrix(0.866025 -0.5 2.20305e-08 1 72.416 245)" fill="white"/>
<rect x="0.0866025" y="0.05" width="36.8" height="7.8" transform="matrix(0.866025 -0.5 2.20305e-08 1 41.2507 321.043)" fill="#DADADA" stroke="#E2E2E2" stroke-width="0.2"/>
<rect x="0.0866025" y="0.05" width="36.8" height="7.8" transform="matrix(0.866025 -0.5 2.20305e-08 1 79.3558 299.043)" fill="#DADADA" stroke="#E2E2E2" stroke-width="0.2"/>
<rect x="0.0866025" y="0.05" width="36.8" height="7.8" transform="matrix(0.866025 -0.5 2.20305e-08 1 117.461 277.043)" fill="#DADADA" stroke="#E2E2E2" stroke-width="0.2"/>
<rect x="0.0866025" y="0.05" width="60.8" height="4.8" transform="matrix(0.866025 -0.5 2.20305e-08 1 68.9635 294.043)" fill="#DADADA" stroke="#E2E2E2" stroke-width="0.2"/>
<g filter="url(#filter2_d)">
<circle r="25" transform="matrix(0.866025 -0.5 2.20305e-08 1 94.0667 229.5)" fill="#008272"/>
</g>
<rect width="7" height="18.2178" transform="matrix(0.628557 -1.05081 0.595749 0.381839 79.9758 238.551)" fill="white"/>
<rect width="26.8559" height="7.0882" transform="matrix(-0.628557 1.05081 0.595749 0.381839 104.019 214.594)" fill="white"/>
<path d="M156.963 292.206C158.007 290.544 156.72 285.92 154.088 281.876C151.457 277.832 148.478 275.9 147.435 277.561C146.391 279.223 147.678 283.847 150.309 287.891C152.941 291.935 155.92 293.867 156.963 292.206Z" fill="#2F2E41"/>
<path d="M168.197 313.914C178.446 307.997 186.754 294.542 186.754 283.861C186.754 273.18 178.446 269.318 168.197 275.235C157.949 281.152 149.641 294.607 149.641 305.288C149.641 315.969 157.949 319.831 168.197 313.914Z" fill="#2F2E41"/>
<path d="M171.084 318.603L176.722 315.332L176.693 304.821L171.056 308.093L171.084 318.603Z" fill="#2F2E41"/>
<path d="M159.81 325.146L165.448 321.875L165.419 311.364L159.782 314.636L159.81 325.146Z" fill="#2F2E41"/>
<path d="M172.03 320.013C174.624 318.508 176.725 316.467 176.723 315.454C176.72 314.442 174.614 314.842 172.02 316.347C169.425 317.853 167.324 319.894 167.327 320.906C167.33 321.919 169.435 321.519 172.03 320.013Z" fill="#2F2E41"/>
<path d="M160.754 326.311C163.349 324.806 165.45 322.765 165.447 321.752C165.445 320.74 163.339 321.14 160.745 322.645C158.15 324.151 156.049 326.192 156.052 327.204C156.054 328.217 158.16 327.817 160.754 326.311Z" fill="#2F2E41"/>
<path d="M167.714 296.568C171.217 294.546 174.056 289.947 174.056 286.297C174.056 282.647 171.217 281.327 167.714 283.349C164.212 285.371 161.372 289.97 161.372 293.62C161.372 297.271 164.212 298.591 167.714 296.568Z" fill="white"/>
<path d="M167.714 292.162C168.882 291.488 169.828 289.955 169.828 288.738C169.828 287.521 168.882 287.081 167.714 287.755C166.547 288.429 165.6 289.962 165.6 291.179C165.6 292.396 166.547 292.836 167.714 292.162Z" fill="#3F3D56"/>
<path d="M186.221 268.644C189.017 262.195 190.235 256.896 188.941 256.809C187.646 256.722 184.33 261.88 181.534 268.33C178.738 274.779 177.52 280.078 178.814 280.165C180.109 280.252 183.425 275.094 186.221 268.644Z" fill="#2F2E41"/>
<path d="M177.331 296.251C177.336 298.141 172.67 304.587 167.48 307.598C162.291 310.609 157.412 308.111 157.407 306.222C157.402 304.332 162.273 303.765 167.462 300.754C172.651 297.743 177.326 294.362 177.331 296.251Z" fill="white"/>
<path d="M178.086 270.171C176.929 265.619 171.133 263.674 165.142 265.827C159.15 267.979 155.231 273.414 156.388 277.966C157.545 282.518 161.98 281.897 167.971 279.745C173.963 277.592 179.243 274.723 178.086 270.171Z" fill="#008272"/>
</g>
<g filter="url(#filter3_d)">
<g filter="url(#filter4_d)">
<rect width="211" height="141" rx="3" transform="matrix(0.866025 0.5 -2.20305e-08 1 335 0)" fill="white"/>
<rect x="0.216506" y="0.375" width="210.5" height="140.5" rx="2.75" transform="matrix(0.866025 0.5 -2.20305e-08 1 335.029 -0.108253)" stroke="#C0C0C0" stroke-width="0.5"/>
</g>
<rect x="0.0433013" y="0.075" width="206.9" height="11.9" rx="1.95" transform="matrix(0.866025 0.5 -2.20305e-08 1 336.738 2.97835)" fill="#F5F5F5" stroke="#ACACAC" stroke-width="0.1"/>
<rect width="26" height="7" rx="2" transform="matrix(0.866025 0.5 -2.20305e-08 1 341.928 8)" fill="#E4E4E4"/>
<rect width="26" height="3" rx="1" transform="matrix(0.866025 0.5 -2.20305e-08 1 486.554 94.5)" fill="#E4E4E4"/>
<rect width="26" height="3" rx="1" transform="matrix(0.866025 0.5 -2.20305e-08 1 458.842 78.5)" fill="#E4E4E4"/>
<rect width="26" height="3" rx="1" transform="matrix(0.866025 0.5 -2.20305e-08 1 431.129 62.5)" fill="#E4E4E4"/>
<rect x="0.0433013" y="0.075" width="206.9" height="99.9" rx="1.95" transform="matrix(0.866025 0.5 -2.20305e-08 1 336.738 16.9783)" fill="#EFEFEF" stroke="#C2C2C2" stroke-width="0.1"/>
<rect width="141" height="12" rx="2" transform="matrix(0.866025 0.5 -2.20305e-08 1 364.445 63)" fill="#DADADA"/>
<rect width="109" height="6" rx="2" transform="matrix(0.866025 0.5 -2.20305e-08 1 378.301 87)" fill="#DADADA"/>
<rect width="26" height="9" transform="matrix(0.866025 0.5 -2.20305e-08 1 399.952 109.5)" fill="#C4C4C4"/>
<rect width="26" height="9" transform="matrix(0.866025 0.5 -2.20305e-08 1 427.665 125.5)" fill="#C4C4C4"/>
<rect width="17" height="3" rx="1" transform="matrix(0.866025 0.5 -2.20305e-08 1 431.995 131)" fill="white"/>
<rect width="17" height="3" rx="1" transform="matrix(0.866025 0.5 -2.20305e-08 1 403.416 114.5)" fill="white"/>
<rect x="0.0866025" y="0.15" width="36.8" height="7.8" transform="matrix(0.866025 0.5 -2.20305e-08 1 372.251 154.457)" fill="#DADADA" stroke="#E2E2E2" stroke-width="0.2"/>
<rect x="0.0866025" y="0.15" width="36.8" height="7.8" transform="matrix(0.866025 0.5 -2.20305e-08 1 410.356 176.457)" fill="#DADADA" stroke="#E2E2E2" stroke-width="0.2"/>
<rect x="0.0866025" y="0.15" width="36.8" height="7.8" transform="matrix(0.866025 0.5 -2.20305e-08 1 448.461 198.457)" fill="#DADADA" stroke="#E2E2E2" stroke-width="0.2"/>
<rect x="0.0866025" y="0.15" width="60.8" height="4.8" transform="matrix(0.866025 0.5 -2.20305e-08 1 399.964 159.457)" fill="#DADADA" stroke="#E2E2E2" stroke-width="0.2"/>
<g filter="url(#filter5_d)">
<circle r="25" transform="matrix(0.866025 0.5 -2.20305e-08 1 425.067 124)" fill="#CA0000"/>
</g>
<rect width="7" height="26" transform="matrix(0.628557 -0.325014 0.595749 1.06975 415.002 111.005)" fill="white"/>
<path d="M431.017 116.275L414.674 124.726L418.897 132.308L435.24 123.858L431.017 116.275Z" fill="white"/>
<path d="M440.393 221.356C439.089 219.554 436.077 220.733 433.665 223.989C431.254 227.245 430.357 231.346 431.661 233.148C432.965 234.949 435.976 233.77 438.388 230.514C440.799 227.258 441.697 223.158 440.393 221.356Z" fill="#2F2E41"/>
<path d="M455.489 248.756C465.737 254.672 474.045 250.81 474.045 240.13C474.045 229.449 465.737 215.993 455.489 210.077C445.241 204.16 436.933 208.022 436.933 218.702C436.933 229.383 445.241 242.839 455.489 248.756Z" fill="#2F2E41"/>
<path d="M458.376 256.778L464.013 260.016L463.985 249.473L458.348 246.235L458.376 256.778Z" fill="#2F2E41"/>
<path d="M447.102 250.303L452.739 253.541L452.711 242.998L447.074 239.76L447.102 250.303Z" fill="#2F2E41"/>
<path d="M459.322 259.28C461.916 260.771 464.017 261.156 464.014 260.14C464.012 259.125 461.906 257.093 459.312 255.603C456.717 254.112 454.616 253.727 454.619 254.743C454.622 255.759 456.727 257.79 459.322 259.28Z" fill="#2F2E41"/>
<path d="M448.046 252.559C450.641 254.049 452.742 254.434 452.739 253.418C452.736 252.403 450.631 250.371 448.036 248.881C445.442 247.391 443.341 247.006 443.344 248.021C443.346 249.037 445.452 251.068 448.046 252.559Z" fill="#2F2E41"/>
<path d="M455.006 230.852C458.509 232.874 461.348 231.555 461.348 227.904C461.348 224.254 458.509 219.655 455.006 217.633C451.503 215.611 448.664 216.93 448.664 220.581C448.664 224.231 451.503 228.83 455.006 230.852Z" fill="white"/>
<path d="M455.006 226.446C456.174 227.12 457.12 226.68 457.12 225.463C457.12 224.246 456.174 222.713 455.006 222.039C453.839 221.365 452.892 221.805 452.892 223.022C452.892 224.239 453.839 225.772 455.006 226.446Z" fill="#3F3D56"/>
<path d="M473.441 221.743C474.921 215.599 470.112 205.77 462.701 199.79C455.29 193.809 448.082 193.941 446.603 200.084C445.123 206.228 450.039 211.631 457.45 217.612C464.861 223.593 471.961 227.886 473.441 221.743Z" fill="#CA0000"/>
<path d="M471.742 249.798C474.732 256.202 478.064 261.007 479.182 260.53C480.301 260.053 478.783 254.475 475.793 248.07C472.802 241.666 469.471 236.862 468.353 237.339C467.234 237.816 468.751 243.394 471.742 249.798Z" fill="#2F2E41"/>
<path d="M444.702 233.533C444.693 231.635 449.352 230.561 454.541 233.527C459.73 236.494 464.62 244.618 464.629 246.516C464.638 248.414 459.762 243.367 454.573 240.4C449.384 237.434 444.711 235.431 444.702 233.533Z" fill="white"/>
</g>
<g filter="url(#filter6_d)">
<g filter="url(#filter7_d)">
<rect width="211" height="141" rx="3" transform="matrix(0.866025 0.5 -2.20305e-08 1 232 106)" fill="white"/>
<rect x="0.0995929" y="0.1725" width="210.77" height="140.77" rx="2.885" transform="matrix(0.866025 0.5 -2.20305e-08 1 232.013 105.95)" stroke="#C0C0C0" stroke-width="0.23"/>
</g>
<rect x="0.0433013" y="0.075" width="206.9" height="11.9" rx="1.95" transform="matrix(0.866025 0.5 -2.20305e-08 1 233.738 108.978)" fill="#F5F5F5" stroke="#ACACAC" stroke-width="0.1"/>
<rect width="26" height="7" rx="2" transform="matrix(0.866025 0.5 -2.20305e-08 1 238.928 114)" fill="#E4E4E4"/>
<rect width="26" height="3" rx="1" transform="matrix(0.866025 0.5 -2.20305e-08 1 383.554 200.5)" fill="#E4E4E4"/>
<rect width="26" height="3" rx="1" transform="matrix(0.866025 0.5 -2.20305e-08 1 355.842 184.5)" fill="#E4E4E4"/>
<rect width="26" height="3" rx="1" transform="matrix(0.866025 0.5 -2.20305e-08 1 328.129 168.5)" fill="#E4E4E4"/>
<rect x="0.0433013" y="0.075" width="206.9" height="99.9" rx="1.95" transform="matrix(0.866025 0.5 -2.20305e-08 1 233.738 122.978)" fill="#EFEFEF" stroke="#C2C2C2" stroke-width="0.1"/>
<rect width="141" height="12" rx="2" transform="matrix(0.866025 0.5 -2.20305e-08 1 261.445 169)" fill="#DADADA"/>
<rect width="109" height="6" rx="2" transform="matrix(0.866025 0.5 -2.20305e-08 1 275.301 193)" fill="#DADADA"/>
<rect width="26" height="9" transform="matrix(0.866025 0.5 -2.20305e-08 1 296.952 215.5)" fill="#C4C4C4"/>
<rect width="26" height="9" transform="matrix(0.866025 0.5 -2.20305e-08 1 324.665 231.5)" fill="#C4C4C4"/>
<rect width="17" height="3" rx="1" transform="matrix(0.866025 0.5 -2.20305e-08 1 328.995 237)" fill="white"/>
<rect width="17" height="3" rx="1" transform="matrix(0.866025 0.5 -2.20305e-08 1 300.416 220.5)" fill="white"/>
<rect x="0.0866025" y="0.15" width="36.8" height="7.8" transform="matrix(0.866025 0.5 -2.20305e-08 1 269.251 260.457)" fill="#DADADA" stroke="#E2E2E2" stroke-width="0.2"/>
<rect x="0.0866025" y="0.15" width="36.8" height="7.8" transform="matrix(0.866025 0.5 -2.20305e-08 1 307.356 282.457)" fill="#DADADA" stroke="#E2E2E2" stroke-width="0.2"/>
<rect x="0.0866025" y="0.15" width="36.8" height="7.8" transform="matrix(0.866025 0.5 -2.20305e-08 1 345.461 304.457)" fill="#DADADA" stroke="#E2E2E2" stroke-width="0.2"/>
<rect x="0.0866025" y="0.15" width="60.8" height="4.8" transform="matrix(0.866025 0.5 -2.20305e-08 1 296.964 265.457)" fill="#DADADA" stroke="#E2E2E2" stroke-width="0.2"/>
<g filter="url(#filter8_d)">
<circle r="25" transform="matrix(0.866025 0.5 -2.20305e-08 1 322.067 230)" fill="#008272"/>
</g>
<rect width="7" height="18.2178" transform="matrix(0.628557 -0.325014 0.595749 1.06975 307.976 222.78)" fill="white"/>
<rect width="26.8559" height="7.0882" transform="matrix(-0.628557 0.325014 0.595749 1.06975 332.019 226.586)" fill="white"/>
</g>
<g filter="url(#filter9_d)">
<path d="M273.209 155.297C281.093 153.193 294.315 138.144 282.128 133.529C269.947 128.917 270.936 142.746 273.209 155.297Z" fill="#008272" fill-opacity="0.46" stroke="#008272" stroke-opacity="0.46"/>
<path d="M280.875 133.873L282.565 127.149" stroke="#008272" stroke-opacity="0.46"/>
<path d="M280.875 133.873C279.626 139.114 276.484 150.459 273.913 153.907" stroke="white" stroke-width="0.2"/>
<path d="M279.424 140.087C276.066 139.594 273.889 140.466 273.221 140.964" stroke="white" stroke-width="0.2"/>
<path d="M279.475 140.578C282.671 141.773 283.863 143.377 284.06 144.029" stroke="white" stroke-width="0.2"/>
<path d="M278.314 142.783C277.017 141.878 273.614 142.665 273.212 143.464" stroke="white" stroke-width="0.2"/>
<path d="M278.613 143.184C280.012 143.389 282.501 145.639 282.51 146.5" stroke="white" stroke-width="0.2"/>
<path d="M277.605 145.18C276.607 144.676 274.325 145.128 274.004 145.367" stroke="white" stroke-width="0.2"/>
<path d="M277.503 145.88C278.902 146.085 280.244 147.764 280.394 148.09" stroke="white" stroke-width="0.2"/>
<path d="M279.834 137.288C276.336 136.775 273.833 137.828 273.659 138.203" stroke="white" stroke-width="0.2"/>
<path d="M280.03 138.389C283.024 138.654 285.473 141.47 285.404 141.853" stroke="white" stroke-width="0.2"/>
<path d="M276.896 147.577C276.33 147.375 275.038 147.091 274.396 147.568" stroke="white" stroke-width="0.2"/>
<path d="M276.668 148.327C277.142 148.454 278.386 149.331 278.687 149.984" stroke="white" stroke-width="0.2"/>
</g>
<g filter="url(#filter10_d)">
<path d="M190.612 206.342C195.349 204.79 203.679 195.138 196.622 192.725C189.568 190.312 189.689 198.739 190.612 206.342Z" fill="#008272" fill-opacity="0.88" stroke="#008272" stroke-opacity="0.78"/>
<path d="M195.869 192.976L197.095 188.806" stroke="#008272" stroke-opacity="0.78"/>
<path d="M195.869 192.977C194.954 196.225 192.713 203.272 191.076 205.468" stroke="white" stroke-width="0.2"/>
<path d="M194.802 196.827C192.831 196.639 191.513 197.245 191.101 197.572" stroke="white" stroke-width="0.2"/>
<path d="M194.815 197.126C196.667 197.75 197.318 198.691 197.413 199.083" stroke="white" stroke-width="0.2"/>
<path d="M194.054 198.514C193.317 198.004 191.277 198.6 191.012 199.102" stroke="white" stroke-width="0.2"/>
<path d="M194.217 198.749C195.039 198.828 196.436 200.121 196.412 200.647" stroke="white" stroke-width="0.2"/>
<path d="M193.554 200.004C192.98 199.73 191.615 200.083 191.417 200.24" stroke="white" stroke-width="0.2"/>
<path d="M193.47 200.436C194.291 200.515 195.029 201.497 195.107 201.691" stroke="white" stroke-width="0.2"/>
<path d="M195.138 195.101C193.085 194.905 191.569 195.633 191.453 195.868" stroke="white" stroke-width="0.2"/>
<path d="M195.217 195.768C196.98 195.83 198.335 197.47 198.281 197.707" stroke="white" stroke-width="0.2"/>
<path d="M193.054 201.495C192.726 201.39 191.971 201.26 191.575 201.573" stroke="white" stroke-width="0.2"/>
<path d="M192.894 201.961C193.17 202.023 193.876 202.518 194.033 202.907" stroke="white" stroke-width="0.2"/>
</g>
<g filter="url(#filter11_d)">
<path d="M168.331 363.286C164.201 356.248 146.172 347.516 144.973 360.492C143.775 373.462 156.84 368.823 168.331 363.286Z" fill="#008272" fill-opacity="0.5" stroke="#008272" stroke-opacity="0.5"/>
<path d="M145.638 361.608L138.708 361.772" stroke="#008272" stroke-opacity="0.5"/>
<path d="M145.638 361.608C151.023 361.415 162.795 361.419 166.803 362.977" stroke="white" stroke-width="0.2"/>
<path d="M152.014 361.35C152.435 364.718 153.855 366.583 154.513 367.095" stroke="white" stroke-width="0.2"/>
<path d="M152.474 361.17C152.774 357.771 154.002 356.195 154.578 355.831" stroke="white" stroke-width="0.2"/>
<path d="M154.908 361.701C154.382 363.192 156.048 366.262 156.925 366.438" stroke="white" stroke-width="0.2"/>
<path d="M155.215 361.307C155.04 359.903 156.545 356.904 157.373 356.666" stroke="white" stroke-width="0.2"/>
<path d="M157.408 361.745C157.189 362.842 158.232 364.92 158.548 365.166" stroke="white" stroke-width="0.2"/>
<path d="M158.11 361.658C157.934 360.254 159.195 358.514 159.469 358.281" stroke="white" stroke-width="0.2"/>
<path d="M149.207 361.701C149.646 365.209 151.328 367.34 151.735 367.408" stroke="white" stroke-width="0.2"/>
<path d="M150.216 361.218C149.674 358.262 151.735 355.151 152.122 355.115" stroke="white" stroke-width="0.2"/>
<path d="M159.908 361.79C159.864 362.389 159.934 363.71 160.565 364.202" stroke="white" stroke-width="0.2"/>
<path d="M160.691 361.81C160.687 361.319 161.201 359.887 161.75 359.422" stroke="white" stroke-width="0.2"/>
</g>
<g filter="url(#filter12_d)">
<path d="M330.976 326.712C338.86 324.608 352.081 309.559 339.895 304.944C327.714 300.332 328.702 314.16 330.976 326.712Z" fill="#008272" stroke="#008272"/>
<path d="M338.642 305.287L340.332 298.564" stroke="#008272"/>
<path d="M338.642 305.287C337.393 310.529 334.251 321.874 331.68 325.322" stroke="white" stroke-width="0.2"/>
<path d="M337.191 311.501C333.833 311.009 331.656 311.881 330.988 312.378" stroke="white" stroke-width="0.2"/>
<path d="M337.242 311.993C340.438 313.188 341.63 314.791 341.827 315.444" stroke="white" stroke-width="0.2"/>
<path d="M336.081 314.197C334.784 313.292 331.381 314.08 330.978 314.878" stroke="white" stroke-width="0.2"/>
<path d="M336.379 314.598C337.779 314.804 340.268 317.053 340.277 317.915" stroke="white" stroke-width="0.2"/>
<path d="M335.372 316.595C334.374 316.091 332.092 316.543 331.771 316.781" stroke="white" stroke-width="0.2"/>
<path d="M335.27 317.294C336.669 317.5 338.01 319.179 338.161 319.505" stroke="white" stroke-width="0.2"/>
<path d="M337.601 308.703C334.103 308.19 331.6 309.243 331.426 309.618" stroke="white" stroke-width="0.2"/>
<path d="M337.797 309.804C340.791 310.069 343.24 312.885 343.171 313.267" stroke="white" stroke-width="0.2"/>
<path d="M334.663 318.992C334.097 318.79 332.805 318.505 332.163 318.983" stroke="white" stroke-width="0.2"/>
<path d="M334.435 319.742C334.909 319.869 336.152 320.746 336.454 321.399" stroke="white" stroke-width="0.2"/>
</g>
<g filter="url(#filter13_d)">
<path d="M329.6 149.283C333.669 147.967 340.802 139.712 334.724 137.617C328.648 135.523 328.78 142.756 329.6 149.283Z" fill="#008272" stroke="#008272"/>
<path d="M334.077 137.831L335.117 134.257" stroke="#008272"/>
<path d="M334.077 137.831C333.3 140.616 331.397 146.656 329.996 148.534" stroke="white" stroke-width="0.2"/>
<path d="M333.171 141.132C331.476 140.964 330.344 141.48 329.991 141.759" stroke="white" stroke-width="0.2"/>
<path d="M333.184 141.389C334.779 141.93 335.342 142.74 335.425 143.077" stroke="white" stroke-width="0.2"/>
<path d="M332.534 142.577C331.899 142.137 330.146 142.641 329.919 143.071" stroke="white" stroke-width="0.2"/>
<path d="M332.675 142.779C333.382 142.85 334.588 143.964 334.57 144.416" stroke="white" stroke-width="0.2"/>
<path d="M332.109 143.854C331.615 143.617 330.441 143.915 330.272 144.049" stroke="white" stroke-width="0.2"/>
<path d="M332.038 144.224C332.745 144.295 333.382 145.14 333.45 145.307" stroke="white" stroke-width="0.2"/>
<path d="M333.455 139.652C331.689 139.477 330.387 140.097 330.288 140.298" stroke="white" stroke-width="0.2"/>
<path d="M333.526 140.224C335.042 140.283 336.213 141.696 336.168 141.898" stroke="white" stroke-width="0.2"/>
<path d="M331.684 145.132C331.401 145.041 330.751 144.926 330.412 145.194" stroke="white" stroke-width="0.2"/>
<path d="M331.547 145.531C331.785 145.585 332.395 146.012 332.531 146.347" stroke="white" stroke-width="0.2"/>
</g>
<g filter="url(#filter14_d)">
<path d="M249.963 191.185C252.28 196.485 264.306 204.579 266.284 195.844C268.261 187.112 258.593 188.749 249.963 191.185Z" fill="#008272" fill-opacity="0.78" stroke="#008272" stroke-opacity="0.78"/>
<path d="M265.91 195.002L270.838 195.705" stroke="#008272" stroke-opacity="0.78"/>
<path d="M265.91 195.002C262.074 194.501 253.726 193.113 251.019 191.576" stroke="white" stroke-width="0.2"/>
<path d="M261.366 194.428C261.36 192.075 260.515 190.632 260.093 190.204" stroke="white" stroke-width="0.2"/>
<path d="M261.024 194.497C260.516 196.788 259.508 197.722 259.068 197.902" stroke="white" stroke-width="0.2"/>
<path d="M259.344 193.848C259.847 192.89 258.932 190.594 258.325 190.37" stroke="white" stroke-width="0.2"/>
<path d="M259.092 194.082C259.094 195.062 257.766 196.937 257.158 197.002" stroke="white" stroke-width="0.2"/>
<path d="M257.575 193.524C257.826 192.799 257.266 191.255 257.064 191.049" stroke="white" stroke-width="0.2"/>
<path d="M257.07 193.501C257.072 194.482 256.027 195.524 255.812 195.651" stroke="white" stroke-width="0.2"/>
<path d="M263.386 194.519C263.38 192.067 262.373 190.411 262.09 190.317" stroke="white" stroke-width="0.2"/>
<path d="M262.629 194.73C262.757 196.816 261.025 198.702 260.748 198.681" stroke="white" stroke-width="0.2"/>
<path d="M255.806 193.199C255.889 192.795 255.955 191.882 255.55 191.472" stroke="white" stroke-width="0.2"/>
<path d="M255.252 193.093C255.213 193.43 254.724 194.349 254.294 194.602" stroke="white" stroke-width="0.2"/>
</g>
<defs>
<filter id="filter0_d" x="0" y="105.145" width="193.458" height="252.21" filterUnits="userSpaceOnUse" color-interpolation-filters="sRGB">
<feFlood flood-opacity="0" result="BackgroundImageFix"/>
<feColorMatrix in="SourceAlpha" type="matrix" values="0 0 0 0 0 0 0 0 0 0 0 0 0 0 0 0 0 0 127 0"/>
<feOffset dy="4"/>
<feGaussianBlur stdDeviation="2"/>
<feColorMatrix type="matrix" values="0 0 0 0 0 0 0 0 0 0 0 0 0 0 0 0 0 0 0.1 0"/>
<feBlend mode="normal" in2="BackgroundImageFix" result="effect1_dropShadow"/>
<feBlend mode="normal" in="SourceGraphic" in2="effect1_dropShadow" result="shape"/>
</filter>
<filter id="filter1_d" x="0" y="105.145" width="190.731" height="252.21" filterUnits="userSpaceOnUse" color-interpolation-filters="sRGB">
<feFlood flood-opacity="0" result="BackgroundImageFix"/>
<feColorMatrix in="SourceAlpha" type="matrix" values="0 0 0 0 0 0 0 0 0 0 0 0 0 0 0 0 0 0 127 0"/>
<feOffset dy="4"/>
<feGaussianBlur stdDeviation="2"/>
<feColorMatrix type="matrix" values="0 0 0 0 0 0 0 0 0 0 0 0 0 0 0 0 0 0 0.05 0"/>
<feBlend mode="normal" in2="BackgroundImageFix" result="effect1_dropShadow"/>
<feBlend mode="normal" in="SourceGraphic" in2="effect1_dropShadow" result="shape"/>
</filter>
<filter id="filter2_d" x="68.416" y="201.543" width="51.3013" height="63.9139" filterUnits="userSpaceOnUse" color-interpolation-filters="sRGB">
<feFlood flood-opacity="0" result="BackgroundImageFix"/>
<feColorMatrix in="SourceAlpha" type="matrix" values="0 0 0 0 0 0 0 0 0 0 0 0 0 0 0 0 0 0 127 0"/>
<feOffset dy="4"/>
<feGaussianBlur stdDeviation="2"/>
<feColorMatrix type="matrix" values="0 0 0 0 0 0 0 0 0 0 0 0 0 0 0 0 0 0 0.1 0"/>
<feBlend mode="normal" in2="BackgroundImageFix" result="effect1_dropShadow"/>
<feBlend mode="normal" in="SourceGraphic" in2="effect1_dropShadow" result="shape"/>
</filter>
<filter id="filter3_d" x="331" y="1.14516" width="190.731" height="267.562" filterUnits="userSpaceOnUse" color-interpolation-filters="sRGB">
<feFlood flood-opacity="0" result="BackgroundImageFix"/>
<feColorMatrix in="SourceAlpha" type="matrix" values="0 0 0 0 0 0 0 0 0 0 0 0 0 0 0 0 0 0 127 0"/>
<feOffset dy="4"/>
<feGaussianBlur stdDeviation="2"/>
<feColorMatrix type="matrix" values="0 0 0 0 0 0 0 0 0 0 0 0 0 0 0 0 0 0 0.1 0"/>
<feBlend mode="normal" in2="BackgroundImageFix" result="effect1_dropShadow"/>
<feBlend mode="normal" in="SourceGraphic" in2="effect1_dropShadow" result="shape"/>
</filter>
<filter id="filter4_d" x="331" y="1.14516" width="190.731" height="252.21" filterUnits="userSpaceOnUse" color-interpolation-filters="sRGB">
<feFlood flood-opacity="0" result="BackgroundImageFix"/>
<feColorMatrix in="SourceAlpha" type="matrix" values="0 0 0 0 0 0 0 0 0 0 0 0 0 0 0 0 0 0 127 0"/>
<feOffset dy="4"/>
<feGaussianBlur stdDeviation="2"/>
<feColorMatrix type="matrix" values="0 0 0 0 0 0 0 0 0 0 0 0 0 0 0 0 0 0 0.05 0"/>
<feBlend mode="normal" in2="BackgroundImageFix" result="effect1_dropShadow"/>
<feBlend mode="normal" in="SourceGraphic" in2="effect1_dropShadow" result="shape"/>
</filter>
<filter id="filter5_d" x="399.416" y="96.043" width="51.3013" height="63.9139" filterUnits="userSpaceOnUse" color-interpolation-filters="sRGB">
<feFlood flood-opacity="0" result="BackgroundImageFix"/>
<feColorMatrix in="SourceAlpha" type="matrix" values="0 0 0 0 0 0 0 0 0 0 0 0 0 0 0 0 0 0 127 0"/>
<feOffset dy="4"/>
<feGaussianBlur stdDeviation="2"/>
<feColorMatrix type="matrix" values="0 0 0 0 0 0 0 0 0 0 0 0 0 0 0 0 0 0 0.1 0"/>
<feBlend mode="normal" in2="BackgroundImageFix" result="effect1_dropShadow"/>
<feBlend mode="normal" in="SourceGraphic" in2="effect1_dropShadow" result="shape"/>
</filter>
<filter id="filter6_d" x="228" y="107.145" width="190.731" height="252.21" filterUnits="userSpaceOnUse" color-interpolation-filters="sRGB">
<feFlood flood-opacity="0" result="BackgroundImageFix"/>
<feColorMatrix in="SourceAlpha" type="matrix" values="0 0 0 0 0 0 0 0 0 0 0 0 0 0 0 0 0 0 127 0"/>
<feOffset dy="4"/>
<feGaussianBlur stdDeviation="2"/>
<feColorMatrix type="matrix" values="0 0 0 0 0 0 0 0 0 0 0 0 0 0 0 0 0 0 0.1 0"/>
<feBlend mode="normal" in2="BackgroundImageFix" result="effect1_dropShadow"/>
<feBlend mode="normal" in="SourceGraphic" in2="effect1_dropShadow" result="shape"/>
</filter>
<filter id="filter7_d" x="228" y="107.145" width="190.731" height="252.21" filterUnits="userSpaceOnUse" color-interpolation-filters="sRGB">
<feFlood flood-opacity="0" result="BackgroundImageFix"/>
<feColorMatrix in="SourceAlpha" type="matrix" values="0 0 0 0 0 0 0 0 0 0 0 0 0 0 0 0 0 0 127 0"/>
<feOffset dy="4"/>
<feGaussianBlur stdDeviation="2"/>
<feColorMatrix type="matrix" values="0 0 0 0 0 0 0 0 0 0 0 0 0 0 0 0 0 0 0.05 0"/>
<feBlend mode="normal" in2="BackgroundImageFix" result="effect1_dropShadow"/>
<feBlend mode="normal" in="SourceGraphic" in2="effect1_dropShadow" result="shape"/>
</filter>
<filter id="filter8_d" x="296.416" y="202.043" width="51.3013" height="63.9139" filterUnits="userSpaceOnUse" color-interpolation-filters="sRGB">
<feFlood flood-opacity="0" result="BackgroundImageFix"/>
<feColorMatrix in="SourceAlpha" type="matrix" values="0 0 0 0 0 0 0 0 0 0 0 0 0 0 0 0 0 0 127 0"/>
<feOffset dy="4"/>
<feGaussianBlur stdDeviation="2"/>
<feColorMatrix type="matrix" values="0 0 0 0 0 0 0 0 0 0 0 0 0 0 0 0 0 0 0.1 0"/>
<feBlend mode="normal" in2="BackgroundImageFix" result="effect1_dropShadow"/>
<feBlend mode="normal" in="SourceGraphic" in2="effect1_dropShadow" result="shape"/>
</filter>
<filter id="filter9_d" x="257.753" y="125.719" width="38.0469" height="41.717" filterUnits="userSpaceOnUse" color-interpolation-filters="sRGB">
<feFlood flood-opacity="0" result="BackgroundImageFix"/>
<feColorMatrix in="SourceAlpha" type="matrix" values="0 0 0 0 0 0 0 0 0 0 0 0 0 0 0 0 0 0 127 0"/>
<feOffset dy="4"/>
<feGaussianBlur stdDeviation="2.5"/>
<feColorMatrix type="matrix" values="0 0 0 0 0 0 0 0 0 0 0 0 0 0 0 0 0 0 0.15 0"/>
<feBlend mode="normal" in2="BackgroundImageFix" result="effect1_dropShadow"/>
<feBlend mode="normal" in="SourceGraphic" in2="effect1_dropShadow" result="shape"/>
</filter>
<filter id="filter10_d" x="179.293" y="187.387" width="27.5658" height="30.1593" filterUnits="userSpaceOnUse" color-interpolation-filters="sRGB">
<feFlood flood-opacity="0" result="BackgroundImageFix"/>
<feColorMatrix in="SourceAlpha" type="matrix" values="0 0 0 0 0 0 0 0 0 0 0 0 0 0 0 0 0 0 127 0"/>
<feOffset dy="4"/>
<feGaussianBlur stdDeviation="2.5"/>
<feColorMatrix type="matrix" values="0 0 0 0 0 0 0 0 0 0 0 0 0 0 0 0 0 0 0.15 0"/>
<feBlend mode="normal" in2="BackgroundImageFix" result="effect1_dropShadow"/>
<feBlend mode="normal" in="SourceGraphic" in2="effect1_dropShadow" result="shape"/>
</filter>
<filter id="filter11_d" x="133.361" y="349.718" width="42.2014" height="34.4783" filterUnits="userSpaceOnUse" color-interpolation-filters="sRGB">
<feFlood flood-opacity="0" result="BackgroundImageFix"/>
<feColorMatrix in="SourceAlpha" type="matrix" values="0 0 0 0 0 0 0 0 0 0 0 0 0 0 0 0 0 0 127 0"/>
<feOffset dy="4"/>
<feGaussianBlur stdDeviation="2.5"/>
<feColorMatrix type="matrix" values="0 0 0 0 0 0 0 0 0 0 0 0 0 0 0 0 0 0 0.15 0"/>
<feBlend mode="normal" in2="BackgroundImageFix" result="effect1_dropShadow"/>
<feBlend mode="normal" in="SourceGraphic" in2="effect1_dropShadow" result="shape"/>
</filter>
<filter id="filter12_d" x="315.52" y="297.134" width="38.0469" height="41.717" filterUnits="userSpaceOnUse" color-interpolation-filters="sRGB">
<feFlood flood-opacity="0" result="BackgroundImageFix"/>
<feColorMatrix in="SourceAlpha" type="matrix" values="0 0 0 0 0 0 0 0 0 0 0 0 0 0 0 0 0 0 127 0"/>
<feOffset dy="4"/>
<feGaussianBlur stdDeviation="2.5"/>
<feColorMatrix type="matrix" values="0 0 0 0 0 0 0 0 0 0 0 0 0 0 0 0 0 0 0.15 0"/>
<feBlend mode="normal" in2="BackgroundImageFix" result="effect1_dropShadow"/>
<feBlend mode="normal" in="SourceGraphic" in2="effect1_dropShadow" result="shape"/>
</filter>
<filter id="filter13_d" x="319.031" y="132.836" width="25.3047" height="27.4728" filterUnits="userSpaceOnUse" color-interpolation-filters="sRGB">
<feFlood flood-opacity="0" result="BackgroundImageFix"/>
<feColorMatrix in="SourceAlpha" type="matrix" values="0 0 0 0 0 0 0 0 0 0 0 0 0 0 0 0 0 0 127 0"/>
<feOffset dy="4"/>
<feGaussianBlur stdDeviation="2.5"/>
<feColorMatrix type="matrix" values="0 0 0 0 0 0 0 0 0 0 0 0 0 0 0 0 0 0 0.15 0"/>
<feBlend mode="normal" in2="BackgroundImageFix" result="effect1_dropShadow"/>
<feBlend mode="normal" in="SourceGraphic" in2="effect1_dropShadow" result="shape"/>
</filter>
<filter id="filter14_d" x="242.784" y="182.24" width="33.4438" height="29.1658" filterUnits="userSpaceOnUse" color-interpolation-filters="sRGB">
<feFlood flood-opacity="0" result="BackgroundImageFix"/>
<feColorMatrix in="SourceAlpha" type="matrix" values="0 0 0 0 0 0 0 0 0 0 0 0 0 0 0 0 0 0 127 0"/>
<feOffset dy="4"/>
<feGaussianBlur stdDeviation="2.5"/>
<feColorMatrix type="matrix" values="0 0 0 0 0 0 0 0 0 0 0 0 0 0 0 0 0 0 0.15 0"/>
<feBlend mode="normal" in2="BackgroundImageFix" result="effect1_dropShadow"/>
<feBlend mode="normal" in="SourceGraphic" in2="effect1_dropShadow" result="shape"/>
</filter>
</defs>
</svg>
