<svg width="423" height="255" viewBox="0 0 423 255" fill="none" xmlns="http://www.w3.org/2000/svg">
<circle cx="207.5" cy="127.5" r="127.5" fill="#05C46B"/>
<g filter="url(#filter0_d)">
<rect x="19" y="76" width="181" height="144" rx="4" fill="white"/>
</g>
<path d="M40.336 93.744V99H38.692V94.344H36.94V99H35.296V94.344H33.544V99H31.9V92.94H33.256L33.544 93.432L34.396 92.94H35.548L36.664 93.588L37.792 92.94H38.944L40.336 93.744ZM42.5985 101.4L43.7025 98.58L41.4105 93H43.0545L44.5305 96.528H44.5545L45.9465 93H47.5905L44.2185 101.4H42.5985ZM52.6775 90.6L55.6775 99H54.0215L53.3855 97.188H50.2415L49.6055 99H47.9495L50.9495 90.6H52.6775ZM51.8015 92.712L50.7455 95.748H52.8695L51.8255 92.712H51.8015ZM60.4755 95.208H60.4515L59.3955 99H57.6915L56.1555 93H57.6795L58.6155 96.828H58.6395L59.7075 93H61.2195L62.2875 96.828H62.3115L63.2475 93H64.7715L63.2355 99H61.5315L60.4755 95.208ZM70.9464 97.596V99H67.3584L65.9664 98.196V93.744L67.3584 92.94H69.5544L70.9464 93.744V96.612H67.6104V97.596H70.9464ZM67.6104 94.344V95.376H69.3024V94.344H67.6104ZM77.5036 96.048V98.196L76.1116 99H72.7516V97.596H75.8596V96.672H74.1436L72.7516 95.868V93.804L74.1436 93H77.3836V94.404H74.3956V95.244H76.1116L77.5036 96.048ZM84.6423 98.256L83.2503 99.06H80.6943L79.3023 98.256V93.744L80.6943 92.94H83.2503L84.6423 93.744V98.256ZM80.9463 94.344V97.656H82.9983V94.344H80.9463ZM94.8751 93.744V99H93.2311V94.344H91.4791V99H89.8351V94.344H88.0831V99H86.4391V92.94H87.7951L88.0831 93.432L88.9351 92.94H90.0871L91.2031 93.588L92.3311 92.94H93.4831L94.8751 93.744ZM101.65 97.596V99H98.0615L96.6695 98.196V93.744L98.0615 92.94H100.258L101.65 93.744V96.612H98.3135V97.596H101.65ZM98.3135 94.344V95.376H100.006V94.344H98.3135ZM113.775 90.6L111.639 99H109.839L108.327 93.324H108.303L106.791 99H104.991L102.855 90.6H104.487L105.903 96.36H105.927L107.463 90.6H109.167L110.703 96.336H110.727L112.143 90.6H113.775ZM119.954 97.596V99H116.366L114.974 98.196V93.744L116.366 92.94H118.562L119.954 93.744V96.612H116.618V97.596H119.954ZM116.618 94.344V95.376H118.31V94.344H116.618ZM124.255 92.94H125.827L127.219 93.744V98.256L125.827 99.06H124.255L123.403 98.568L122.551 99.06H121.759V90.24H123.403V93.432L124.255 92.94ZM123.403 94.344V97.656H125.575V94.344H123.403ZM133.777 96.048V98.196L132.385 99H129.025V97.596H132.133V96.672H130.417L129.025 95.868V93.804L130.417 93H133.657V94.404H130.669V95.244H132.385L133.777 96.048ZM137.22 93V99H135.576V93H137.22ZM135.516 91.884V90.24H137.28V91.884H135.516ZM138.541 94.404V93H139.645V91.992L141.289 91.044V93H142.609V94.404H141.289V97.596H142.609V99H141.037L139.645 98.196V94.404H138.541ZM149.146 97.596V99H145.558L144.166 98.196V93.744L145.558 92.94H147.754L149.146 93.744V96.612H145.81V97.596H149.146ZM145.81 94.344V95.376H147.502V94.344H145.81Z" fill="#00594E"/>
<path d="M33.205 131.78V132.986H35.086L36.13 133.589V136.442L35.086 137.045H32.809L31.765 136.442V135.155H33.025V135.965H34.87V134.066H31.945V130.7H36.04V131.78H33.205ZM42.2075 136.442L41.1635 137.045H38.7065L37.6625 136.442V131.258L38.7065 130.655H41.1635L42.2075 131.258V136.442ZM38.9225 131.735V135.965H40.9475V131.735H38.9225ZM47.1107 137.045H44.7797L43.7357 136.442V135.155H44.9957V135.965H46.8947V134.282H45.3197V133.202H46.8947V131.735H44.9957V132.545H43.7357V131.258L44.7797 130.655H47.1107L48.1547 131.258V133.283L47.3717 133.733V133.751L48.1547 134.201V136.442L47.1107 137.045Z" fill="#FF0000"/>
<path d="M31.45 108.55V108.045L32.4 107.5H32.8V110.55H33.65V111H31.45V110.55H32.3V108.06L31.45 108.55ZM34.8016 110.55H36.5516V111H34.3016V109.43L34.8816 109.095H36.0516V107.95H34.8016V108.4H34.3016V107.835L34.8816 107.5H35.9716L36.5516 107.835V109.21L35.9716 109.545H34.8016V110.55ZM37.151 111.1L38.331 107.4H38.781L37.601 111.1H37.151ZM41.8047 110.69L41.2247 111.025H39.9597L39.3797 110.69V107.81L39.9597 107.475H41.2247L41.8047 107.81V110.69ZM39.8797 107.925V110.575H41.3047V107.925H39.8797ZM43.3049 107.95V108.845H44.4499L45.0299 109.18V110.69L44.4499 111.025H43.2849L42.7049 110.69V110.125H43.2049V110.575H44.5299V109.295H42.8049V107.5H44.9799V107.95H43.3049ZM45.6275 111.1L46.8075 107.4H47.2575L46.0775 111.1H45.6275ZM48.3563 110.55H50.1063V111H47.8563V109.43L48.4363 109.095H49.6063V107.95H48.3563V108.4H47.8563V107.835L48.4363 107.5H49.5263L50.1063 107.835V109.21L49.5263 109.545H48.3563V110.55ZM53.4307 110.69L52.8507 111.025H51.5857L51.0057 110.69V107.81L51.5857 107.475H52.8507L53.4307 107.81V110.69ZM51.5057 107.925V110.575H52.9307V107.925H51.5057ZM54.8309 110.55H56.5809V111H54.3309V109.43L54.9109 109.095H56.0809V107.95H54.8309V108.4H54.3309V107.835L54.9109 107.5H56.0009L56.5809 107.835V109.21L56.0009 109.545H54.8309V110.55ZM57.4803 108.55V108.045L58.4303 107.5H58.8303V110.55H59.6803V111H57.4803V110.55H58.3303V108.06L57.4803 108.55ZM62.0307 107.7V111.65H62.6957V112H62.2107L61.6307 111.665V107.685L62.2107 107.35H62.6957V107.7H62.0307ZM63.4471 108.55V108.045L64.3971 107.5H64.7971V110.55H65.6471V111H63.4471V110.55H64.2971V108.06L63.4471 108.55ZM68.0736 110.575V109.345L67.7186 109.55H66.8786L66.2986 109.215V107.81L66.8786 107.475H67.9936L68.5736 107.81V110.69L67.9936 111.025H66.8786L66.2986 110.69V110.125H66.7986V110.575H68.0736ZM68.0736 109.1V107.925H66.7986V109.1H68.0736ZM69.5225 111V110.25H70.2725V111H69.5225ZM69.5225 109.25V108.5H70.2725V109.25H69.5225ZM71.7205 110.55H73.4705V111H71.2205V109.43L71.8005 109.095H72.9705V107.95H71.7205V108.4H71.2205V107.835L71.8005 107.5H72.8905L73.4705 107.835V109.21L72.8905 109.545H71.7205V110.55ZM76.1449 111.025H74.9499L74.3699 110.69V110.125H74.8699V110.575H76.2249V109.415H75.1999V108.965H76.2249V107.925H74.8699V108.375H74.3699V107.81L74.9499 107.475H76.1449L76.7249 107.81V108.935L76.2899 109.185V109.195L76.7249 109.445V110.69L76.1449 111.025ZM78.1418 111.65V107.7H77.4768V107.35H77.9618L78.5418 107.685V111.665L77.9618 112H77.4768V111.65H78.1418Z" fill="black" fill-opacity="0.64"/>
<path d="M31.595 148.515V146.534L32.407 146.065H34.178L34.99 146.534V147.465H34.01V146.905H32.575V148.074H34.178L34.99 148.543V150.566L34.178 151.035H32.337L31.525 150.566V149.635H32.505V150.195H34.01V148.984H32.407L31.595 148.515ZM39.0169 150.181V151H36.9239L36.1119 150.531V147.934L36.9239 147.465H38.2049L39.0169 147.934V149.607H37.0709V150.181H39.0169ZM37.0709 148.284V148.886H38.0579V148.284H37.0709ZM42.2329 148.319H41.0289V151H40.0699V147.5H40.8609L41.0289 147.787L41.5259 147.5H42.2329V148.319ZM43.4732 147.5L44.2782 149.796H44.2922L45.1042 147.5H46.0632L44.7682 151H43.8092L42.5142 147.5H43.4732ZM47.6529 147.5V151H46.6939V147.5H47.6529ZM46.6589 146.849V145.89H47.6879V146.849H46.6589ZM49.6627 148.319V150.181H51.3987V151H49.5157L48.7037 150.531V147.969L49.5157 147.5H51.3987V148.319H49.6627ZM55.2113 150.181V151H53.1183L52.3063 150.531V147.934L53.1183 147.465H54.3993L55.2113 147.934V149.607H53.2653V150.181H55.2113ZM53.2653 148.284V148.886H54.2523V148.284H53.2653ZM60.9876 146.1H61.9676V150.566L61.1556 151.035H58.9646L58.1526 150.566V146.1H59.1326V150.125H60.9876V146.1ZM66.2015 147.934V151H65.2425V148.284H64.0455V151H63.0865V147.465H63.8775L64.0455 147.752L64.5425 147.465H65.3895L66.2015 147.934ZM68.0686 149.621V150.23H69.0556V149.621H68.0686ZM67.9216 151.035L67.1096 150.566V149.355L67.9216 148.886H69.0556V148.319H67.4596V147.5H69.2026L70.0146 147.969V151.035H69.5526L69.0556 150.748L68.5586 151.035H67.9216ZM71.6031 147.5L72.4081 149.796H72.4221L73.2341 147.5H74.1931L72.8981 151H71.9391L70.6441 147.5H71.6031ZM75.6428 149.621V150.23H76.6298V149.621H75.6428ZM75.4958 151.035L74.6838 150.566V149.355L75.4958 148.886H76.6298V148.319H75.0338V147.5H76.7768L77.5888 147.969V151.035H77.1268L76.6298 150.748L76.1328 151.035H75.4958ZM79.5973 147.5V151H78.6383V147.5H79.5973ZM78.6033 146.849V145.89H79.6323V146.849H78.6033ZM81.46 151L80.648 150.531V145.89H81.607V150.181H82.307V151H81.46ZM83.7571 149.621V150.23H84.7441V149.621H83.7571ZM83.6101 151.035L82.7981 150.566V149.355L83.6101 148.886H84.7441V148.319H83.1481V147.5H84.8911L85.7031 147.969V151.035H85.2411L84.7441 150.748L84.2471 151.035H83.6101ZM88.2085 147.465H89.1255L89.9375 147.934V150.566L89.1255 151.035H88.2085L87.7115 150.748L87.2145 151.035H86.7525V145.89H87.7115V147.752L88.2085 147.465ZM87.7115 148.284V150.216H88.9785V148.284H87.7115ZM91.8028 151L90.9908 150.531V145.89H91.9498V150.181H92.6498V151H91.8028ZM96.1859 150.181V151H94.0929L93.2809 150.531V147.934L94.0929 147.465H95.3739L96.1859 147.934V149.607H94.2399V150.181H96.1859ZM94.2399 148.284V148.886H95.2269V148.284H94.2399ZM97.3789 151V149.67H98.7089V151H97.3789ZM97.3789 148.69V147.36H98.7089V148.69H97.3789ZM103.669 146.94V151H102.689V146.94H101.366V146.1H104.992V146.94H103.669ZM106.654 151H105.695V145.89H106.654V147.752L107.151 147.465H108.068L108.88 147.934V151H107.921V148.284H106.654V151ZM112.838 150.181V151H110.745L109.933 150.531V147.934L110.745 147.465H112.026L112.838 147.934V149.607H110.892V150.181H112.838ZM110.892 148.284V148.886H111.879V148.284H110.892ZM118.482 149.278V150.531L117.67 151H115.71V150.181H117.523V149.642H116.522L115.71 149.173V147.969L116.522 147.5H118.412V148.319H116.669V148.809H117.67L118.482 149.278ZM122.436 150.181V151H120.343L119.531 150.531V147.934L120.343 147.465H121.624L122.436 147.934V149.607H120.49V150.181H122.436ZM120.49 148.284V148.886H121.477V148.284H120.49ZM125.652 148.319H124.448V151H123.489V147.5H124.28L124.448 147.787L124.945 147.5H125.652V148.319ZM126.892 147.5L127.697 149.796H127.711L128.523 147.5H129.482L128.187 151H127.228L125.933 147.5H126.892ZM133.018 150.181V151H130.925L130.113 150.531V147.934L130.925 147.465H132.206L133.018 147.934V149.607H131.072V150.181H133.018ZM131.072 148.284V148.886H132.059V148.284H131.072ZM136.234 148.319H135.03V151H134.071V147.5H134.862L135.03 147.787L135.527 147.5H136.234V148.319ZM139.713 148.319V150.181H141.449V151H139.566L138.754 150.531V147.969L139.566 147.5H141.449V148.319H139.713ZM143.175 149.621V150.23H144.162V149.621H143.175ZM143.028 151.035L142.216 150.566V149.355L143.028 148.886H144.162V148.319H142.566V147.5H144.309L145.121 147.969V151.035H144.659L144.162 150.748L143.665 151.035H143.028ZM149.286 147.934V151H148.327V148.284H147.13V151H146.171V147.465H146.962L147.13 147.752L147.627 147.465H148.474L149.286 147.934ZM153.449 147.934V151H152.49V148.284H151.293V151H150.334V147.465H151.125L151.293 147.752L151.79 147.465H152.637L153.449 147.934ZM157.612 150.566L156.8 151.035H155.309L154.497 150.566V147.934L155.309 147.465H156.8L157.612 147.934V150.566ZM155.456 148.284V150.216H156.653V148.284H155.456ZM158.38 148.319V147.5H159.024V146.912L159.983 146.359V147.5H160.753V148.319H159.983V150.181H160.753V151H159.836L159.024 150.531V148.319H158.38ZM164.438 151H163.479V145.89H164.438V147.752L164.935 147.465H165.852L166.664 147.934V151H165.705V148.284H164.438V151ZM168.536 149.621V150.23H169.523V149.621H168.536ZM168.389 151.035L167.577 150.566V149.355L168.389 148.886H169.523V148.319H167.927V147.5H169.67L170.482 147.969V151.035H170.02L169.523 150.748L169.026 151.035H168.389ZM174.647 147.934V151H173.688V148.284H172.491V151H171.532V147.465H172.323L172.491 147.752L172.988 147.465H173.835L174.647 147.934ZM176.507 147.465H177.424L177.921 147.752V145.89H178.88V151.035H178.089L177.921 150.748L177.424 151.035H176.507L175.695 150.566V147.934L176.507 147.465ZM177.921 150.216V148.284H176.654V150.216H177.921ZM180.745 151L179.933 150.531V145.89H180.892V150.181H181.592V151H180.745ZM185.128 150.181V151H183.035L182.223 150.531V147.934L183.035 147.465H184.316L185.128 147.934V149.607H183.182V150.181H185.128ZM183.182 148.284V148.886H184.169V148.284H183.182ZM31.245 158.319V157.5H31.889V156.912L32.848 156.359V157.5H33.618V158.319H32.848V160.181H33.618V161H32.701L31.889 160.531V158.319H31.245ZM35.485 161H34.526V155.89H35.485V157.752L35.982 157.465H36.899L37.711 157.934V161H36.752V158.284H35.485V161ZM41.6693 160.181V161H39.5763L38.7643 160.531V157.934L39.5763 157.465H40.8573L41.6693 157.934V159.607H39.7233V160.181H41.6693ZM39.7233 158.284V158.886H40.7103V158.284H39.7233ZM46.7036 158.319H45.4996V161H44.5406V157.5H45.3316L45.4996 157.787L45.9966 157.5H46.7036V158.319ZM50.3099 160.181V161H48.2169L47.4049 160.531V157.934L48.2169 157.465H49.4979L50.3099 157.934V159.607H48.3639V160.181H50.3099ZM48.3639 158.284V158.886H49.3509V158.284H48.3639ZM53.0919 161.035H52.1749L51.3629 160.566V157.934L52.1749 157.465H53.0919L53.5889 157.752L54.0859 157.465H54.5479V162.4H53.5889V160.748L53.0919 161.035ZM53.5889 160.216V158.284H52.3219V160.216H53.5889ZM55.6012 160.566V157.5H56.5602V160.216H57.7572V157.5H58.7162V161.035H57.9252L57.7572 160.748L57.2602 161.035H56.4132L55.6012 160.566ZM62.6693 160.181V161H60.5763L59.7643 160.531V157.934L60.5763 157.465H61.8573L62.6693 157.934V159.607H60.7233V160.181H62.6693ZM60.7233 158.284V158.886H61.7103V158.284H60.7233ZM66.4943 159.278V160.531L65.6823 161H63.7223V160.181H65.5353V159.642H64.5343L63.7223 159.173V157.969L64.5343 157.5H66.4243V158.319H64.6813V158.809H65.6823L66.4943 159.278ZM67.2636 158.319V157.5H67.9076V156.912L68.8666 156.359V157.5H69.6366V158.319H68.8666V160.181H69.6366V161H68.7196L67.9076 160.531V158.319H67.2636ZM73.3429 156.59V161.7H74.1339V162.4H73.2449L72.4329 161.931V156.359L73.2449 155.89H74.1339V156.59H73.3429ZM76.4986 157.465H77.4156L78.2276 157.934V160.566L77.4156 161.035H76.4986L76.0016 160.748L75.5046 161.035H75.0426V155.89H76.0016V157.752L76.4986 157.465ZM76.0016 158.284V160.216H77.2686V158.284H76.0016ZM82.1859 160.181V161H80.0929L79.2809 160.531V157.934L80.0929 157.465H81.3739L82.1859 157.934V159.607H80.2399V160.181H82.1859ZM80.2399 158.284V158.886H81.2269V158.284H80.2399ZM84.1979 158.319V160.181H85.9339V161H84.0509L83.2389 160.531V157.969L84.0509 157.5H85.9339V158.319H84.1979ZM87.6604 159.621V160.23H88.6474V159.621H87.6604ZM87.5134 161.035L86.7014 160.566V159.355L87.5134 158.886H88.6474V158.319H87.0514V157.5H88.7944L89.6064 157.969V161.035H89.1444L88.6474 160.748L88.1504 161.035H87.5134ZM90.6559 160.566V157.5H91.6149V160.216H92.8119V157.5H93.7709V161.035H92.9799L92.8119 160.748L92.3149 161.035H91.4679L90.6559 160.566ZM97.5909 159.278V160.531L96.7789 161H94.8189V160.181H96.6319V159.642H95.6309L94.8189 159.173V157.969L95.6309 157.5H97.5209V158.319H95.7779V158.809H96.7789L97.5909 159.278ZM101.545 160.181V161H99.4522L98.6402 160.531V157.934L99.4522 157.465H100.733L101.545 157.934V159.607H99.5992V160.181H101.545ZM99.5992 158.284V158.886H100.586V158.284H99.5992ZM105.376 157.5V161H104.417V157.5H105.376ZM104.382 156.849V155.89H105.411V156.849H104.382ZM106.146 158.319V157.5H106.79V156.912L107.749 156.359V157.5H108.519V158.319H107.749V160.181H108.519V161H107.602L106.79 160.531V158.319H106.146ZM112.205 157.5V161H111.246V157.5H112.205ZM111.211 156.849V155.89H112.24V156.849H111.211ZM116.027 159.278V160.531L115.215 161H113.255V160.181H115.068V159.642H114.067L113.255 159.173V157.969L114.067 157.5H115.957V158.319H114.214V158.809H115.215L116.027 159.278ZM122.01 160.566L121.198 161.035H119.707L118.895 160.566V157.934L119.707 157.465H121.198L122.01 157.934V160.566ZM119.854 158.284V160.216H121.051V158.284H119.854ZM123.597 157.5L124.402 159.796H124.416L125.228 157.5H126.187L124.892 161H123.933L122.638 157.5H123.597ZM129.723 160.181V161H127.63L126.818 160.531V157.934L127.63 157.465H128.911L129.723 157.934V159.607H127.777V160.181H129.723ZM127.777 158.284V158.886H128.764V158.284H127.777ZM132.939 158.319H131.735V161H130.776V157.5H131.567L131.735 157.787L132.232 157.5H132.939V158.319ZM134.452 161L133.64 160.531V155.89H134.599V160.181H135.299V161H134.452ZM139.045 160.566L138.233 161.035H136.742L135.93 160.566V157.934L136.742 157.465H138.233L139.045 157.934V160.566ZM136.889 158.284V160.216H138.086V158.284H136.889ZM140.912 159.621V160.23H141.899V159.621H140.912ZM140.765 161.035L139.953 160.566V159.355L140.765 158.886H141.899V158.319H140.303V157.5H142.046L142.858 157.969V161.035H142.396L141.899 160.748L141.402 161.035H140.765ZM144.72 157.465H145.637L146.134 157.752V155.89H147.093V161.035H146.302L146.134 160.748L145.637 161.035H144.72L143.908 160.566V157.934L144.72 157.465ZM146.134 160.216V158.284H144.867V160.216H146.134ZM151.051 160.181V161H148.958L148.146 160.531V157.934L148.958 157.465H150.239L151.051 157.934V159.607H149.105V160.181H151.051ZM149.105 158.284V158.886H150.092V158.284H149.105ZM152.916 157.465H153.833L154.33 157.752V155.89H155.289V161.035H154.498L154.33 160.748L153.833 161.035H152.916L152.104 160.566V157.934L152.916 157.465ZM154.33 160.216V158.284H153.063V160.216H154.33ZM161.276 160.566L160.464 161.035H158.973L158.161 160.566V157.934L158.973 157.465H160.464L161.276 157.934V160.566ZM159.12 158.284V160.216H160.317V158.284H159.12ZM164.487 158.319H163.283V161H162.324V157.5H163.115L163.283 157.787L163.78 157.5H164.487V158.319ZM167.818 157.465H168.735L169.232 157.752V155.89H170.191V161.035H169.4L169.232 160.748L168.735 161.035H167.818L167.006 160.566V157.934L167.818 157.465ZM169.232 160.216V158.284H167.965V160.216H169.232ZM174.36 160.566L173.548 161.035H172.057L171.245 160.566V157.934L172.057 157.465H173.548L174.36 157.934V160.566ZM172.204 158.284V160.216H173.401V158.284H172.204ZM177.578 158.788H177.564L176.948 161H175.954L175.058 157.5H175.947L176.493 159.733H176.507L177.13 157.5H178.012L178.635 159.733H178.649L179.195 157.5H180.084L179.188 161H178.194L177.578 158.788ZM183.896 157.934V161H182.937V158.284H181.74V161H180.781V157.465H181.572L181.74 157.752L182.237 157.465H183.084L183.896 157.934ZM31.245 168.319V167.5H31.889V166.359L32.701 165.89H33.618V166.709H32.848V167.5H33.618V168.319H32.848V171H31.889V168.319H31.245ZM37.5043 170.566L36.6923 171.035H35.2013L34.3893 170.566V167.934L35.2013 167.465H36.6923L37.5043 167.934V170.566ZM35.3483 168.284V170.216H36.5453V168.284H35.3483ZM40.7153 168.319H39.5113V171H38.5523V167.5H39.3433L39.5113 167.787L40.0083 167.5H40.7153V168.319ZM48.156 167.934V171H47.197V168.284H46.175V171H45.216V168.284H44.194V171H43.235V167.465H44.026L44.194 167.752L44.691 167.465H45.363L46.014 167.843L46.672 167.465H47.344L48.156 167.934ZM50.0217 169.621V170.23H51.0087V169.621H50.0217ZM49.8747 171.035L49.0627 170.566V169.355L49.8747 168.886H51.0087V168.319H49.4127V167.5H51.1557L51.9677 167.969V171.035H51.5057L51.0087 170.748L50.5117 171.035H49.8747ZM53.9762 167.5V171H53.0172V167.5H53.9762ZM52.9822 166.849V165.89H54.0112V166.849H52.9822ZM58.142 167.934V171H57.183V168.284H55.986V171H55.027V167.465H55.818L55.986 167.752L56.483 167.465H57.33L58.142 167.934ZM58.91 168.319V167.5H59.554V166.912L60.513 166.359V167.5H61.283V168.319H60.513V170.181H61.283V171H60.366L59.554 170.531V168.319H58.91ZM65.096 170.181V171H63.003L62.191 170.531V167.934L63.003 167.465H64.284L65.096 167.934V169.607H63.15V170.181H65.096ZM63.15 168.284V168.886H64.137V168.284H63.15ZM69.264 167.934V171H68.305V168.284H67.108V171H66.149V167.465H66.94L67.108 167.752L67.605 167.465H68.452L69.264 167.934ZM71.1311 169.621V170.23H72.1181V169.621H71.1311ZM70.9841 171.035L70.1721 170.566V169.355L70.9841 168.886H72.1181V168.319H70.5221V167.5H72.2651L73.0771 167.969V171.035H72.6151L72.1181 170.748L71.6211 171.035H70.9841ZM77.2416 167.934V171H76.2826V168.284H75.0856V171H74.1266V167.465H74.9176L75.0856 167.752L75.5826 167.465H76.4296L77.2416 167.934ZM79.2486 168.319V170.181H80.9846V171H79.1016L78.2896 170.531V167.969L79.1016 167.5H80.9846V168.319H79.2486ZM84.7972 170.181V171H82.7042L81.8922 170.531V167.934L82.7042 167.465H83.9852L84.7972 167.934V169.607H82.8512V170.181H84.7972ZM82.8512 168.284V168.886H83.8382V168.284H82.8512ZM86.5012 171.7V166.59H85.7102V165.89H86.5992L87.4112 166.359V171.931L86.5992 172.4H85.7102V171.7H86.5012ZM88.6699 171V169.67H89.9999V171H88.6699ZM94.8274 169.285V168.445H96.6124V170.566L95.8004 171.035H93.8194L93.0074 170.566V166.534L93.8194 166.065H95.8004L96.6124 166.534V167.535H95.6324V166.905H93.9874V170.195H95.6324V169.285H94.8274ZM100.568 170.181V171H98.4747L97.6627 170.531V167.934L98.4747 167.465H99.7557L100.568 167.934V169.607H98.6217V170.181H100.568ZM98.6217 168.284V168.886H99.6087V168.284H98.6217ZM104.736 167.934V171H103.777V168.284H102.58V171H101.621V167.465H102.412L102.58 167.752L103.077 167.465H103.924L104.736 167.934ZM108.689 170.181V171H106.596L105.784 170.531V167.934L106.596 167.465H107.877L108.689 167.934V169.607H106.743V170.181H108.689ZM106.743 168.284V168.886H107.73V168.284H106.743ZM111.905 168.319H110.701V171H109.742V167.5H110.533L110.701 167.787L111.198 167.5H111.905V168.319ZM113.425 169.621V170.23H114.412V169.621H113.425ZM113.278 171.035L112.466 170.566V169.355L113.278 168.886H114.412V168.319H112.816V167.5H114.559L115.371 167.969V171.035H114.909L114.412 170.748L113.915 171.035H113.278ZM117.233 171L116.421 170.531V165.89H117.38V170.181H118.08V171H117.233ZM119.523 171L118.711 170.531V165.89H119.67V170.181H120.37V171H119.523ZM121.274 172.4L121.918 170.755L120.581 167.5H121.54L122.401 169.558H122.415L123.227 167.5H124.186L122.219 172.4H121.274ZM124.955 172.4V169.67H126.285V170.244L125.529 172.4H124.955ZM129.013 168.319V167.5H129.657V166.912L130.616 166.359V167.5H131.386V168.319H130.616V170.181H131.386V171H130.469L129.657 170.531V168.319H129.013ZM133.253 171H132.294V165.89H133.253V167.752L133.75 167.465H134.667L135.479 167.934V171H134.52V168.284H133.253V171ZM137.491 167.5V171H136.532V167.5H137.491ZM136.497 166.849V165.89H137.526V166.849H136.497ZM141.314 169.278V170.531L140.502 171H138.542V170.181H140.355V169.642H139.354L138.542 169.173V167.969L139.354 167.5H141.244V168.319H139.501V168.809H140.502L141.314 169.278ZM145.14 167.5V171H144.181V167.5H145.14ZM144.146 166.849V165.89H145.175V166.849H144.146ZM148.963 169.278V170.531L148.151 171H146.191V170.181H148.004V169.642H147.003L146.191 169.173V167.969L147.003 167.5H148.893V168.319H147.15V168.809H148.151L148.963 169.278ZM152.65 169.621V170.23H153.637V169.621H152.65ZM152.503 171.035L151.691 170.566V169.355L152.503 168.886H153.637V168.319H152.041V167.5H153.784L154.596 167.969V171.035H154.134L153.637 170.748L153.14 171.035H152.503ZM31.245 178.319V177.5H31.889V176.912L32.848 176.359V177.5H33.618V178.319H32.848V180.181H33.618V181H32.701L31.889 180.531V178.319H31.245ZM37.431 180.181V181H35.338L34.526 180.531V177.934L35.338 177.465H36.619L37.431 177.934V179.607H35.485V180.181H37.431ZM35.485 178.284V178.886H36.472V178.284H35.485ZM43.405 177.934V181H42.446V178.284H41.424V181H40.465V178.284H39.443V181H38.484V177.465H39.275L39.443 177.752L39.94 177.465H40.612L41.263 177.843L41.921 177.465H42.593L43.405 177.934ZM46.8248 181.035H45.9078L45.4108 180.748V182.4H44.4518V177.465H45.2428L45.4108 177.752L45.9078 177.465H46.8248L47.6368 177.934V180.566L46.8248 181.035ZM45.4108 178.284V180.216H46.6778V178.284H45.4108ZM51.805 180.566L50.993 181.035H49.502L48.69 180.566V177.934L49.502 177.465H50.993L51.805 177.934V180.566ZM49.649 178.284V180.216H50.846V178.284H49.649ZM55.0161 178.319H53.8121V181H52.8531V177.5H53.6441L53.8121 177.787L54.3091 177.5H55.0161V178.319ZM56.5364 179.621V180.23H57.5234V179.621H56.5364ZM56.3894 181.035L55.5774 180.566V179.355L56.3894 178.886H57.5234V178.319H55.9274V177.5H57.6704L58.4824 177.969V181.035H58.0204L57.5234 180.748L57.0264 181.035H56.3894ZM61.6948 178.319H60.4908V181H59.5318V177.5H60.3228L60.4908 177.787L60.9878 177.5H61.6948V178.319ZM62.6691 182.4L63.3131 180.755L61.9761 177.5H62.9351L63.7961 179.558H63.8101L64.6221 177.5H65.5811L63.6141 182.4H62.6691ZM70.8009 179.278V180.531L69.9889 181H68.0289V180.181H69.8419V179.642H68.8409L68.0289 179.173V177.969L68.8409 177.5H70.7309V178.319H68.9879V178.809H69.9889L70.8009 179.278ZM71.5702 178.319V177.5H72.2142V176.912L73.1732 176.359V177.5H73.9432V178.319H73.1732V180.181H73.9432V181H73.0262L72.2142 180.531V178.319H71.5702ZM75.6702 179.621V180.23H76.6572V179.621H75.6702ZM75.5232 181.035L74.7112 180.566V179.355L75.5232 178.886H76.6572V178.319H75.0612V177.5H76.8042L77.6162 177.969V181.035H77.1542L76.6572 180.748L76.1602 181.035H75.5232ZM78.3856 178.319V177.5H79.0296V176.912L79.9886 176.359V177.5H80.7586V178.319H79.9886V180.181H80.7586V181H79.8416L79.0296 180.531V178.319H78.3856ZM84.5716 180.181V181H82.4786L81.6666 180.531V177.934L82.4786 177.465H83.7596L84.5716 177.934V179.607H82.6256V180.181H84.5716ZM82.6256 178.284V178.886H83.6126V178.284H82.6256ZM85.7646 181V179.67H87.0946V181H85.7646Z" fill="black" fill-opacity="0.69"/>
<g filter="url(#filter1_d)">
<rect x="215" y="32" width="181" height="150" rx="4" fill="white"/>
</g>
<path d="M236.336 49.744V55H234.692V50.344H232.94V55H231.296V50.344H229.544V55H227.9V48.94H229.256L229.544 49.432L230.396 48.94H231.548L232.664 49.588L233.792 48.94H234.944L236.336 49.744ZM238.598 57.4L239.702 54.58L237.41 49H239.054L240.53 52.528H240.554L241.946 49H243.59L240.218 57.4H238.598ZM248.678 46.6L251.678 55H250.022L249.386 53.188H246.242L245.606 55H243.95L246.95 46.6H248.678ZM247.802 48.712L246.746 51.748H248.87L247.826 48.712H247.802ZM256.475 51.208H256.451L255.395 55H253.691L252.155 49H253.679L254.615 52.828H254.639L255.707 49H257.219L258.287 52.828H258.311L259.247 49H260.771L259.235 55H257.531L256.475 51.208ZM266.946 53.596V55H263.358L261.966 54.196V49.744L263.358 48.94H265.554L266.946 49.744V52.612H263.61V53.596H266.946ZM263.61 50.344V51.376H265.302V50.344H263.61ZM273.504 52.048V54.196L272.112 55H268.752V53.596H271.86V52.672H270.144L268.752 51.868V49.804L270.144 49H273.384V50.404H270.396V51.244H272.112L273.504 52.048ZM280.642 54.256L279.25 55.06H276.694L275.302 54.256V49.744L276.694 48.94H279.25L280.642 49.744V54.256ZM276.946 50.344V53.656H278.998V50.344H276.946ZM290.875 49.744V55H289.231V50.344H287.479V55H285.835V50.344H284.083V55H282.439V48.94H283.795L284.083 49.432L284.935 48.94H286.087L287.203 49.588L288.331 48.94H289.483L290.875 49.744ZM297.65 53.596V55H294.062L292.67 54.196V49.744L294.062 48.94H296.258L297.65 49.744V52.612H294.314V53.596H297.65ZM294.314 50.344V51.376H296.006V50.344H294.314ZM309.775 46.6L307.639 55H305.839L304.327 49.324H304.303L302.791 55H300.991L298.855 46.6H300.487L301.903 52.36H301.927L303.463 46.6H305.167L306.703 52.336H306.727L308.143 46.6H309.775ZM315.954 53.596V55H312.366L310.974 54.196V49.744L312.366 48.94H314.562L315.954 49.744V52.612H312.618V53.596H315.954ZM312.618 50.344V51.376H314.31V50.344H312.618ZM320.255 48.94H321.827L323.219 49.744V54.256L321.827 55.06H320.255L319.403 54.568L318.551 55.06H317.759V46.24H319.403V49.432L320.255 48.94ZM319.403 50.344V53.656H321.575V50.344H319.403ZM329.777 52.048V54.196L328.385 55H325.025V53.596H328.133V52.672H326.417L325.025 51.868V49.804L326.417 49H329.657V50.404H326.669V51.244H328.385L329.777 52.048ZM333.22 49V55H331.576V49H333.22ZM331.516 47.884V46.24H333.28V47.884H331.516ZM334.541 50.404V49H335.645V47.992L337.289 47.044V49H338.609V50.404H337.289V53.596H338.609V55H337.037L335.645 54.196V50.404H334.541ZM345.146 53.596V55H341.558L340.166 54.196V49.744L341.558 48.94H343.754L345.146 49.744V52.612H341.81V53.596H345.146ZM341.81 50.344V51.376H343.502V50.344H341.81Z" fill="#00594E"/>
<path d="M229.205 87.78V88.986H231.086L232.13 89.589V92.442L231.086 93.045H228.809L227.765 92.442V91.155H229.025V91.965H230.87V90.066H227.945V86.7H232.04V87.78H229.205ZM238.207 92.442L237.163 93.045H234.706L233.662 92.442V87.258L234.706 86.655H237.163L238.207 87.258V92.442ZM234.922 87.735V91.965H236.947V87.735H234.922ZM243.111 93.045H240.78L239.736 92.442V91.155H240.996V91.965H242.895V90.282H241.32V89.202H242.895V87.735H240.996V88.545H239.736V87.258L240.78 86.655H243.111L244.155 87.258V89.283L243.372 89.733V89.751L244.155 90.201V92.442L243.111 93.045Z" fill="#FF0000"/>
<path d="M227.45 64.55V64.045L228.4 63.5H228.8V66.55H229.65V67H227.45V66.55H228.3V64.06L227.45 64.55ZM230.802 66.55H232.552V67H230.302V65.43L230.882 65.095H232.052V63.95H230.802V64.4H230.302V63.835L230.882 63.5H231.972L232.552 63.835V65.21L231.972 65.545H230.802V66.55ZM233.151 67.1L234.331 63.4H234.781L233.601 67.1H233.151ZM237.805 66.69L237.225 67.025H235.96L235.38 66.69V63.81L235.96 63.475H237.225L237.805 63.81V66.69ZM235.88 63.925V66.575H237.305V63.925H235.88ZM239.305 63.95V64.845H240.45L241.03 65.18V66.69L240.45 67.025H239.285L238.705 66.69V66.125H239.205V66.575H240.53V65.295H238.805V63.5H240.98V63.95H239.305ZM241.628 67.1L242.808 63.4H243.258L242.078 67.1H241.628ZM244.356 66.55H246.106V67H243.856V65.43L244.436 65.095H245.606V63.95H244.356V64.4H243.856V63.835L244.436 63.5H245.526L246.106 63.835V65.21L245.526 65.545H244.356V66.55ZM249.431 66.69L248.851 67.025H247.586L247.006 66.69V63.81L247.586 63.475H248.851L249.431 63.81V66.69ZM247.506 63.925V66.575H248.931V63.925H247.506ZM250.831 66.55H252.581V67H250.331V65.43L250.911 65.095H252.081V63.95H250.831V64.4H250.331V63.835L250.911 63.5H252.001L252.581 63.835V65.21L252.001 65.545H250.831V66.55ZM253.48 64.55V64.045L254.43 63.5H254.83V66.55H255.68V67H253.48V66.55H254.33V64.06L253.48 64.55ZM258.031 63.7V67.65H258.696V68H258.211L257.631 67.665V63.685L258.211 63.35H258.696V63.7H258.031ZM259.447 64.55V64.045L260.397 63.5H260.797V66.55H261.647V67H259.447V66.55H260.297V64.06L259.447 64.55ZM264.074 66.575V65.345L263.719 65.55H262.879L262.299 65.215V63.81L262.879 63.475H263.994L264.574 63.81V66.69L263.994 67.025H262.879L262.299 66.69V66.125H262.799V66.575H264.074ZM264.074 65.1V63.925H262.799V65.1H264.074ZM265.522 67V66.25H266.272V67H265.522ZM265.522 65.25V64.5H266.272V65.25H265.522ZM267.721 66.55H269.471V67H267.221V65.43L267.801 65.095H268.971V63.95H267.721V64.4H267.221V63.835L267.801 63.5H268.891L269.471 63.835V65.21L268.891 65.545H267.721V66.55ZM272.145 67.025H270.95L270.37 66.69V66.125H270.87V66.575H272.225V65.415H271.2V64.965H272.225V63.925H270.87V64.375H270.37V63.81L270.95 63.475H272.145L272.725 63.81V64.935L272.29 65.185V65.195L272.725 65.445V66.69L272.145 67.025ZM274.142 67.65V63.7H273.477V63.35H273.962L274.542 63.685V67.665L273.962 68H273.477V67.65H274.142Z" fill="black" fill-opacity="0.64"/>
<path d="M227.595 104.515V102.534L228.407 102.065H230.178L230.99 102.534V103.465H230.01V102.905H228.575V104.074H230.178L230.99 104.543V106.566L230.178 107.035H228.337L227.525 106.566V105.635H228.505V106.195H230.01V104.984H228.407L227.595 104.515ZM235.017 106.181V107H232.924L232.112 106.531V103.934L232.924 103.465H234.205L235.017 103.934V105.607H233.071V106.181H235.017ZM233.071 104.284V104.886H234.058V104.284H233.071ZM238.233 104.319H237.029V107H236.07V103.5H236.861L237.029 103.787L237.526 103.5H238.233V104.319ZM239.473 103.5L240.278 105.796H240.292L241.104 103.5H242.063L240.768 107H239.809L238.514 103.5H239.473ZM243.653 103.5V107H242.694V103.5H243.653ZM242.659 102.849V101.89H243.688V102.849H242.659ZM245.663 104.319V106.181H247.399V107H245.516L244.704 106.531V103.969L245.516 103.5H247.399V104.319H245.663ZM251.211 106.181V107H249.118L248.306 106.531V103.934L249.118 103.465H250.399L251.211 103.934V105.607H249.265V106.181H251.211ZM249.265 104.284V104.886H250.252V104.284H249.265ZM256.988 102.1H257.968V106.566L257.156 107.035H254.965L254.153 106.566V102.1H255.133V106.125H256.988V102.1ZM262.202 103.934V107H261.243V104.284H260.046V107H259.087V103.465H259.878L260.046 103.752L260.543 103.465H261.39L262.202 103.934ZM264.069 105.621V106.23H265.056V105.621H264.069ZM263.922 107.035L263.11 106.566V105.355L263.922 104.886H265.056V104.319H263.46V103.5H265.203L266.015 103.969V107.035H265.553L265.056 106.748L264.559 107.035H263.922ZM267.603 103.5L268.408 105.796H268.422L269.234 103.5H270.193L268.898 107H267.939L266.644 103.5H267.603ZM271.643 105.621V106.23H272.63V105.621H271.643ZM271.496 107.035L270.684 106.566V105.355L271.496 104.886H272.63V104.319H271.034V103.5H272.777L273.589 103.969V107.035H273.127L272.63 106.748L272.133 107.035H271.496ZM275.597 103.5V107H274.638V103.5H275.597ZM274.603 102.849V101.89H275.632V102.849H274.603ZM277.46 107L276.648 106.531V101.89H277.607V106.181H278.307V107H277.46ZM279.757 105.621V106.23H280.744V105.621H279.757ZM279.61 107.035L278.798 106.566V105.355L279.61 104.886H280.744V104.319H279.148V103.5H280.891L281.703 103.969V107.035H281.241L280.744 106.748L280.247 107.035H279.61ZM284.209 103.465H285.126L285.938 103.934V106.566L285.126 107.035H284.209L283.712 106.748L283.215 107.035H282.753V101.89H283.712V103.752L284.209 103.465ZM283.712 104.284V106.216H284.979V104.284H283.712ZM287.803 107L286.991 106.531V101.89H287.95V106.181H288.65V107H287.803ZM292.186 106.181V107H290.093L289.281 106.531V103.934L290.093 103.465H291.374L292.186 103.934V105.607H290.24V106.181H292.186ZM290.24 104.284V104.886H291.227V104.284H290.24ZM293.379 107V105.67H294.709V107H293.379ZM293.379 104.69V103.36H294.709V104.69H293.379ZM299.669 102.94V107H298.689V102.94H297.366V102.1H300.992V102.94H299.669ZM302.654 107H301.695V101.89H302.654V103.752L303.151 103.465H304.068L304.88 103.934V107H303.921V104.284H302.654V107ZM308.838 106.181V107H306.745L305.933 106.531V103.934L306.745 103.465H308.026L308.838 103.934V105.607H306.892V106.181H308.838ZM306.892 104.284V104.886H307.879V104.284H306.892ZM314.482 105.278V106.531L313.67 107H311.71V106.181H313.523V105.642H312.522L311.71 105.173V103.969L312.522 103.5H314.412V104.319H312.669V104.809H313.67L314.482 105.278ZM318.436 106.181V107H316.343L315.531 106.531V103.934L316.343 103.465H317.624L318.436 103.934V105.607H316.49V106.181H318.436ZM316.49 104.284V104.886H317.477V104.284H316.49ZM321.652 104.319H320.448V107H319.489V103.5H320.28L320.448 103.787L320.945 103.5H321.652V104.319ZM322.892 103.5L323.697 105.796H323.711L324.523 103.5H325.482L324.187 107H323.228L321.933 103.5H322.892ZM329.018 106.181V107H326.925L326.113 106.531V103.934L326.925 103.465H328.206L329.018 103.934V105.607H327.072V106.181H329.018ZM327.072 104.284V104.886H328.059V104.284H327.072ZM332.234 104.319H331.03V107H330.071V103.5H330.862L331.03 103.787L331.527 103.5H332.234V104.319ZM335.713 104.319V106.181H337.449V107H335.566L334.754 106.531V103.969L335.566 103.5H337.449V104.319H335.713ZM339.175 105.621V106.23H340.162V105.621H339.175ZM339.028 107.035L338.216 106.566V105.355L339.028 104.886H340.162V104.319H338.566V103.5H340.309L341.121 103.969V107.035H340.659L340.162 106.748L339.665 107.035H339.028ZM345.286 103.934V107H344.327V104.284H343.13V107H342.171V103.465H342.962L343.13 103.752L343.627 103.465H344.474L345.286 103.934ZM349.449 103.934V107H348.49V104.284H347.293V107H346.334V103.465H347.125L347.293 103.752L347.79 103.465H348.637L349.449 103.934ZM353.612 106.566L352.8 107.035H351.309L350.497 106.566V103.934L351.309 103.465H352.8L353.612 103.934V106.566ZM351.456 104.284V106.216H352.653V104.284H351.456ZM354.38 104.319V103.5H355.024V102.912L355.983 102.359V103.5H356.753V104.319H355.983V106.181H356.753V107H355.836L355.024 106.531V104.319H354.38ZM360.438 107H359.479V101.89H360.438V103.752L360.935 103.465H361.852L362.664 103.934V107H361.705V104.284H360.438V107ZM364.536 105.621V106.23H365.523V105.621H364.536ZM364.389 107.035L363.577 106.566V105.355L364.389 104.886H365.523V104.319H363.927V103.5H365.67L366.482 103.969V107.035H366.02L365.523 106.748L365.026 107.035H364.389ZM370.647 103.934V107H369.688V104.284H368.491V107H367.532V103.465H368.323L368.491 103.752L368.988 103.465H369.835L370.647 103.934ZM372.507 103.465H373.424L373.921 103.752V101.89H374.88V107.035H374.089L373.921 106.748L373.424 107.035H372.507L371.695 106.566V103.934L372.507 103.465ZM373.921 106.216V104.284H372.654V106.216H373.921ZM376.745 107L375.933 106.531V101.89H376.892V106.181H377.592V107H376.745ZM381.128 106.181V107H379.035L378.223 106.531V103.934L379.035 103.465H380.316L381.128 103.934V105.607H379.182V106.181H381.128ZM379.182 104.284V104.886H380.169V104.284H379.182ZM227.245 114.319V113.5H227.889V112.912L228.848 112.359V113.5H229.618V114.319H228.848V116.181H229.618V117H228.701L227.889 116.531V114.319H227.245ZM231.485 117H230.526V111.89H231.485V113.752L231.982 113.465H232.899L233.711 113.934V117H232.752V114.284H231.485V117ZM237.669 116.181V117H235.576L234.764 116.531V113.934L235.576 113.465H236.857L237.669 113.934V115.607H235.723V116.181H237.669ZM235.723 114.284V114.886H236.71V114.284H235.723ZM242.704 114.319H241.5V117H240.541V113.5H241.332L241.5 113.787L241.997 113.5H242.704V114.319ZM246.31 116.181V117H244.217L243.405 116.531V113.934L244.217 113.465H245.498L246.31 113.934V115.607H244.364V116.181H246.31ZM244.364 114.284V114.886H245.351V114.284H244.364ZM249.092 117.035H248.175L247.363 116.566V113.934L248.175 113.465H249.092L249.589 113.752L250.086 113.465H250.548V118.4H249.589V116.748L249.092 117.035ZM249.589 116.216V114.284H248.322V116.216H249.589ZM251.601 116.566V113.5H252.56V116.216H253.757V113.5H254.716V117.035H253.925L253.757 116.748L253.26 117.035H252.413L251.601 116.566ZM258.669 116.181V117H256.576L255.764 116.531V113.934L256.576 113.465H257.857L258.669 113.934V115.607H256.723V116.181H258.669ZM256.723 114.284V114.886H257.71V114.284H256.723ZM262.494 115.278V116.531L261.682 117H259.722V116.181H261.535V115.642H260.534L259.722 115.173V113.969L260.534 113.5H262.424V114.319H260.681V114.809H261.682L262.494 115.278ZM263.264 114.319V113.5H263.908V112.912L264.867 112.359V113.5H265.637V114.319H264.867V116.181H265.637V117H264.72L263.908 116.531V114.319H263.264ZM269.343 112.59V117.7H270.134V118.4H269.245L268.433 117.931V112.359L269.245 111.89H270.134V112.59H269.343ZM272.499 113.465H273.416L274.228 113.934V116.566L273.416 117.035H272.499L272.002 116.748L271.505 117.035H271.043V111.89H272.002V113.752L272.499 113.465ZM272.002 114.284V116.216H273.269V114.284H272.002ZM278.186 116.181V117H276.093L275.281 116.531V113.934L276.093 113.465H277.374L278.186 113.934V115.607H276.24V116.181H278.186ZM276.24 114.284V114.886H277.227V114.284H276.24ZM280.198 114.319V116.181H281.934V117H280.051L279.239 116.531V113.969L280.051 113.5H281.934V114.319H280.198ZM283.66 115.621V116.23H284.647V115.621H283.66ZM283.513 117.035L282.701 116.566V115.355L283.513 114.886H284.647V114.319H283.051V113.5H284.794L285.606 113.969V117.035H285.144L284.647 116.748L284.15 117.035H283.513ZM286.656 116.566V113.5H287.615V116.216H288.812V113.5H289.771V117.035H288.98L288.812 116.748L288.315 117.035H287.468L286.656 116.566ZM293.591 115.278V116.531L292.779 117H290.819V116.181H292.632V115.642H291.631L290.819 115.173V113.969L291.631 113.5H293.521V114.319H291.778V114.809H292.779L293.591 115.278ZM297.545 116.181V117H295.452L294.64 116.531V113.934L295.452 113.465H296.733L297.545 113.934V115.607H295.599V116.181H297.545ZM295.599 114.284V114.886H296.586V114.284H295.599ZM301.376 113.5V117H300.417V113.5H301.376ZM300.382 112.849V111.89H301.411V112.849H300.382ZM302.146 114.319V113.5H302.79V112.912L303.749 112.359V113.5H304.519V114.319H303.749V116.181H304.519V117H303.602L302.79 116.531V114.319H302.146ZM308.205 113.5V117H307.246V113.5H308.205ZM307.211 112.849V111.89H308.24V112.849H307.211ZM312.027 115.278V116.531L311.215 117H309.255V116.181H311.068V115.642H310.067L309.255 115.173V113.969L310.067 113.5H311.957V114.319H310.214V114.809H311.215L312.027 115.278ZM318.01 116.566L317.198 117.035H315.707L314.895 116.566V113.934L315.707 113.465H317.198L318.01 113.934V116.566ZM315.854 114.284V116.216H317.051V114.284H315.854ZM319.597 113.5L320.402 115.796H320.416L321.228 113.5H322.187L320.892 117H319.933L318.638 113.5H319.597ZM325.723 116.181V117H323.63L322.818 116.531V113.934L323.63 113.465H324.911L325.723 113.934V115.607H323.777V116.181H325.723ZM323.777 114.284V114.886H324.764V114.284H323.777ZM328.939 114.319H327.735V117H326.776V113.5H327.567L327.735 113.787L328.232 113.5H328.939V114.319ZM330.452 117L329.64 116.531V111.89H330.599V116.181H331.299V117H330.452ZM335.045 116.566L334.233 117.035H332.742L331.93 116.566V113.934L332.742 113.465H334.233L335.045 113.934V116.566ZM332.889 114.284V116.216H334.086V114.284H332.889ZM336.912 115.621V116.23H337.899V115.621H336.912ZM336.765 117.035L335.953 116.566V115.355L336.765 114.886H337.899V114.319H336.303V113.5H338.046L338.858 113.969V117.035H338.396L337.899 116.748L337.402 117.035H336.765ZM340.72 113.465H341.637L342.134 113.752V111.89H343.093V117.035H342.302L342.134 116.748L341.637 117.035H340.72L339.908 116.566V113.934L340.72 113.465ZM342.134 116.216V114.284H340.867V116.216H342.134ZM347.051 116.181V117H344.958L344.146 116.531V113.934L344.958 113.465H346.239L347.051 113.934V115.607H345.105V116.181H347.051ZM345.105 114.284V114.886H346.092V114.284H345.105ZM348.916 113.465H349.833L350.33 113.752V111.89H351.289V117.035H350.498L350.33 116.748L349.833 117.035H348.916L348.104 116.566V113.934L348.916 113.465ZM350.33 116.216V114.284H349.063V116.216H350.33ZM357.276 116.566L356.464 117.035H354.973L354.161 116.566V113.934L354.973 113.465H356.464L357.276 113.934V116.566ZM355.12 114.284V116.216H356.317V114.284H355.12ZM360.487 114.319H359.283V117H358.324V113.5H359.115L359.283 113.787L359.78 113.5H360.487V114.319ZM363.818 113.465H364.735L365.232 113.752V111.89H366.191V117.035H365.4L365.232 116.748L364.735 117.035H363.818L363.006 116.566V113.934L363.818 113.465ZM365.232 116.216V114.284H363.965V116.216H365.232ZM370.36 116.566L369.548 117.035H368.057L367.245 116.566V113.934L368.057 113.465H369.548L370.36 113.934V116.566ZM368.204 114.284V116.216H369.401V114.284H368.204ZM373.578 114.788H373.564L372.948 117H371.954L371.058 113.5H371.947L372.493 115.733H372.507L373.13 113.5H374.012L374.635 115.733H374.649L375.195 113.5H376.084L375.188 117H374.194L373.578 114.788ZM379.896 113.934V117H378.937V114.284H377.74V117H376.781V113.465H377.572L377.74 113.752L378.237 113.465H379.084L379.896 113.934ZM227.245 124.319V123.5H227.889V122.359L228.701 121.89H229.618V122.709H228.848V123.5H229.618V124.319H228.848V127H227.889V124.319H227.245ZM233.504 126.566L232.692 127.035H231.201L230.389 126.566V123.934L231.201 123.465H232.692L233.504 123.934V126.566ZM231.348 124.284V126.216H232.545V124.284H231.348ZM236.715 124.319H235.511V127H234.552V123.5H235.343L235.511 123.787L236.008 123.5H236.715V124.319ZM244.156 123.934V127H243.197V124.284H242.175V127H241.216V124.284H240.194V127H239.235V123.465H240.026L240.194 123.752L240.691 123.465H241.363L242.014 123.843L242.672 123.465H243.344L244.156 123.934ZM246.022 125.621V126.23H247.009V125.621H246.022ZM245.875 127.035L245.063 126.566V125.355L245.875 124.886H247.009V124.319H245.413V123.5H247.156L247.968 123.969V127.035H247.506L247.009 126.748L246.512 127.035H245.875ZM249.976 123.5V127H249.017V123.5H249.976ZM248.982 122.849V121.89H250.011V122.849H248.982ZM254.142 123.934V127H253.183V124.284H251.986V127H251.027V123.465H251.818L251.986 123.752L252.483 123.465H253.33L254.142 123.934ZM254.91 124.319V123.5H255.554V122.912L256.513 122.359V123.5H257.283V124.319H256.513V126.181H257.283V127H256.366L255.554 126.531V124.319H254.91ZM261.096 126.181V127H259.003L258.191 126.531V123.934L259.003 123.465H260.284L261.096 123.934V125.607H259.15V126.181H261.096ZM259.15 124.284V124.886H260.137V124.284H259.15ZM265.264 123.934V127H264.305V124.284H263.108V127H262.149V123.465H262.94L263.108 123.752L263.605 123.465H264.452L265.264 123.934ZM267.131 125.621V126.23H268.118V125.621H267.131ZM266.984 127.035L266.172 126.566V125.355L266.984 124.886H268.118V124.319H266.522V123.5H268.265L269.077 123.969V127.035H268.615L268.118 126.748L267.621 127.035H266.984ZM273.242 123.934V127H272.283V124.284H271.086V127H270.127V123.465H270.918L271.086 123.752L271.583 123.465H272.43L273.242 123.934ZM275.249 124.319V126.181H276.985V127H275.102L274.29 126.531V123.969L275.102 123.5H276.985V124.319H275.249ZM280.797 126.181V127H278.704L277.892 126.531V123.934L278.704 123.465H279.985L280.797 123.934V125.607H278.851V126.181H280.797ZM278.851 124.284V124.886H279.838V124.284H278.851ZM282.501 127.7V122.59H281.71V121.89H282.599L283.411 122.359V127.931L282.599 128.4H281.71V127.7H282.501ZM284.67 127V125.67H286V127H284.67ZM290.827 125.285V124.445H292.612V126.566L291.8 127.035H289.819L289.007 126.566V122.534L289.819 122.065H291.8L292.612 122.534V123.535H291.632V122.905H289.987V126.195H291.632V125.285H290.827ZM296.568 126.181V127H294.475L293.663 126.531V123.934L294.475 123.465H295.756L296.568 123.934V125.607H294.622V126.181H296.568ZM294.622 124.284V124.886H295.609V124.284H294.622ZM300.736 123.934V127H299.777V124.284H298.58V127H297.621V123.465H298.412L298.58 123.752L299.077 123.465H299.924L300.736 123.934ZM304.689 126.181V127H302.596L301.784 126.531V123.934L302.596 123.465H303.877L304.689 123.934V125.607H302.743V126.181H304.689ZM302.743 124.284V124.886H303.73V124.284H302.743ZM307.905 124.319H306.701V127H305.742V123.5H306.533L306.701 123.787L307.198 123.5H307.905V124.319ZM309.425 125.621V126.23H310.412V125.621H309.425ZM309.278 127.035L308.466 126.566V125.355L309.278 124.886H310.412V124.319H308.816V123.5H310.559L311.371 123.969V127.035H310.909L310.412 126.748L309.915 127.035H309.278ZM313.233 127L312.421 126.531V121.89H313.38V126.181H314.08V127H313.233ZM315.523 127L314.711 126.531V121.89H315.67V126.181H316.37V127H315.523ZM317.274 128.4L317.918 126.755L316.581 123.5H317.54L318.401 125.558H318.415L319.227 123.5H320.186L318.219 128.4H317.274ZM320.955 128.4V125.67H322.285V126.244L321.529 128.4H320.955ZM325.013 124.319V123.5H325.657V122.912L326.616 122.359V123.5H327.386V124.319H326.616V126.181H327.386V127H326.469L325.657 126.531V124.319H325.013ZM329.253 127H328.294V121.89H329.253V123.752L329.75 123.465H330.667L331.479 123.934V127H330.52V124.284H329.253V127ZM333.491 123.5V127H332.532V123.5H333.491ZM332.497 122.849V121.89H333.526V122.849H332.497ZM337.314 125.278V126.531L336.502 127H334.542V126.181H336.355V125.642H335.354L334.542 125.173V123.969L335.354 123.5H337.244V124.319H335.501V124.809H336.502L337.314 125.278ZM341.14 123.5V127H340.181V123.5H341.14ZM340.146 122.849V121.89H341.175V122.849H340.146ZM344.963 125.278V126.531L344.151 127H342.191V126.181H344.004V125.642H343.003L342.191 125.173V123.969L343.003 123.5H344.893V124.319H343.15V124.809H344.151L344.963 125.278ZM348.65 125.621V126.23H349.637V125.621H348.65ZM348.503 127.035L347.691 126.566V125.355L348.503 124.886H349.637V124.319H348.041V123.5H349.784L350.596 123.969V127.035H350.134L349.637 126.748L349.14 127.035H348.503ZM227.245 134.319V133.5H227.889V132.912L228.848 132.359V133.5H229.618V134.319H228.848V136.181H229.618V137H228.701L227.889 136.531V134.319H227.245ZM233.431 136.181V137H231.338L230.526 136.531V133.934L231.338 133.465H232.619L233.431 133.934V135.607H231.485V136.181H233.431ZM231.485 134.284V134.886H232.472V134.284H231.485ZM239.405 133.934V137H238.446V134.284H237.424V137H236.465V134.284H235.443V137H234.484V133.465H235.275L235.443 133.752L235.94 133.465H236.612L237.263 133.843L237.921 133.465H238.593L239.405 133.934ZM242.825 137.035H241.908L241.411 136.748V138.4H240.452V133.465H241.243L241.411 133.752L241.908 133.465H242.825L243.637 133.934V136.566L242.825 137.035ZM241.411 134.284V136.216H242.678V134.284H241.411ZM247.805 136.566L246.993 137.035H245.502L244.69 136.566V133.934L245.502 133.465H246.993L247.805 133.934V136.566ZM245.649 134.284V136.216H246.846V134.284H245.649ZM251.016 134.319H249.812V137H248.853V133.5H249.644L249.812 133.787L250.309 133.5H251.016V134.319ZM252.536 135.621V136.23H253.523V135.621H252.536ZM252.389 137.035L251.577 136.566V135.355L252.389 134.886H253.523V134.319H251.927V133.5H253.67L254.482 133.969V137.035H254.02L253.523 136.748L253.026 137.035H252.389ZM257.695 134.319H256.491V137H255.532V133.5H256.323L256.491 133.787L256.988 133.5H257.695V134.319ZM258.669 138.4L259.313 136.755L257.976 133.5H258.935L259.796 135.558H259.81L260.622 133.5H261.581L259.614 138.4H258.669ZM266.801 135.278V136.531L265.989 137H264.029V136.181H265.842V135.642H264.841L264.029 135.173V133.969L264.841 133.5H266.731V134.319H264.988V134.809H265.989L266.801 135.278ZM267.57 134.319V133.5H268.214V132.912L269.173 132.359V133.5H269.943V134.319H269.173V136.181H269.943V137H269.026L268.214 136.531V134.319H267.57ZM271.67 135.621V136.23H272.657V135.621H271.67ZM271.523 137.035L270.711 136.566V135.355L271.523 134.886H272.657V134.319H271.061V133.5H272.804L273.616 133.969V137.035H273.154L272.657 136.748L272.16 137.035H271.523ZM274.386 134.319V133.5H275.03V132.912L275.989 132.359V133.5H276.759V134.319H275.989V136.181H276.759V137H275.842L275.03 136.531V134.319H274.386ZM280.572 136.181V137H278.479L277.667 136.531V133.934L278.479 133.465H279.76L280.572 133.934V135.607H278.626V136.181H280.572ZM278.626 134.284V134.886H279.613V134.284H278.626ZM281.765 137V135.67H283.095V137H281.765Z" fill="black" fill-opacity="0.69"/>
<defs>
<filter id="filter0_d" x="0" y="57" width="227" height="190" filterUnits="userSpaceOnUse" color-interpolation-filters="sRGB">
<feFlood flood-opacity="0" result="BackgroundImageFix"/>
<feColorMatrix in="SourceAlpha" type="matrix" values="0 0 0 0 0 0 0 0 0 0 0 0 0 0 0 0 0 0 127 0"/>
<feMorphology radius="8" operator="dilate" in="SourceAlpha" result="effect1_dropShadow"/>
<feOffset dx="4" dy="4"/>
<feGaussianBlur stdDeviation="7.5"/>
<feColorMatrix type="matrix" values="0 0 0 0 0 0 0 0 0 0 0 0 0 0 0 0 0 0 0.08 0"/>
<feBlend mode="normal" in2="BackgroundImageFix" result="effect1_dropShadow"/>
<feBlend mode="normal" in="SourceGraphic" in2="effect1_dropShadow" result="shape"/>
</filter>
<filter id="filter1_d" x="196" y="13" width="227" height="196" filterUnits="userSpaceOnUse" color-interpolation-filters="sRGB">
<feFlood flood-opacity="0" result="BackgroundImageFix"/>
<feColorMatrix in="SourceAlpha" type="matrix" values="0 0 0 0 0 0 0 0 0 0 0 0 0 0 0 0 0 0 127 0"/>
<feMorphology radius="8" operator="dilate" in="SourceAlpha" result="effect1_dropShadow"/>
<feOffset dx="4" dy="4"/>
<feGaussianBlur stdDeviation="7.5"/>
<feColorMatrix type="matrix" values="0 0 0 0 0 0 0 0 0 0 0 0 0 0 0 0 0 0 0.08 0"/>
<feBlend mode="normal" in2="BackgroundImageFix" result="effect1_dropShadow"/>
<feBlend mode="normal" in="SourceGraphic" in2="effect1_dropShadow" result="shape"/>
</filter>
</defs>
</svg>
