<svg width="490" height="404" viewBox="0 0 490 404" fill="none" xmlns="http://www.w3.org/2000/svg">
<rect y="124.38" width="422.205" height="292" transform="rotate(-17.1333 0 124.38)" fill="#008272"/>
<g filter="url(#filter0_d)">
<g filter="url(#filter1_d)">
<rect x="5.974" y="60" width="211" height="141" rx="3" fill="white"/>
<rect x="6.224" y="60.25" width="210.5" height="140.5" rx="2.75" stroke="#C0C0C0" stroke-width="0.5"/>
</g>
<rect x="8.024" y="62.05" width="206.9" height="11.9" rx="1.95" fill="#F5F5F5" stroke="#ACACAC" stroke-width="0.1"/>
<rect x="13.974" y="64" width="26" height="7" rx="2" fill="#E4E4E4"/>
<rect x="180.974" y="67" width="26" height="3" rx="1" fill="#E4E4E4"/>
<rect x="148.974" y="67" width="26" height="3" rx="1" fill="#E4E4E4"/>
<rect x="116.974" y="67" width="26" height="3" rx="1" fill="#E4E4E4"/>
<rect x="8.024" y="76.05" width="206.9" height="99.9" rx="1.95" fill="#EFEFEF" stroke="#C2C2C2" stroke-width="0.1"/>
<rect x="39.974" y="106" width="141" height="12" rx="2" fill="#DADADA"/>
<rect x="55.974" y="122" width="109" height="6" rx="2" fill="#DADADA"/>
<rect x="80.974" y="132" width="26" height="9" fill="#C4C4C4"/>
<rect x="112.974" y="132" width="26" height="9" fill="#C4C4C4"/>
<rect x="117.974" y="135" width="17" height="3" rx="1" fill="white"/>
<rect x="84.974" y="135" width="17" height="3" rx="1" fill="white"/>
<rect x="49.074" y="193.1" width="36.8" height="7.8" fill="#DADADA" stroke="#E2E2E2" stroke-width="0.2"/>
<rect x="93.074" y="193.1" width="36.8" height="7.8" fill="#DADADA" stroke="#E2E2E2" stroke-width="0.2"/>
<rect x="137.074" y="193.1" width="36.8" height="7.8" fill="#DADADA" stroke="#E2E2E2" stroke-width="0.2"/>
<rect x="81.074" y="182.1" width="60.8" height="4.8" fill="#DADADA" stroke="#E2E2E2" stroke-width="0.2"/>
<g filter="url(#filter2_d)">
<circle cx="109.974" cy="132" r="25" fill="#008272"/>
</g>
<rect x="93.7034" y="132.915" width="7" height="18.2178" transform="rotate(-43.465 93.7034 132.915)" fill="white"/>
<rect width="26.8559" height="7.0882" transform="matrix(-0.725795 0.687911 0.687911 0.725795 121.466 122.84)" fill="white"/>
<path d="M91.4225 163.655C93.2383 163.391 93.779 158.883 92.6302 153.588C91.4813 148.293 89.0778 144.215 87.2619 144.48C85.4461 144.744 84.9054 149.252 86.0543 154.547C87.2031 159.842 89.6066 163.92 91.4225 163.655Z" fill="#2F2E41"/>
<path d="M107.815 192.335C119.649 192.335 129.243 183.676 129.243 172.995C129.243 162.314 119.649 153.656 107.815 153.656C95.9816 153.656 86.3884 162.314 86.3884 172.995C86.3884 183.676 95.9816 192.335 107.815 192.335Z" fill="#2F2E41"/>
<path d="M111.149 198.69L117.659 198.674L117.626 188.147L111.116 188.164L111.149 198.69Z" fill="#2F2E41"/>
<path d="M98.131 198.724L104.641 198.708L104.608 188.181L98.0984 188.198L98.131 198.724Z" fill="#2F2E41"/>
<path d="M112.241 200.647C115.237 200.639 117.663 199.811 117.66 198.797C117.657 197.783 115.225 196.967 112.229 196.975C109.234 196.982 106.807 197.811 106.811 198.825C106.814 199.839 109.245 200.655 112.241 200.647Z" fill="#2F2E41"/>
<path d="M99.2212 200.435C102.217 200.427 104.643 199.599 104.64 198.585C104.637 197.571 102.206 196.755 99.2098 196.763C96.2139 196.771 93.7878 197.599 93.791 198.613C93.7941 199.627 96.2253 200.443 99.2212 200.435Z" fill="#2F2E41"/>
<path d="M107.258 174.71C111.302 174.71 114.581 171.751 114.581 168.101C114.581 164.45 111.302 161.491 107.258 161.491C103.213 161.491 99.9346 164.45 99.9346 168.101C99.9346 171.751 103.213 174.71 107.258 174.71Z" fill="white"/>
<path d="M107.258 170.304C108.606 170.304 109.699 169.317 109.699 168.101C109.699 166.884 108.606 165.897 107.258 165.897C105.91 165.897 104.817 166.884 104.817 168.101C104.817 169.317 105.91 170.304 107.258 170.304Z" fill="#3F3D56"/>
<path d="M128.628 157.471C131.857 152.636 133.262 148.04 131.768 147.206C130.273 146.372 126.444 149.615 123.215 154.45C119.987 159.285 118.581 163.881 120.075 164.715C121.57 165.55 125.399 162.306 128.628 157.471Z" fill="#2F2E41"/>
<path d="M118.362 179.946C118.368 181.838 112.98 185.59 106.988 185.605C100.996 185.62 95.3616 180.305 95.3557 178.412C95.3498 176.52 100.975 178.765 106.967 178.75C112.958 178.735 118.356 178.053 118.362 179.946Z" fill="white"/>
</g>
<g filter="url(#filter3_d)">
<g filter="url(#filter4_d)">
<rect x="223.974" y="60" width="211" height="141" rx="3" fill="white"/>
<rect x="224.224" y="60.25" width="210.5" height="140.5" rx="2.75" stroke="#C0C0C0" stroke-width="0.5"/>
</g>
<rect x="226.024" y="62.05" width="206.9" height="11.9" rx="1.95" fill="#F5F5F5" stroke="#ACACAC" stroke-width="0.1"/>
<rect x="231.974" y="64" width="26" height="7" rx="2" fill="#E4E4E4"/>
<rect x="398.974" y="67" width="26" height="3" rx="1" fill="#E4E4E4"/>
<rect x="366.974" y="67" width="26" height="3" rx="1" fill="#E4E4E4"/>
<rect x="334.974" y="67" width="26" height="3" rx="1" fill="#E4E4E4"/>
<rect x="226.024" y="76.05" width="206.9" height="99.9" rx="1.95" fill="#EFEFEF" stroke="#C2C2C2" stroke-width="0.1"/>
<rect x="257.974" y="106" width="141" height="12" rx="2" fill="#DADADA"/>
<rect x="273.974" y="122" width="109" height="6" rx="2" fill="#DADADA"/>
<rect x="298.974" y="132" width="26" height="9" fill="#C4C4C4"/>
<rect x="330.974" y="132" width="26" height="9" fill="#C4C4C4"/>
<rect x="335.974" y="135" width="17" height="3" rx="1" fill="white"/>
<rect x="302.974" y="135" width="17" height="3" rx="1" fill="white"/>
<rect x="267.074" y="193.1" width="36.8" height="7.8" fill="#DADADA" stroke="#E2E2E2" stroke-width="0.2"/>
<rect x="311.074" y="193.1" width="36.8" height="7.8" fill="#DADADA" stroke="#E2E2E2" stroke-width="0.2"/>
<rect x="355.074" y="193.1" width="36.8" height="7.8" fill="#DADADA" stroke="#E2E2E2" stroke-width="0.2"/>
<rect x="299.074" y="182.1" width="60.8" height="4.8" fill="#DADADA" stroke="#E2E2E2" stroke-width="0.2"/>
<g filter="url(#filter5_d)">
<circle cx="327.974" cy="132" r="25" fill="#CA0000"/>
</g>
<rect x="316.353" y="124.815" width="7" height="26" transform="rotate(-43.465 316.353 124.815)" fill="white"/>
<path d="M334.845 120.84L315.974 138.726L320.85 143.87L339.721 125.985L334.845 120.84Z" fill="white"/>
<path d="M373.384 174.651C371.878 173.602 368.4 176.52 365.616 181.168C362.832 185.817 361.795 190.435 363.301 191.484C364.806 192.533 368.284 189.615 371.069 184.967C373.853 180.319 374.889 175.7 373.384 174.651Z" fill="#2F2E41"/>
<path d="M390.816 193.335C402.649 193.335 412.243 184.676 412.243 173.995C412.243 163.314 402.649 154.656 390.816 154.656C378.982 154.656 369.388 163.314 369.388 173.995C369.388 184.676 378.982 193.335 390.816 193.335Z" fill="#2F2E41"/>
<path d="M394.149 199.69L400.659 199.674L400.626 189.147L394.117 189.164L394.149 199.69Z" fill="#2F2E41"/>
<path d="M381.131 199.724L387.641 199.708L387.608 189.181L381.098 189.198L381.131 199.724Z" fill="#2F2E41"/>
<path d="M395.241 201.647C398.237 201.639 400.663 200.811 400.66 199.797C400.657 198.783 398.226 197.967 395.23 197.975C392.234 197.982 389.808 198.811 389.811 199.825C389.814 200.839 392.245 201.655 395.241 201.647Z" fill="#2F2E41"/>
<path d="M382.221 201.435C385.217 201.427 387.643 200.599 387.64 199.585C387.637 198.571 385.206 197.755 382.21 197.763C379.214 197.771 376.788 198.599 376.791 199.613C376.794 200.627 379.226 201.443 382.221 201.435Z" fill="#2F2E41"/>
<path d="M390.258 175.71C394.302 175.71 397.581 172.751 397.581 169.101C397.581 165.45 394.302 162.491 390.258 162.491C386.213 162.491 382.935 165.45 382.935 169.101C382.935 172.751 386.213 175.71 390.258 175.71Z" fill="white"/>
<path d="M390.258 171.304C391.606 171.304 392.699 170.317 392.699 169.101C392.699 167.884 391.606 166.897 390.258 166.897C388.91 166.897 387.817 167.884 387.817 169.101C387.817 170.317 388.91 171.304 390.258 171.304Z" fill="#3F3D56"/>
<path d="M411.545 155.958C413.253 148.96 407.701 141.907 399.143 140.205C390.585 138.503 382.263 142.796 380.554 149.794C378.846 156.792 384.522 159.357 393.08 161.059C401.637 162.761 409.836 162.955 411.545 155.958Z" fill="#CA0000"/>
<path d="M409.583 184.994C413.036 189.672 416.882 192.553 418.174 191.43C419.466 190.307 417.714 185.605 414.26 180.927C410.807 176.25 406.961 173.368 405.669 174.491C404.377 175.614 406.13 180.316 409.583 184.994Z" fill="#2F2E41"/>
<path d="M378.36 184.34C378.349 182.447 383.729 178.683 389.721 178.654C395.712 178.625 401.359 183.926 401.37 185.819C401.38 187.711 395.75 185.479 389.758 185.508C383.766 185.538 378.37 186.233 378.36 184.34Z" fill="white"/>
</g>
<g filter="url(#filter6_d)">
<g filter="url(#filter7_d)">
<rect x="223.974" y="210" width="211" height="141" rx="3" fill="white"/>
<rect x="224.089" y="210.115" width="210.77" height="140.77" rx="2.885" stroke="#C0C0C0" stroke-width="0.23"/>
</g>
<rect x="226.024" y="212.05" width="206.9" height="11.9" rx="1.95" fill="#F5F5F5" stroke="#ACACAC" stroke-width="0.1"/>
<rect x="231.974" y="214" width="26" height="7" rx="2" fill="#E4E4E4"/>
<rect x="398.974" y="217" width="26" height="3" rx="1" fill="#E4E4E4"/>
<rect x="366.974" y="217" width="26" height="3" rx="1" fill="#E4E4E4"/>
<rect x="334.974" y="217" width="26" height="3" rx="1" fill="#E4E4E4"/>
<rect x="226.024" y="226.05" width="206.9" height="99.9" rx="1.95" fill="#EFEFEF" stroke="#C2C2C2" stroke-width="0.1"/>
<rect x="257.974" y="256" width="141" height="12" rx="2" fill="#DADADA"/>
<rect x="273.974" y="272" width="109" height="6" rx="2" fill="#DADADA"/>
<rect x="298.974" y="282" width="26" height="9" fill="#C4C4C4"/>
<rect x="330.974" y="282" width="26" height="9" fill="#C4C4C4"/>
<rect x="335.974" y="285" width="17" height="3" rx="1" fill="white"/>
<rect x="302.974" y="285" width="17" height="3" rx="1" fill="white"/>
<rect x="267.074" y="343.1" width="36.8" height="7.8" fill="#DADADA" stroke="#E2E2E2" stroke-width="0.2"/>
<rect x="311.074" y="343.1" width="36.8" height="7.8" fill="#DADADA" stroke="#E2E2E2" stroke-width="0.2"/>
<rect x="355.074" y="343.1" width="36.8" height="7.8" fill="#DADADA" stroke="#E2E2E2" stroke-width="0.2"/>
<rect x="299.074" y="332.1" width="60.8" height="4.8" fill="#DADADA" stroke="#E2E2E2" stroke-width="0.2"/>
<g filter="url(#filter8_d)">
<circle cx="327.974" cy="282" r="25" fill="#008272"/>
</g>
<rect x="311.703" y="282.915" width="7" height="18.2178" transform="rotate(-43.465 311.703 282.915)" fill="white"/>
<rect width="26.8559" height="7.0882" transform="matrix(-0.725795 0.687911 0.687911 0.725795 339.466 272.84)" fill="white"/>
<rect x="223.974" y="210" width="211" height="141" rx="2" fill="white" fill-opacity="0.47"/>
</g>
<defs>
<filter id="filter0_d" x="1.974" y="60" width="219" height="149" filterUnits="userSpaceOnUse" color-interpolation-filters="sRGB">
<feFlood flood-opacity="0" result="BackgroundImageFix"/>
<feColorMatrix in="SourceAlpha" type="matrix" values="0 0 0 0 0 0 0 0 0 0 0 0 0 0 0 0 0 0 127 0"/>
<feOffset dy="4"/>
<feGaussianBlur stdDeviation="2"/>
<feColorMatrix type="matrix" values="0 0 0 0 0 0 0 0 0 0 0 0 0 0 0 0 0 0 0.1 0"/>
<feBlend mode="normal" in2="BackgroundImageFix" result="effect1_dropShadow"/>
<feBlend mode="normal" in="SourceGraphic" in2="effect1_dropShadow" result="shape"/>
</filter>
<filter id="filter1_d" x="1.974" y="60" width="219" height="149" filterUnits="userSpaceOnUse" color-interpolation-filters="sRGB">
<feFlood flood-opacity="0" result="BackgroundImageFix"/>
<feColorMatrix in="SourceAlpha" type="matrix" values="0 0 0 0 0 0 0 0 0 0 0 0 0 0 0 0 0 0 127 0"/>
<feOffset dy="4"/>
<feGaussianBlur stdDeviation="2"/>
<feColorMatrix type="matrix" values="0 0 0 0 0 0 0 0 0 0 0 0 0 0 0 0 0 0 0.05 0"/>
<feBlend mode="normal" in2="BackgroundImageFix" result="effect1_dropShadow"/>
<feBlend mode="normal" in="SourceGraphic" in2="effect1_dropShadow" result="shape"/>
</filter>
<filter id="filter2_d" x="80.974" y="107" width="58" height="58" filterUnits="userSpaceOnUse" color-interpolation-filters="sRGB">
<feFlood flood-opacity="0" result="BackgroundImageFix"/>
<feColorMatrix in="SourceAlpha" type="matrix" values="0 0 0 0 0 0 0 0 0 0 0 0 0 0 0 0 0 0 127 0"/>
<feOffset dy="4"/>
<feGaussianBlur stdDeviation="2"/>
<feColorMatrix type="matrix" values="0 0 0 0 0 0 0 0 0 0 0 0 0 0 0 0 0 0 0.1 0"/>
<feBlend mode="normal" in2="BackgroundImageFix" result="effect1_dropShadow"/>
<feBlend mode="normal" in="SourceGraphic" in2="effect1_dropShadow" result="shape"/>
</filter>
<filter id="filter3_d" x="219.974" y="60" width="219" height="149.647" filterUnits="userSpaceOnUse" color-interpolation-filters="sRGB">
<feFlood flood-opacity="0" result="BackgroundImageFix"/>
<feColorMatrix in="SourceAlpha" type="matrix" values="0 0 0 0 0 0 0 0 0 0 0 0 0 0 0 0 0 0 127 0"/>
<feOffset dy="4"/>
<feGaussianBlur stdDeviation="2"/>
<feColorMatrix type="matrix" values="0 0 0 0 0 0 0 0 0 0 0 0 0 0 0 0 0 0 0.1 0"/>
<feBlend mode="normal" in2="BackgroundImageFix" result="effect1_dropShadow"/>
<feBlend mode="normal" in="SourceGraphic" in2="effect1_dropShadow" result="shape"/>
</filter>
<filter id="filter4_d" x="219.974" y="60" width="219" height="149" filterUnits="userSpaceOnUse" color-interpolation-filters="sRGB">
<feFlood flood-opacity="0" result="BackgroundImageFix"/>
<feColorMatrix in="SourceAlpha" type="matrix" values="0 0 0 0 0 0 0 0 0 0 0 0 0 0 0 0 0 0 127 0"/>
<feOffset dy="4"/>
<feGaussianBlur stdDeviation="2"/>
<feColorMatrix type="matrix" values="0 0 0 0 0 0 0 0 0 0 0 0 0 0 0 0 0 0 0.05 0"/>
<feBlend mode="normal" in2="BackgroundImageFix" result="effect1_dropShadow"/>
<feBlend mode="normal" in="SourceGraphic" in2="effect1_dropShadow" result="shape"/>
</filter>
<filter id="filter5_d" x="298.974" y="107" width="58" height="58" filterUnits="userSpaceOnUse" color-interpolation-filters="sRGB">
<feFlood flood-opacity="0" result="BackgroundImageFix"/>
<feColorMatrix in="SourceAlpha" type="matrix" values="0 0 0 0 0 0 0 0 0 0 0 0 0 0 0 0 0 0 127 0"/>
<feOffset dy="4"/>
<feGaussianBlur stdDeviation="2"/>
<feColorMatrix type="matrix" values="0 0 0 0 0 0 0 0 0 0 0 0 0 0 0 0 0 0 0.1 0"/>
<feBlend mode="normal" in2="BackgroundImageFix" result="effect1_dropShadow"/>
<feBlend mode="normal" in="SourceGraphic" in2="effect1_dropShadow" result="shape"/>
</filter>
<filter id="filter6_d" x="219.974" y="210" width="219" height="149" filterUnits="userSpaceOnUse" color-interpolation-filters="sRGB">
<feFlood flood-opacity="0" result="BackgroundImageFix"/>
<feColorMatrix in="SourceAlpha" type="matrix" values="0 0 0 0 0 0 0 0 0 0 0 0 0 0 0 0 0 0 127 0"/>
<feOffset dy="4"/>
<feGaussianBlur stdDeviation="2"/>
<feColorMatrix type="matrix" values="0 0 0 0 0 0 0 0 0 0 0 0 0 0 0 0 0 0 0.1 0"/>
<feBlend mode="normal" in2="BackgroundImageFix" result="effect1_dropShadow"/>
<feBlend mode="normal" in="SourceGraphic" in2="effect1_dropShadow" result="shape"/>
</filter>
<filter id="filter7_d" x="219.974" y="210" width="219" height="149" filterUnits="userSpaceOnUse" color-interpolation-filters="sRGB">
<feFlood flood-opacity="0" result="BackgroundImageFix"/>
<feColorMatrix in="SourceAlpha" type="matrix" values="0 0 0 0 0 0 0 0 0 0 0 0 0 0 0 0 0 0 127 0"/>
<feOffset dy="4"/>
<feGaussianBlur stdDeviation="2"/>
<feColorMatrix type="matrix" values="0 0 0 0 0 0 0 0 0 0 0 0 0 0 0 0 0 0 0.05 0"/>
<feBlend mode="normal" in2="BackgroundImageFix" result="effect1_dropShadow"/>
<feBlend mode="normal" in="SourceGraphic" in2="effect1_dropShadow" result="shape"/>
</filter>
<filter id="filter8_d" x="298.974" y="257" width="58" height="58" filterUnits="userSpaceOnUse" color-interpolation-filters="sRGB">
<feFlood flood-opacity="0" result="BackgroundImageFix"/>
<feColorMatrix in="SourceAlpha" type="matrix" values="0 0 0 0 0 0 0 0 0 0 0 0 0 0 0 0 0 0 127 0"/>
<feOffset dy="4"/>
<feGaussianBlur stdDeviation="2"/>
<feColorMatrix type="matrix" values="0 0 0 0 0 0 0 0 0 0 0 0 0 0 0 0 0 0 0.1 0"/>
<feBlend mode="normal" in2="BackgroundImageFix" result="effect1_dropShadow"/>
<feBlend mode="normal" in="SourceGraphic" in2="effect1_dropShadow" result="shape"/>
</filter>
</defs>
</svg>
