<svg width="150" height="150" viewBox="0 0 150 150" fill="none" xmlns="http://www.w3.org/2000/svg">
<rect width="150" height="150" rx="13" fill="#008272"/>
<path d="M114.639 72.8574C114.639 97.2841 95.7514 116.927 72.6438 116.927C49.5361 116.927 30.6483 97.2841 30.6483 72.8574C30.6483 48.4306 49.5361 28.7879 72.6438 28.7879C95.7514 28.7879 114.639 48.4306 114.639 72.8574Z" stroke="white" stroke-width="4"/>
<path d="M40.4327 44.4769C59.6808 60.519 95.8199 55.1716 104.462 44.4769" stroke="white" stroke-width="4"/>
<path d="M40.4327 100.83C59.5627 83.8845 95.4801 89.533 104.069 100.83" stroke="white" stroke-width="4"/>
<path d="M74.6376 30.0802C103.233 52.2923 95.1781 103.298 73.4293 116.461" stroke="white" stroke-width="4"/>
<path d="M70.6981 30.0802C43.2464 52.2923 50.9792 103.298 71.8581 116.461" stroke="white" stroke-width="4"/>
<line x1="31.0051" y1="72.5044" x2="114.282" y2="72.5044" stroke="white" stroke-width="4"/>
<line x1="73.5533" y1="113.989" x2="73.5533" y2="26.7857" stroke="white" stroke-width="4"/>
<rect x="1.41232" y="-0.102795" width="13.4175" height="37.7031" transform="matrix(0.654898 -0.755717 0.757424 0.652923 69.1469 95.5529)" fill="#008272" stroke="white" stroke-width="2"/>
<rect x="-1.41223" y="0.10449" width="13.9025" height="59.3302" transform="matrix(-0.758221 -0.651997 -0.654008 0.756487 136.429 73.2496)" fill="#008272" stroke="white" stroke-width="2"/>
<rect width="5.36568" height="11.4165" transform="matrix(0.770375 0.637591 -0.639621 0.76869 94.1772 98.918)" fill="#008272"/>
</svg>
