<svg width="737" height="402" viewBox="0 0 737 402" fill="none" xmlns="http://www.w3.org/2000/svg">
<rect width="737" height="401" fill="#F9F9F9"/>
<path d="M654.842 399.339C651.556 396.663 649.56 392.436 650.083 388.321C650.606 384.206 653.849 380.423 658.054 379.55C662.26 378.676 667.054 381.095 668.331 385.053C669.034 377.421 669.844 369.469 674.055 362.969C677.868 357.084 684.472 352.873 691.63 352.119C698.787 351.366 706.323 354.211 710.786 359.655C715.25 365.099 716.343 373.013 713.217 379.263C710.914 383.867 706.671 387.294 702.225 390.081C687.86 399.013 670.63 402.645 653.707 400.309L654.842 399.339Z" fill="#F2F2F2"/>
<path d="M704.103 358.144C699.627 362.399 695.522 367.159 691.845 372.353C686.092 380.454 681.436 389.537 678.04 399.286C677.791 399.997 678.78 400.306 679.026 399.603C684.583 383.76 693.453 369.796 704.826 358.988C705.337 358.503 704.609 357.662 704.103 358.144Z" fill="white"/>
<path d="M495.985 397.814C502.375 392.362 506.257 383.749 505.239 375.365C504.221 366.98 497.916 359.272 489.738 357.492C481.56 355.711 472.237 360.64 469.753 368.706C468.386 353.154 466.811 336.951 458.622 323.707C451.208 311.715 438.365 303.135 424.447 301.6C410.528 300.065 395.874 305.862 387.194 316.955C378.513 328.047 376.388 344.173 382.467 356.908C386.946 366.289 395.197 373.271 403.842 378.95C431.423 397.071 465.637 404.629 498.192 399.792" fill="#F2F2F2"/>
<path d="M400.957 306.184C412.442 315.629 422.977 326.192 432.412 337.721C441.848 349.239 450.156 361.653 457.218 374.79C461.165 382.159 464.711 389.741 467.84 397.5C468.478 399.079 465.94 399.766 465.309 398.205C459.767 384.525 452.91 371.426 444.838 359.097C436.804 346.812 427.609 335.343 417.382 324.85C411.598 318.919 405.495 313.313 399.101 308.058C397.79 306.981 399.658 305.115 400.957 306.184L400.957 306.184Z" fill="white"/>
<path d="M639.856 400.893H487.394V242.944C487.394 209.339 514.471 182 547.752 182H579.498C612.78 182 639.856 209.339 639.856 242.944V400.893Z" fill="#F2F2F2"/>
<path d="M608.111 400.893H487.394V242.944C487.361 230.068 491.399 217.516 498.921 207.118C499.198 206.737 499.475 206.36 499.76 205.987C503.398 201.169 507.728 196.926 512.606 193.398C512.882 193.195 513.158 192.996 513.439 192.797C517.521 189.945 521.937 187.614 526.585 185.856C526.861 185.75 527.142 185.644 527.423 185.543C531.628 184.028 535.986 182.99 540.418 182.449C540.692 182.411 540.974 182.381 541.256 182.351C545.575 181.885 549.931 181.885 554.249 182.351C554.531 182.381 554.813 182.411 555.091 182.449C559.521 182.99 563.878 184.028 568.081 185.543C568.363 185.644 568.644 185.75 568.92 185.856C573.512 187.592 577.875 189.888 581.914 192.695C582.194 192.89 582.475 193.089 582.752 193.287C585.486 195.258 588.055 197.454 590.431 199.852C592.336 201.775 594.112 203.825 595.746 205.989C596.03 206.36 596.307 206.737 596.583 207.118C604.106 217.516 608.144 230.067 608.111 242.944V400.893Z" fill="#CCCCCC"/>
<path d="M598.295 330.248C601.986 330.248 604.978 327.227 604.978 323.5C604.978 319.773 601.986 316.752 598.295 316.752C594.604 316.752 591.611 319.773 591.611 323.5C591.611 327.227 594.604 330.248 598.295 330.248Z" fill="#008272"/>
<path d="M627.366 396.162H622.245L619.809 376.218L627.367 376.219L627.366 396.162Z" fill="#FFB8B8"/>
<path d="M618.587 394.685H628.464V400.964H612.369C612.369 400.139 612.53 399.323 612.842 398.561C613.155 397.799 613.613 397.107 614.19 396.524C614.768 395.941 615.453 395.478 616.208 395.163C616.962 394.847 617.771 394.685 618.587 394.685Z" fill="#2F2E41"/>
<path d="M652.846 396.162H647.725L645.289 376.218L652.847 376.219L652.846 396.162Z" fill="#FFB8B8"/>
<path d="M644.067 394.685H653.944V400.964H637.849C637.849 400.139 638.01 399.323 638.322 398.561C638.635 397.799 639.093 397.107 639.67 396.524C640.248 395.941 640.933 395.478 641.688 395.163C642.442 394.847 643.251 394.685 644.067 394.685Z" fill="#2F2E41"/>
<path d="M601.677 324.837C601.309 324.289 601.064 323.666 600.96 323.012C600.855 322.358 600.895 321.689 601.074 321.052C601.254 320.415 601.57 319.825 601.999 319.325C602.429 318.824 602.962 318.425 603.561 318.155L620.969 269.709L629.535 274.429L609.659 320.726C610.041 321.772 610.03 322.924 609.628 323.962C609.226 325.001 608.46 325.854 607.476 326.361C606.493 326.868 605.359 326.993 604.29 326.712C603.221 326.431 602.291 325.764 601.677 324.837Z" fill="#FFB8B8"/>
<path d="M650.231 333.94C649.661 333.611 649.171 333.159 648.793 332.618C648.416 332.076 648.16 331.458 648.045 330.805C647.93 330.153 647.958 329.484 648.126 328.844C648.295 328.204 648.601 327.609 649.022 327.101L643.629 275.853L653.378 276.303L655.619 326.712C656.417 327.483 656.907 328.522 656.997 329.634C657.086 330.745 656.769 331.852 656.105 332.743C655.44 333.634 654.476 334.248 653.393 334.468C652.31 334.689 651.185 334.501 650.231 333.94Z" fill="#FFB8B8"/>
<path d="M634.679 260.736C640.345 260.736 644.938 256.098 644.938 250.377C644.938 244.656 640.345 240.018 634.679 240.018C629.013 240.018 624.42 244.656 624.42 250.377C624.42 256.098 629.013 260.736 634.679 260.736Z" fill="#FFB8B8"/>
<path d="M650.165 322.285H619.235L619.273 322.042C619.328 321.679 624.785 285.586 620.76 273.778C620.356 272.617 620.392 271.347 620.86 270.211C621.328 269.076 622.196 268.155 623.296 267.627H623.296C629.048 264.892 640.09 261.524 649.41 269.697C650.782 270.92 651.853 272.448 652.539 274.161C653.224 275.873 653.506 277.723 653.362 279.565L650.165 322.285Z" fill="#008272"/>
<path d="M625.176 290.92L611.251 288.067L617.778 272.449C618.169 270.937 619.138 269.642 620.472 268.85C621.807 268.058 623.398 267.832 624.897 268.223C626.396 268.614 627.68 269.589 628.468 270.934C629.256 272.28 629.484 273.886 629.1 275.401L625.176 290.92Z" fill="#008272"/>
<path d="M643.01 296.216L642.173 276.84C641.538 273.197 643.603 269.754 646.779 269.191C649.956 268.63 653.058 271.157 653.696 274.826L656.842 292.931L643.01 296.216Z" fill="#008272"/>
<path d="M649.136 319.965C654.113 339.103 654.656 363.436 653.313 389.977L646.63 389.134L634.516 338.523L627.833 389.977L620.314 389.556C618.068 361.707 615.881 337.799 619.479 322.074L649.136 319.965Z" fill="#2F2E41"/>
<path d="M641.439 258.382C639.525 260.441 635.971 259.336 635.721 256.524C635.702 256.305 635.703 256.086 635.726 255.867C635.854 254.622 636.567 253.491 636.396 252.176C636.358 251.848 636.237 251.536 636.045 251.269C634.52 249.207 630.94 252.192 629.501 250.325C628.618 249.18 629.656 247.378 628.978 246.099C628.084 244.41 625.437 245.243 623.776 244.318C621.929 243.289 622.039 240.427 623.255 238.687C624.739 236.564 627.339 235.431 629.907 235.268C632.475 235.104 635.025 235.805 637.422 236.749C640.146 237.82 642.847 239.302 644.523 241.72C646.562 244.661 646.758 248.615 645.739 252.054C645.118 254.146 643.002 256.701 641.439 258.382Z" fill="#2F2E41"/>
<path d="M729.864 401.165H421.475C421.344 401.164 421.218 401.111 421.125 401.017C421.032 400.923 420.979 400.795 420.979 400.662C420.979 400.529 421.032 400.402 421.125 400.308C421.218 400.214 421.344 400.161 421.475 400.16H729.864C729.995 400.161 730.122 400.214 730.215 400.308C730.308 400.402 730.36 400.529 730.36 400.662C730.36 400.795 730.308 400.923 730.215 401.017C730.122 401.111 729.995 401.164 729.864 401.165Z" fill="#3F3D56"/>
<path d="M574.903 355.132H520.602C519.887 355.136 519.199 354.854 518.69 354.346C518.181 353.839 517.892 353.149 517.887 352.427V230.045C517.892 229.323 518.181 228.632 518.69 228.125C519.199 227.618 519.887 227.335 520.602 227.339H574.903C575.618 227.335 576.306 227.618 576.815 228.125C577.324 228.632 577.613 229.323 577.618 230.045V352.427C577.613 353.149 577.324 353.839 576.815 354.346C576.306 354.854 575.618 355.136 574.903 355.132Z" fill="white"/>
<path d="M577.618 266.938H517.887V267.782H577.618V266.938Z" fill="#CCCCCC"/>
<path d="M577.827 315.065H518.095V315.909H577.827V315.065Z" fill="#CCCCCC"/>
<path d="M537.519 227.339H536.683V355.554H537.519V227.339Z" fill="#CCCCCC"/>
<path d="M558.404 227.339H557.569V355.554H558.404V227.339Z" fill="#CCCCCC"/>
<path d="M329.55 296.132C327.821 310.949 324.227 322.845 319.295 332.332C312.732 344.973 301.505 350.066 291.476 355.396C288.579 356.933 285.566 358.243 282.465 359.314C264.216 365.648 243.791 363.967 227.747 360.623C216.494 358.276 205.071 356.832 193.588 356.305C190.313 356.157 187.035 356.084 183.753 356.085C178.693 356.091 87.5774 357.821 65.3934 312.908C59.9163 301.829 56.1621 288.296 54.8133 271.799C50.9967 225.16 71.9731 194.529 99.0303 174.508C150.214 136.634 220.373 138.222 270.802 177.094C304.393 202.986 335.844 242.172 329.55 296.132Z" fill="#F2F2F2"/>
<path d="M149.45 282.63C149.45 319.702 127.411 332.646 100.225 332.646C73.0387 332.646 51 319.702 51 282.63C51 245.558 100.225 198.396 100.225 198.396C100.225 198.396 149.45 245.558 149.45 282.63Z" fill="#008272"/>
<path d="M98.4318 326.975L98.9358 295.949L119.917 257.566L99.0149 291.082L99.2413 277.132L113.701 249.362L99.3014 273.44L99.709 248.349L115.193 226.241L99.773 244.404L100.028 198.397L98.4272 259.302L98.5588 256.789L82.816 232.693L98.3064 261.612L96.8395 289.635L96.7958 288.891L78.6473 263.532L96.7407 291.518L96.5573 295.023L96.5245 295.075L96.5396 295.363L92.8182 366.457H97.7902L98.3868 329.736L116.436 301.818L98.4318 326.975Z" fill="#3F3D56"/>
<path d="M366.039 284.927C366.039 321.999 344 334.943 316.814 334.943C289.628 334.943 267.589 321.999 267.589 284.927C267.589 247.855 316.814 200.694 316.814 200.694C316.814 200.694 366.039 247.855 366.039 284.927Z" fill="#008272"/>
<path d="M315.021 329.272L315.525 298.246L336.506 259.863L315.604 293.379L315.831 279.429L330.291 251.659L315.891 275.737L316.298 250.647L331.782 228.538L316.362 246.701L316.617 200.694L315.016 261.599L315.148 259.087L299.405 234.99L314.896 263.91L313.429 291.932L313.385 291.188L295.237 265.829L313.33 293.815L313.147 297.32L313.114 297.372L313.129 297.66L309.407 368.754H314.379L314.976 332.033L333.025 304.116L315.021 329.272Z" fill="#3F3D56"/>
<path d="M263.651 253.442C263.651 293.974 239.556 308.126 209.832 308.126C180.109 308.126 156.013 293.974 156.013 253.442C156.013 212.91 209.832 161.347 209.832 161.347C209.832 161.347 263.651 212.91 263.651 253.442Z" fill="#008272"/>
<path d="M207.872 301.926L208.423 268.005L231.362 226.039L208.509 262.683L208.757 247.431L224.566 217.069L208.822 243.394L209.268 215.962L226.197 191.79L209.338 211.648L209.617 161.347L207.867 227.937L208.011 225.19L190.799 198.844L207.735 230.463L206.131 261.101L206.083 260.287L186.241 232.562L206.023 263.16L205.822 266.991L205.787 267.049L205.803 267.364L201.734 345.093H207.17L207.822 304.944L227.556 274.421L207.872 301.926Z" fill="#3F3D56"/>
<path d="M324 367.374C324 374.58 266.916 397 196.5 397C126.084 397 69 374.58 69 367.374C69 360.169 121.483 344 191.899 344C262.316 344 324 360.169 324 367.374Z" fill="#3F3D56"/>
<path opacity="0.1" d="M324 361.2C324 366.502 266.916 383 196.5 383C126.084 383 69 366.502 69 361.2C69 355.898 121.483 344 191.899 344C262.316 344 324 355.898 324 361.2Z" fill="black"/>
<path d="M327 391.575C327 400.274 262.027 401.442 191.706 401.442C121.384 401.442 57 400.274 57 391.575C57 382.875 116.79 357.468 187.111 357.468C257.433 357.468 327 382.875 327 391.575Z" fill="#3F3D56"/>
<path d="M239.508 328.496C239.508 340.976 247.337 351.074 257.012 351.074L239.508 328.496Z" fill="#3F3D56"/>
<path d="M257.012 351.074C257.012 338.454 265.749 328.242 276.546 328.242L257.012 351.074Z" fill="#008272"/>
<path d="M245.85 329.627C245.85 341.482 250.843 351.074 257.012 351.074L245.85 329.627Z" fill="#008272"/>
<path d="M257.012 351.074C257.012 334.949 267.111 321.9 279.591 321.9L257.012 351.074Z" fill="#3F3D56"/>
<path d="M253.33 351.233C253.33 351.233 255.812 351.157 256.56 350.624C257.309 350.091 260.379 349.455 260.565 350.31C260.75 351.164 264.295 354.559 261.493 354.582C258.69 354.604 254.98 354.145 254.234 353.69C253.487 353.235 253.33 351.233 253.33 351.233Z" fill="#A8A8A8"/>
<path opacity="0.2" d="M261.543 354.284C258.74 354.307 255.03 353.848 254.284 353.393C253.715 353.046 253.489 351.804 253.413 351.23C253.36 351.232 253.33 351.233 253.33 351.233C253.33 351.233 253.487 353.235 254.234 353.69C254.98 354.145 258.69 354.604 261.493 354.582C262.302 354.575 262.581 354.287 262.566 353.861C262.453 354.119 262.145 354.279 261.543 354.284Z" fill="black"/>
<path opacity="0.1" d="M198.346 377.366C222.27 377.366 241.664 374.281 241.664 370.475C241.664 366.669 222.27 363.583 198.346 363.583C174.423 363.583 155.029 366.669 155.029 370.475C155.029 374.281 174.423 377.366 198.346 377.366Z" fill="black"/>
<path d="M217.38 355.051H213.114V364.896H217.38V355.051Z" fill="#FFB9B9"/>
<path d="M217.708 222.144H201.3V251.679H217.708V222.144Z" fill="#FF6584"/>
<path d="M229.759 278.04L230.326 282.584L215.372 287.127L213.478 278.798L229.759 278.04Z" fill="#FFB9B9"/>
<path d="M207.61 234.312C207.61 234.312 207.231 237.719 206.474 237.719C205.717 237.719 203.067 239.044 203.067 239.044L202.31 242.641L207.61 245.859L216.318 244.913L218.779 241.126L216.318 238.666C216.318 238.666 214.236 234.122 214.993 233.176C215.75 232.229 207.61 234.312 207.61 234.312Z" fill="#FFB9B9"/>
<path opacity="0.1" d="M207.61 234.312C207.61 234.312 207.231 237.719 206.474 237.719C205.717 237.719 203.067 239.044 203.067 239.044L202.31 242.641L207.61 245.859L216.318 244.913L218.779 241.126L216.318 238.666C216.318 238.666 214.236 234.122 214.993 233.176C215.75 232.229 207.61 234.312 207.61 234.312Z" fill="black"/>
<path d="M183.947 352.248C183.947 352.248 182.243 363.606 180.161 364.363C178.079 365.12 188.112 366.445 188.112 366.445L188.869 362.281C188.869 362.281 189.058 354.708 189.816 353.573C190.573 352.437 183.947 352.248 183.947 352.248Z" fill="#FFB9B9"/>
<path d="M203.256 286.181C203.256 286.181 230.705 281.259 230.894 280.312C231.084 279.366 236.573 287.506 233.166 303.407C229.759 319.309 221.24 356.791 221.24 356.791C221.24 356.791 212.532 359.441 212.721 357.359C212.911 355.276 215.75 319.119 215.75 319.119L213.857 303.786L210.639 305.679L197.198 332.181L190.383 355.087C190.383 355.087 181.675 356.602 183.001 353.383C184.326 350.165 188.68 325.177 188.68 325.177L200.606 289.967C200.606 289.967 200.227 286.181 203.256 286.181Z" fill="#2F2E41"/>
<path d="M210.166 236.867C214.557 236.867 218.116 233.307 218.116 228.916C218.116 224.525 214.557 220.966 210.166 220.966C205.775 220.966 202.215 224.525 202.215 228.916C202.215 233.307 205.775 236.867 210.166 236.867Z" fill="#FFB9B9"/>
<path d="M218.4 238.855C218.4 238.855 214.614 242.452 205.717 241.505C196.82 240.559 208.178 261.761 208.178 261.761L211.775 283.152C211.775 283.152 227.676 281.259 228.244 277.662C228.812 274.065 218.4 238.855 218.4 238.855Z" fill="#F2F2F2"/>
<path d="M214.614 259.11C214.614 259.11 210.071 256.839 208.367 250.592C206.664 244.345 205.149 237.908 204.203 238.098C203.403 238.257 195.992 241.116 193.589 243.028C193.146 243.38 192.874 243.701 192.844 243.966C192.655 245.67 199.659 262.707 199.659 262.707C199.659 262.707 205.149 275.012 202.877 278.987C200.606 282.963 200.417 288.074 204.581 287.695C208.746 287.316 222.565 286.559 220.672 275.958C220.672 275.958 224.269 283.341 234.302 278.041C234.302 278.041 240.36 277.094 240.17 275.012C239.981 272.929 230.516 254.946 230.516 254.946C230.516 254.946 229.001 246.995 231.841 243.966L225.405 236.394C225.405 236.394 223.89 234.122 222.376 235.258C220.861 236.394 217.454 238.287 216.886 238.476C216.318 238.666 215.945 237.796 215.945 237.796C214.633 240.539 214.107 243.592 214.425 246.616C214.993 251.538 214.614 259.11 214.614 259.11Z" fill="#2F2E41"/>
<path d="M184.515 362.091C184.515 362.091 184.092 360.766 181.653 362.091C181.653 362.091 182.433 357.927 179.782 357.927C177.132 357.927 176.186 362.849 176.186 362.849C176.186 362.849 175.428 366.067 170.317 367.392C165.206 368.717 169.181 373.26 172.778 373.26C176.375 373.26 181.108 370.421 181.108 370.421C181.108 370.421 190.951 370.61 191.141 368.717C191.33 366.824 190.194 361.145 189.437 361.145C188.68 361.145 187.165 363.795 187.165 363.795L184.515 362.091Z" fill="#2F2E41"/>
<path d="M216.697 358.76C216.697 358.76 214.046 355.92 212.532 360.653C211.017 365.385 209.882 367.279 210.828 368.036C211.775 368.793 212.532 368.414 212.153 369.929C211.775 371.443 213.289 374.661 216.697 374.661C220.104 374.661 221.051 372.2 220.861 370.497C220.672 368.793 219.158 366.711 219.158 366.711L217.643 361.41L216.697 358.76Z" fill="#2F2E41"/>
<path d="M231.652 225.604L221.618 229.011C221.618 229.011 212.532 234.312 216.507 235.447C220.483 236.583 223.89 232.04 223.89 232.04L232.598 229.768L231.652 225.604Z" fill="#FFB9B9"/>
<path d="M204.756 216.622C203.565 217.438 202.616 218.555 201.715 219.683C199.883 221.975 198.088 224.712 198.539 227.611C198.711 228.712 199.2 229.736 199.476 230.816C199.847 232.273 199.823 233.798 199.796 235.302C199.818 235.941 199.739 236.579 199.561 237.193C199.296 237.792 198.984 238.368 198.629 238.918C197.717 240.616 197.694 242.634 197.694 244.561C197.65 245.21 197.738 245.861 197.953 246.475C198.202 247.054 198.666 247.509 199.05 248.009C199.687 248.854 200.112 249.839 200.289 250.882C200.467 251.925 200.392 252.996 200.07 254.004C200.564 254.006 201.048 253.867 201.466 253.604C201.884 253.34 202.218 252.963 202.429 252.516C202.495 252.997 202.454 253.486 202.308 253.948C202.163 254.411 201.917 254.835 201.588 255.192C203.755 254.548 206.078 253.462 206.869 251.344C207.101 250.624 207.232 249.876 207.258 249.12C207.679 243.808 207.919 238.297 206.014 233.321C205.404 231.728 204.575 230.187 204.371 228.495C204.166 226.802 204.791 224.846 206.346 224.147C206.382 224.58 206.575 224.986 206.887 225.288C207.234 225.545 207.874 225.384 207.88 224.953L208.631 225.998C208.919 225.857 209.165 225.642 209.344 225.376L209.859 226.006L210.954 225.21L211.905 226.235C212.271 226.027 212.563 225.709 212.74 225.327C212.945 225.632 213.198 225.968 213.564 226.001C214.361 226.073 214.526 224.808 215.223 224.413C215.48 224.299 215.77 224.282 216.039 224.363C216.308 224.445 216.539 224.62 216.69 224.858C216.977 225.347 217.082 225.921 216.985 226.48C216.697 229.083 214.476 231.458 215.135 233.993C215.505 235.418 216.752 236.561 216.846 238.031C216.921 239.205 216.231 240.317 216.241 241.493C216.254 242.873 217.207 244.044 218.137 245.062C219.793 246.875 221.535 248.602 223.365 250.245L222.8 249.256C223.064 249.235 223.329 249.272 223.577 249.363C223.826 249.454 224.051 249.598 224.239 249.785C224.401 249.217 224.132 248.625 223.878 248.091C222.356 244.895 221.127 241.492 220.944 237.957C220.689 233.043 222.455 228.053 221.336 223.262C220.692 220.579 219.191 218.179 217.06 216.427C216.025 215.574 215.239 215.064 213.898 214.97C212.399 214.839 210.891 214.851 209.394 215.005C207.741 215.162 206.149 215.717 204.756 216.622Z" fill="#FF6584"/>
<path d="M223.89 236.583C223.89 236.583 225.972 236.772 226.919 236.583C227.866 236.394 229.191 235.447 229.191 235.447L236.384 230.147L230.137 231.093C230.137 231.093 231.273 222.385 230.894 222.196C230.516 222.007 249.257 218.41 248.878 224.278C248.5 230.147 237.899 241.694 231.841 243.966L227.866 244.534L223.89 236.583Z" fill="#2F2E41"/>
<path d="M244.29 303.696H155.029V324.699H244.29V303.696Z" fill="white"/>
<path d="M232.64 308.454H166.35V319.612H232.64V308.454Z" fill="#3F3D56"/>
<path d="M181.755 313.788C181.729 313.502 180.463 313.375 178.727 313.447C179.733 312.03 180.316 310.899 180.09 310.721C179.878 310.553 179.007 311.279 177.948 312.459C177.847 310.877 177.615 309.767 177.344 309.767C177.048 309.767 176.798 311.087 176.716 312.901C175.242 311.841 174.051 311.219 173.868 311.451C173.693 311.672 174.49 312.608 175.756 313.727C174.084 313.975 172.906 314.325 172.932 314.606C172.959 314.892 174.224 315.02 175.961 314.948C174.955 316.365 174.372 317.495 174.597 317.673C174.81 317.841 175.68 317.115 176.74 315.935C176.84 317.518 177.073 318.627 177.344 318.627C177.639 318.627 177.889 317.307 177.971 315.493C179.446 316.553 180.637 317.176 180.82 316.944C180.995 316.722 180.198 315.787 178.931 314.668C180.603 314.42 181.781 314.069 181.755 313.788Z" fill="white"/>
<path d="M192.913 313.788C192.886 313.502 191.621 313.375 189.884 313.447C190.891 312.03 191.473 310.899 191.248 310.721C191.035 310.553 190.165 311.279 189.105 312.459C189.005 310.877 188.772 309.767 188.501 309.767C188.206 309.767 187.956 311.087 187.874 312.901C186.399 311.841 185.209 311.219 185.025 311.451C184.85 311.672 185.647 312.608 186.914 313.727C185.242 313.975 184.064 314.325 184.09 314.606C184.117 314.892 185.382 315.02 187.118 314.948C186.112 316.365 185.529 317.495 185.755 317.673C185.968 317.841 186.838 317.115 187.898 315.935C187.998 317.518 188.23 318.627 188.501 318.627C188.797 318.627 189.047 317.307 189.129 315.493C190.604 316.553 191.794 317.176 191.978 316.944C192.153 316.722 191.356 315.787 190.089 314.668C191.761 314.42 192.939 314.069 192.913 313.788Z" fill="white"/>
<path d="M204.07 313.788C204.044 313.502 202.778 313.375 201.042 313.447C202.048 312.03 202.631 310.899 202.405 310.721C202.193 310.553 201.322 311.279 200.263 312.459C200.163 310.877 199.93 309.767 199.659 309.767C199.363 309.767 199.113 311.087 199.031 312.901C197.557 311.841 196.366 311.219 196.183 311.451C196.008 311.672 196.805 312.608 198.072 313.727C196.4 313.975 195.222 314.325 195.248 314.606C195.274 314.892 196.54 315.02 198.276 314.948C197.27 316.365 196.687 317.495 196.913 317.673C197.125 317.841 197.996 317.115 199.055 315.935C199.155 317.518 199.388 318.627 199.659 318.627C199.955 318.627 200.205 317.307 200.287 315.493C201.761 316.553 202.952 317.176 203.135 316.944C203.31 316.722 202.513 315.787 201.246 314.668C202.918 314.42 204.096 314.069 204.07 313.788Z" fill="white"/>
<path d="M215.228 313.788C215.201 313.502 213.936 313.375 212.2 313.447C213.206 312.03 213.789 310.899 213.563 310.721C213.35 310.553 212.48 311.279 211.42 312.459C211.32 310.877 211.088 309.767 210.817 309.767C210.521 309.767 210.271 311.087 210.189 312.901C208.714 311.841 207.524 311.219 207.34 311.451C207.165 311.672 207.962 312.608 209.229 313.727C207.557 313.975 206.379 314.325 206.405 314.606C206.432 314.892 207.697 315.02 209.434 314.948C208.427 316.365 207.845 317.495 208.07 317.673C208.283 317.841 209.153 317.115 210.213 315.935C210.313 317.518 210.546 318.627 210.817 318.627C211.112 318.627 211.362 317.307 211.444 315.493C212.919 316.553 214.11 317.176 214.293 316.944C214.468 316.722 213.671 315.787 212.404 314.668C214.076 314.42 215.254 314.069 215.228 313.788Z" fill="white"/>
<path d="M226.386 313.788C226.359 313.502 225.094 313.375 223.357 313.447C224.363 312.03 224.946 310.899 224.721 310.721C224.508 310.553 223.638 311.279 222.578 312.459C222.478 310.877 222.245 309.767 221.974 309.767C221.679 309.767 221.429 311.087 221.347 312.901C219.872 311.841 218.681 311.219 218.498 311.451C218.323 311.672 219.12 312.608 220.387 313.727C218.715 313.975 217.537 314.325 217.563 314.606C217.589 314.892 218.855 315.02 220.591 314.948C219.585 316.365 219.002 317.495 219.228 317.673C219.44 317.841 220.311 317.115 221.37 315.935C221.471 317.518 221.703 318.627 221.974 318.627C222.27 318.627 222.52 317.307 222.602 315.493C224.076 316.553 225.267 317.176 225.45 316.944C225.625 316.722 224.828 315.787 223.562 314.668C225.234 314.42 226.412 314.069 226.386 313.788Z" fill="white"/>
<path d="M191.709 294.699C191.709 294.699 190.762 307.193 195.305 307.761C199.849 308.329 195.684 293.564 195.684 293.564L191.709 294.699Z" fill="#FFB9B9"/>
<path d="M194.169 243.587L192.844 243.966C192.844 243.966 187.355 287.884 190.951 296.403C190.951 296.403 194.737 294.321 196.63 294.699L199.659 258.921L194.169 243.587Z" fill="#2F2E41"/>
</svg>
