<svg width="412" height="84" viewBox="0 0 412 84" fill="none" xmlns="http://www.w3.org/2000/svg">
<rect width="83.7748" height="84" rx="13" fill="#008272"/>
<path d="M63.1429 40.8011C63.1429 54.0379 52.9465 64.6 40.5714 64.6C28.1963 64.6 18 54.0379 18 40.8011C18 27.5643 28.1963 17.0022 40.5714 17.0022C52.9465 17.0022 63.1429 27.5643 63.1429 40.8011Z" stroke="white" stroke-width="4"/>
<path d="M22.5816 24.9071C33.3316 33.8906 53.5153 30.8961 58.3418 24.9071" stroke="white" stroke-width="4"/>
<path d="M22.5816 56.4647C33.2657 46.9753 53.3255 50.1385 58.1224 56.4647" stroke="white" stroke-width="4"/>
<path d="M41.685 16.8449C57.6556 29.2837 53.1569 57.8468 41.0102 65.2179" stroke="white" stroke-width="4"/>
<path d="M39.4848 16.8449C24.1531 29.2837 28.4719 57.8468 40.1326 65.2179" stroke="white" stroke-width="4"/>
<line x1="17.3163" y1="39.7225" x2="63.8265" y2="39.7225" stroke="white" stroke-width="4"/>
<line x1="40.1964" y1="63.8337" x2="40.1964" y2="15" stroke="white" stroke-width="4"/>
<rect x="39.5392" y="53.2759" width="6.62491" height="20.1969" transform="rotate(-51.7409 39.5392 53.2759)" fill="#008272" stroke="white" stroke-width="2"/>
<rect x="-1.41036" y="0.104352" width="6.89166" height="32.3055" transform="matrix(-0.757355 -0.653003 -0.653003 0.757355 75.1335 40.6255)" fill="#008272" stroke="white" stroke-width="2"/>
<rect x="52.5913" y="56.3733" width="3" height="4.76181" transform="rotate(39.688 52.5913 56.3733)" fill="#008272"/>
<path d="M152.04 26.64L142.152 60H135.96L128.952 34.752L121.512 60L115.368 60.048L105.912 26.64H111.72L118.632 53.808L126.12 26.64H132.264L139.224 53.664L146.184 26.64H152.04ZM180.793 46.128C180.793 47.12 180.729 48.016 180.601 48.816H160.393C160.553 50.928 161.337 52.624 162.745 53.904C164.153 55.184 165.881 55.824 167.929 55.824C170.873 55.824 172.953 54.592 174.169 52.128H180.073C179.273 54.56 177.817 56.56 175.705 58.128C173.625 59.664 171.033 60.432 167.929 60.432C165.401 60.432 163.129 59.872 161.113 58.752C159.129 57.6 157.561 56 156.409 53.952C155.289 51.872 154.729 49.472 154.729 46.752C154.729 44.032 155.273 41.648 156.361 39.6C157.481 37.52 159.033 35.92 161.017 34.8C163.033 33.68 165.337 33.12 167.929 33.12C170.425 33.12 172.649 33.664 174.601 34.752C176.553 35.84 178.073 37.376 179.161 39.36C180.249 41.312 180.793 43.568 180.793 46.128ZM175.081 44.4C175.049 42.384 174.329 40.768 172.921 39.552C171.513 38.336 169.769 37.728 167.689 37.728C165.801 37.728 164.185 38.336 162.841 39.552C161.497 40.736 160.697 42.352 160.441 44.4H175.081ZM191.65 37.488C192.578 36.208 193.842 35.168 195.442 34.368C197.074 33.536 198.882 33.12 200.866 33.12C203.202 33.12 205.314 33.68 207.202 34.8C209.09 35.92 210.578 37.52 211.666 39.6C212.754 41.648 213.298 44 213.298 46.656C213.298 49.312 212.754 51.696 211.666 53.808C210.578 55.888 209.074 57.52 207.154 58.704C205.266 59.856 203.17 60.432 200.866 60.432C198.818 60.432 196.994 60.032 195.394 59.232C193.826 58.432 192.578 57.408 191.65 56.16V60H186.178V24.48H191.65V37.488ZM207.73 46.656C207.73 44.832 207.346 43.264 206.578 41.952C205.842 40.608 204.85 39.6 203.602 38.928C202.386 38.224 201.074 37.872 199.666 37.872C198.29 37.872 196.978 38.224 195.73 38.928C194.514 39.632 193.522 40.656 192.754 42C192.018 43.344 191.65 44.928 191.65 46.752C191.65 48.576 192.018 50.176 192.754 51.552C193.522 52.896 194.514 53.92 195.73 54.624C196.978 55.328 198.29 55.68 199.666 55.68C201.074 55.68 202.386 55.328 203.602 54.624C204.85 53.888 205.842 52.832 206.578 51.456C207.346 50.08 207.73 48.48 207.73 46.656Z" fill="black"/>
<path d="M216.885 43.248C216.885 39.984 217.637 37.056 219.141 34.464C220.677 31.872 222.741 29.856 225.333 28.416C227.957 26.944 230.821 26.208 233.925 26.208C237.477 26.208 240.629 27.088 243.381 28.848C246.165 30.576 248.181 33.04 249.429 36.24H242.853C241.989 34.48 240.789 33.168 239.253 32.304C237.717 31.44 235.941 31.008 233.925 31.008C231.717 31.008 229.749 31.504 228.021 32.496C226.293 33.488 224.933 34.912 223.941 36.768C222.981 38.624 222.501 40.784 222.501 43.248C222.501 45.712 222.981 47.872 223.941 49.728C224.933 51.584 226.293 53.024 228.021 54.048C229.749 55.04 231.717 55.536 233.925 55.536C235.941 55.536 237.717 55.104 239.253 54.24C240.789 53.376 241.989 52.064 242.853 50.304H249.429C248.181 53.504 246.165 55.968 243.381 57.696C240.629 59.424 237.477 60.288 233.925 60.288C230.789 60.288 227.925 59.568 225.333 58.128C222.741 56.656 220.677 54.624 219.141 52.032C217.637 49.44 216.885 46.512 216.885 43.248ZM269.514 33.12C271.53 33.12 273.322 33.552 274.89 34.416C276.49 35.28 277.738 36.56 278.634 38.256C279.562 39.952 280.026 42 280.026 44.4V60H274.602V45.216C274.602 42.848 274.01 41.04 272.826 39.792C271.642 38.512 270.026 37.872 267.978 37.872C265.93 37.872 264.298 38.512 263.082 39.792C261.898 41.04 261.306 42.848 261.306 45.216V60H255.834V24.48H261.306V36.624C262.234 35.504 263.402 34.64 264.81 34.032C266.25 33.424 267.818 33.12 269.514 33.12ZM311.246 46.128C311.246 47.12 311.182 48.016 311.054 48.816H290.846C291.006 50.928 291.79 52.624 293.198 53.904C294.606 55.184 296.334 55.824 298.382 55.824C301.326 55.824 303.406 54.592 304.622 52.128H310.526C309.726 54.56 308.27 56.56 306.158 58.128C304.078 59.664 301.486 60.432 298.382 60.432C295.854 60.432 293.582 59.872 291.566 58.752C289.582 57.6 288.014 56 286.862 53.952C285.742 51.872 285.182 49.472 285.182 46.752C285.182 44.032 285.726 41.648 286.814 39.6C287.934 37.52 289.486 35.92 291.47 34.8C293.486 33.68 295.79 33.12 298.382 33.12C300.878 33.12 303.102 33.664 305.054 34.752C307.006 35.84 308.526 37.376 309.614 39.36C310.702 41.312 311.246 43.568 311.246 46.128ZM305.534 44.4C305.502 42.384 304.782 40.768 303.374 39.552C301.966 38.336 300.222 37.728 298.142 37.728C296.254 37.728 294.638 38.336 293.294 39.552C291.95 40.736 291.15 42.352 290.894 44.4H305.534ZM314.807 46.752C314.807 44.032 315.351 41.648 316.439 39.6C317.559 37.52 319.095 35.92 321.047 34.8C322.999 33.68 325.239 33.12 327.767 33.12C330.967 33.12 333.607 33.888 335.687 35.424C337.799 36.928 339.223 39.088 339.959 41.904H334.055C333.575 40.592 332.807 39.568 331.751 38.832C330.695 38.096 329.367 37.728 327.767 37.728C325.527 37.728 323.735 38.528 322.391 40.128C321.079 41.696 320.423 43.904 320.423 46.752C320.423 49.6 321.079 51.824 322.391 53.424C323.735 55.024 325.527 55.824 327.767 55.824C330.935 55.824 333.031 54.432 334.055 51.648H339.959C339.191 54.336 337.751 56.48 335.639 58.08C333.527 59.648 330.903 60.432 327.767 60.432C325.239 60.432 322.999 59.872 321.047 58.752C319.095 57.6 317.559 56 316.439 53.952C315.351 51.872 314.807 49.472 314.807 46.752ZM355.877 46.8L368.069 60H360.677L350.885 48.624V60H345.413V24.48H350.885V45.12L360.485 33.552H368.069L355.877 46.8Z" fill="#008272"/>
</svg>
